<svg width="100" height="100" xmlns="http://www.w3.org/2000/svg" xmlns:xlink="http://www.w3.org/1999/xlink"><defs><circle id="a" cx="50" cy="50" r="50"></circle><path d="M36.999.328c2.862.77 7.113 2.894 10.647 6.384C51.181 10.202 54 15.45 54 19.522V44H0V19.523c0-4.065 2.76-9.304 6.23-12.79C9.814 3.133 14.156.98 17 .266 17.053 5.059 21.51 10 27 10c5.466 0 9.908-4.898 9.999-9.672z" id="c"></path><path id="e" d="M36.676 12.352l.128 1.988 1.89 2.195.289 1.483.239 1.992 1.147 1.563-.13 1.7.118 1.997 1.444 1.931v1.688l1.666 1.877.473-1.847-.209-1.777-.283-1.702.492-1.813-.667-1.815.727-1.89-.269-1.671-.29-1.769.29-1.969-.458-1.208-.89-2.011-.352-1.832-1.662-1.469-.226-1.582-1.449-1.717L36 4.127l-1.324-1.255-1.797-.809L31.056.9l-2.062.322-1.779-.437-1.728-.631L23.673.09 21.865.42 20.05 0l-1.785.414-1.822.056-1.693.752-1.805.278-1.792.45-1.605.922-1.288 1.39-1.77.695L5.312 6.41l-1.06 1.513-1 1.538-1.112 1.494-.645 1.746-.121 1.898.026 1.867L0 18.058l.523 1.912-.41 1.8.61 1.82-.683 1.85.761 1.761v1.828L1.176 31l1.195-1.55.78-1.618.489-1.72-.285-2.068.756-1.65 1.383-1.342-.231-1.629.823-1.6.745-1.637V14.6l1.43-2.148 2.884.302 1.668 1.277 1.89-.831 1.787.105 1.758.777 1.798.431 1.812-.526 1.809.328 1.779-.673 1.821.315 1.727-1.01 1.91 1.075 1.729-.834z"></path></defs><g fill="none" fill-rule="evenodd"><mask id="b" fill="#fff"><use xlink:href="#a"></use></mask><g mask="url(#b)"><path d="M-8 100h126V0H-8z"></path></g><g mask="url(#b)"><path d="M69.724 48.04c-1.715 5.83-5.21 10.674-9.719 13.611l.226 2.515-.002.102L57.85 85h-15.1l-.062-.436-2.92-20.331.109-2.543c-4.51-2.916-8.012-7.735-9.746-13.542-.313.21-.683.33-1.083.33v-.507.507c-1.142 0-2.047-.99-2.047-2.188v-6.782c0-1.197.902-2.187 2.042-2.19C30.112 24.799 39.027 15 49.911 15c10.885 0 19.802 9.802 20.87 22.326.057-.005.114-.007.172-.007 1.144 0 2.047.99 2.047 2.189v6.782c0 1.2-.903 2.188-2.047 2.188v-.507.507a1.95 1.95 0 0 1-1.23-.438z" fill="#E7E5E2" fill-rule="nonzero"></path><path d="M42.777 41.072c-1.362.114-1.743-2.125-1.333-3.588.078-.277.528-1.54 1.327-1.54.797 0 1.149.69 1.198.81.586 1.425.298 4.192-1.192 4.318M57.977 41.072c1.361.114 1.743-2.125 1.332-3.588-.077-.277-.528-1.54-1.326-1.54-.797 0-1.149.69-1.198.81-.586 1.425-.298 4.192 1.192 4.318" fill="#635E59"></path><path d="M50.809 43.647c.8-.138 1.348-.052 1.544.217.739 1.013.502 2.086-.766 2.967-.667.462-1.585.625-2.071.385-.238-.117-.516.003-.621.268-.105.265.002.575.24.692.803.397 2.039.178 2.949-.454 1.724-1.196 2.118-2.986.998-4.521-.474-.65-1.313-.782-2.416-.592-.257.044-.434.312-.394.599.04.286.28.483.537.439zM45.194 54.652c-.254-.062-.415-.341-.36-.625.056-.283.306-.463.56-.4a19.44 19.44 0 0 0 4.606.559c1.535 0 3.07-.187 4.606-.56.254-.062.504.118.56.401.055.284-.106.563-.36.625-1.601.39-3.203.584-4.806.584-1.603 0-3.205-.195-4.806-.584z" fill="#59514B" fill-rule="nonzero"></path><g transform="translate(23 62)"><mask id="d" fill="#fff"><use xlink:href="#c"></use></mask><use fill="#D8A25D" xlink:href="#c"></use><g mask="url(#d)" fill="#5C4378"><path d="M-36 72H90V-28H-36z"></path></g></g><g transform="translate(28 10)"><mask id="f" fill="#fff"><use xlink:href="#e"></use></mask><use fill="#3E3832" xlink:href="#e"></use><g mask="url(#f)" fill="#8B5F26"><path d="M-15-24h69v79h-69z"></path></g></g></g><path d="M68.46 86.148H56.263a.976.976 0 0 1-.985-.968v-6.448c0-.535.44-.969.985-.969H68.46c.544 0 .986.434.986.97v6.447a.977.977 0 0 1-.986.968" fill="#D2242A"></path><path d="M65.574 82.1c0 1.687-1.39 3.056-3.107 3.056-1.72 0-3.11-1.37-3.11-3.057 0-1.687 1.39-3.057 3.11-3.057 1.716 0 3.107 1.37 3.107 3.057M58.44 83.447h-.607l.648-1.562h.608zM66.081 83.447h-.376l.648-1.562h.376zM67.118 83.447h-.159l.647-1.562h.159z" fill="#FFF"></path><path d="M60.105 83.44h.478a.042.042 0 0 0 .043-.043v-1.462a.042.042 0 0 0-.043-.042H60.1a.054.054 0 0 0-.055.055l-.19.46c-.012.024.007.053.033.053h.136c.02 0 .038.015.038.037v.899c0 .023.02.042.043.042" fill="#C52D35"></path><path d="M61.142 83.44h.479c.025 0 .046-.02.046-.043v-1.462c0-.023-.021-.042-.046-.042h-.744a.055.055 0 0 0-.057.055l-.19.46-.066.053h.381c.085 0 .154.066.154.15v.786c0 .023.02.042.043.042M63.283 81.893h-.479a.043.043 0 0 0-.044.043v1.46c0 .025.02.043.044.043h.484a.054.054 0 0 0 .055-.055l.19-.46c.012-.025-.007-.052-.036-.052h-.132a.037.037 0 0 1-.037-.037v-.9c0-.023-.022-.042-.045-.042" fill="#C52D35"></path><path d="M61.314 83.44h.314c.031 0 .056-.026.056-.055l.19-.462a.038.038 0 0 0-.036-.052h-.132l-.392.568zM64.563 81.893h.57c.027 0 .047.026.035.051l-.602 1.472c-.005.015-.019.023-.035.023h-.515l.51-1.52a.04.04 0 0 1 .037-.026" fill="#C52D35"></path><path d="M63.85 81.893h-.805c-.057 0 .231.055.252.106l.569 1.391c.012.031.04.05.073.05h.488l-.502-1.494a.077.077 0 0 0-.075-.053M62.799 82.389c0 .311-.04.33-.04.33s-.045-.298-.28-.298c-.23 0-.282.132-.282.23 0 .114.117.22.183.22h.419l-.247.54a.05.05 0 0 1-.046.028h-.19c-.2 0-.72-.257-.72-.754 0-.498.386-.792.709-.792.266 0 .494.18.494.496z" fill="#C52D35"></path><path d="M63.163 78.637h-1.32a.175.175 0 0 1-.176-.174v-.219c0-.095.079-.173.176-.173h1.32c.098 0 .177.078.177.173v.22a.175.175 0 0 1-.177.173" fill="#5A1F57"></path><path fill="#C2B5CF" d="M62.121 78.408h.765v-2.25h-.765z"></path></g></svg>