<svg width="46" height="46" viewBox="0 0 46 46" fill="none" xmlns="http://www.w3.org/2000/svg">
    <path fill-rule="evenodd" clip-rule="evenodd"
        d="M23.3492 0L22.94 0.00399278C16.7911 0.111798 11.0035 2.59731 6.64541 7.00334C2.25534 11.4413 -0.102396 17.2508 0.00341263 23.3638C0.223016 36.0149 10.1351 45.925 22.5686 45.925L22.9739 45.921C35.8426 45.6994 46.134 35.2183 45.9124 22.5632C45.6928 9.91209 35.7808 0 23.3492 0ZM21.9597 11.9784C21.9597 11.4274 22.4069 10.9802 22.9579 10.9802C23.5069 10.9802 23.9561 11.4274 23.9561 11.9784V25.9531C23.9561 26.5041 23.5069 26.9513 22.9579 26.9513C22.4069 26.9513 21.9597 26.5041 21.9597 25.9531V11.9784ZM22.9939 34.9369C22.9819 34.9369 22.9699 34.9369 22.9579 34.9369C21.8699 34.9369 20.9795 34.0664 20.9615 32.9764C20.9416 31.8744 21.82 30.964 22.922 30.9461C22.934 30.9461 22.946 30.9441 22.9579 30.9441C24.046 30.9441 24.9344 31.8165 24.9543 32.9065C24.9743 34.0085 24.0939 34.9169 22.9939 34.9369Z"
        fill="#0067C5" />
</svg>