<svg width="46" height="47" viewBox="0 0 46 47" fill="none" xmlns="http://www.w3.org/2000/svg">
    <path fill-rule="evenodd" clip-rule="evenodd"
        d="M0.0039071 23.402C0.223907 36.078 10.1539 46.008 22.6099 46.008L23.0179 46.004C35.9079 45.778 46.2159 35.28 45.9959 22.602C45.7739 9.928 35.8479 0 23.3919 0L22.9819 0.004C16.8219 0.112 11.0219 2.6 6.65591 7.016C2.25991 11.458 -0.102093 17.28 0.0039071 23.402ZM23.0159 2.004L23.3919 2C34.7459 2 43.7939 11.064 43.9959 22.636C44.1959 34.212 34.7699 43.796 22.9819 44.004L22.6099 44.008C11.2559 44.008 2.20591 34.942 2.00391 23.368C1.90791 17.788 4.06391 12.48 8.07791 8.422C12.0759 4.38 17.3799 2.102 23.0159 2.004ZM22.9999 27C22.4479 27 21.9999 26.552 21.9999 26V12C21.9999 11.448 22.4479 11 22.9999 11C23.5519 11 23.9999 11.448 23.9999 12V26C23.9999 26.552 23.5519 27 22.9999 27ZM24.9999 33C24.9999 34.1046 24.1045 35 22.9999 35C21.8953 35 20.9999 34.1046 20.9999 33C20.9999 31.8954 21.8953 31 22.9999 31C24.1045 31 24.9999 31.8954 24.9999 33Z"
        fill="#3E3832" />
</svg>