<svg width="48" height="48" viewBox="0 0 48 48" fill="none" xmlns="http://www.w3.org/2000/svg">
    <path fill-rule="evenodd" clip-rule="evenodd"
        d="M24.3665 0.0749512L23.9395 0.0791178C17.5228 0.191618 11.4832 2.78537 6.9353 7.38328C2.35405 12.0145 -0.106367 18.077 0.00404953 24.4562C0.233216 37.6583 10.577 48 23.552 48L23.9749 47.9958C37.404 47.7645 48.1436 36.827 47.9124 23.6208C47.6832 10.4187 37.3395 0.0749512 24.3665 0.0749512ZM22.9166 12.575C22.9166 12 23.3832 11.5333 23.9582 11.5333C24.5311 11.5333 24.9999 12 24.9999 12.575V27.1583C24.9999 27.7333 24.5311 28.2 23.9582 28.2C23.3832 28.2 22.9166 27.7333 22.9166 27.1583V12.575ZM23.9957 36.5333C23.9832 36.5333 23.9707 36.5333 23.9582 36.5333C22.8228 36.5333 21.8936 35.625 21.8749 34.4874C21.8541 33.3375 22.7707 32.3875 23.9207 32.3687C23.9332 32.3687 23.9457 32.3666 23.9582 32.3666C25.0936 32.3666 26.0207 33.277 26.0416 34.4145C26.0624 35.5645 25.1436 36.5125 23.9957 36.5333Z"
        fill="#0067C5" />
</svg>