<svg width="48" height="48" viewBox="0 0 48 48" fill="none" xmlns="http://www.w3.org/2000/svg">
    <path fill-rule="evenodd" clip-rule="evenodd"
        d="M35.57 31.822C35.396 31.942 35.2 32 35.002 32C34.684 32 34.374 31.85 34.18 31.57C33.864 31.114 33.976 30.492 34.432 30.178L46.776 21.634L40 16.974V1C40 0.45 39.552 0 39 0H9C8.45 0 8 0.45 8 1V16.974L1.328 21.562L13.578 30.182C14.028 30.5 14.136 31.124 13.82 31.576C13.626 31.854 13.314 32 13 32C12.8 32 12.602 31.942 12.426 31.818L0 23.074V44C0 46.206 1.796 48 4 48H44C46.208 48 48 46.206 48 44V23.216L35.57 31.822ZM10 26V2.00001H38V26H10ZM41 42C41.292 42 41.586 41.872 41.782 41.626C42.126 41.194 42.056 40.564 41.626 40.22L31.626 32.22C31.45 32.078 31.228 32 31 32H17C16.774 32 16.554 32.078 16.378 32.222L6.37799 40.222C5.94599 40.566 5.87599 41.194 6.22199 41.626C6.56599 42.058 7.19599 42.126 7.62599 41.782L17.352 34H30.65L40.376 41.782C40.56 41.93 40.782 42 41 42Z"
        fill="#0067C5" />
    <path fill-rule="evenodd" clip-rule="evenodd"
        d="M33.1667 14.625C33.1667 13.3618 32.1391 12.3333 30.875 12.3333C29.6109 12.3333 28.5833 13.3618 28.5833 14.625C28.5833 15.7314 29.3717 16.6573 30.4167 16.8699V22.875C30.4167 23.6331 29.7998 24.25 29.0417 24.25C28.2836 24.25 27.6667 23.6331 27.6667 22.875V20.1259C27.6667 18.6088 26.4328 17.375 24.9167 17.375C23.4005 17.375 22.1667 18.6088 22.1667 20.125V24.7083C22.1667 25.4664 21.5498 26.0833 20.7917 26.0833C20.0336 26.0833 19.4167 25.4664 19.4167 24.7083V18.2688C21.9824 18.0359 24 15.8753 24 13.25V8.66667C24 7.56025 23.2117 6.63442 22.1667 6.42175V5.45833C22.1667 5.20533 21.9613 5 21.7083 5C20.9713 5 19.875 5.48858 19.875 6.83333C19.875 8.17808 20.9713 8.66667 21.7083 8.66667C21.9613 8.66667 22.1667 8.46133 22.1667 8.20833V7.376C22.6993 7.56575 23.0833 8.06992 23.0833 8.66667V13.25C23.0833 15.5243 21.2326 17.375 18.9583 17.375C16.6841 17.375 14.8333 15.5243 14.8333 13.25V8.66667C14.8333 8.06992 15.2174 7.56575 15.75 7.376V8.20833C15.75 8.46133 15.9553 8.66667 16.2083 8.66667C16.9453 8.66667 18.0417 8.17808 18.0417 6.83333C18.0417 5.48858 16.9453 5 16.2083 5C15.9553 5 15.75 5.20533 15.75 5.45833V6.42175C14.705 6.63442 13.9167 7.56025 13.9167 8.66667V13.25C13.9167 15.8753 15.9343 18.0359 18.5 18.2688V24.7083C18.5 25.9715 19.5276 27 20.7917 27C22.0558 27 23.0833 25.9715 23.0833 24.7083V20.125C23.0833 19.1139 23.9056 18.2917 24.9167 18.2917C25.9278 18.2917 26.75 19.1139 26.75 20.1259V22.875C26.75 24.1382 27.7776 25.1667 29.0417 25.1667C30.3058 25.1667 31.3333 24.1382 31.3333 22.875V16.8699C32.3783 16.6573 33.1667 15.7314 33.1667 14.625ZM21.25 7.64917C21.019 7.53917 20.7917 7.30908 20.7917 6.83333C20.7917 6.36033 21.0163 6.13025 21.25 6.01933V7.64917ZM16.6667 6.0175C16.8977 6.1275 17.125 6.35758 17.125 6.83333C17.125 7.30542 16.9013 7.5355 16.6667 7.64733V6.0175ZM30.875 16C30.1169 16 29.5 15.3831 29.5 14.625C29.5 13.8669 30.1169 13.25 30.875 13.25C31.6331 13.25 32.25 13.8669 32.25 14.625C32.25 15.3831 31.6331 16 30.875 16Z"
        fill="#0067C5" />
</svg>