<svg width="50" height="50" viewBox="0 0 50 50" fill="none" xmlns="http://www.w3.org/2000/svg">
    <path fill-rule="evenodd" clip-rule="evenodd"
        d="M37.0521 33.1479C36.8708 33.2729 36.6667 33.3333 36.4604 33.3333C36.1292 33.3333 35.8062 33.1771 35.6042 32.8854C35.275 32.4104 35.3917 31.7625 35.8667 31.4354L48.725 22.5354L41.6667 17.6812V1.04167C41.6667 0.46875 41.2 0 40.625 0H9.375C8.80208 0 8.33333 0.46875 8.33333 1.04167V17.6812L1.38333 22.4604L14.1437 31.4396C14.6125 31.7708 14.725 32.4208 14.3958 32.8917C14.1937 33.1812 13.8687 33.3333 13.5417 33.3333C13.3333 33.3333 13.1271 33.2729 12.9437 33.1437L0 24.0354V45.8333C0 48.1312 1.87083 50 4.16667 50H45.8333C48.1333 50 50 48.1312 50 45.8333V24.1833L37.0521 33.1479ZM10.4167 27.0833V2.08333H39.5833V27.0833H10.4167ZM42.7083 43.75C43.0125 43.75 43.3187 43.6167 43.5229 43.3604C43.8812 42.9104 43.8083 42.2542 43.3604 41.8958L32.9437 33.5625C32.7604 33.4146 32.5292 33.3333 32.2917 33.3333H17.7083C17.4729 33.3333 17.2437 33.4146 17.0604 33.5646L6.64375 41.8979C6.19375 42.2562 6.12083 42.9104 6.48125 43.3604C6.83958 43.8104 7.49583 43.8812 7.94375 43.5229L18.075 35.4167H31.9271L42.0583 43.5229C42.25 43.6771 42.4812 43.75 42.7083 43.75Z"
        fill="#0067C5" />
</svg>