<svg width="48" height="48" viewBox="0 0 48 48" fill="none" xmlns="http://www.w3.org/2000/svg">
    <path fill-rule="evenodd" clip-rule="evenodd"
        d="M38 27.7987V2H9.99999V27.7986L13.5541 30.168C14.0121 30.474 14.1381 31.096 13.8321 31.554C13.6381 31.844 13.3221 32 13.0001 32C12.8081 32 12.6161 31.946 12.4461 31.832L2 24.8679V44C2 45.104 2.896 46 4 46H44C45.104 46 46 45.104 46 44V24.868L35.554 31.832C35.384 31.946 35.192 32 35 32C34.678 32 34.362 31.844 34.168 31.554C33.862 31.096 33.986 30.474 34.446 30.168L38 27.7987ZM7.99999 26.4652V19.4007L2.78333 22.9874L7.99999 26.4652ZM7.99999 16.9744V1C7.99999 0.448 8.44799 0 8.99999 0H39C39.552 0 40 0.448 40 1V16.9744L47.5466 22.1627C47.6337 22.2196 47.7132 22.2911 47.7811 22.3763C47.8459 22.4572 47.8976 22.5474 47.9344 22.6439C47.9502 22.6852 47.9633 22.7277 47.9735 22.771C47.9909 22.8452 48 22.9219 48 23V44C48 46.206 46.206 48 44 48H4C1.794 48 0 46.206 0 44V23C0 22.67 0.162 22.364 0.434 22.176L7.99999 16.9744ZM40 19.4007V26.4653L45.2167 22.9875L40 19.4007ZM40.9999 42C40.7799 42 40.5599 41.928 40.3739 41.782L30.6479 34H17.3519L7.6259 41.782C7.1919 42.126 6.5659 42.058 6.2199 41.626C5.8759 41.194 5.9439 40.566 6.3759 40.22L16.3759 32.22C16.5519 32.078 16.7739 32 16.9999 32H30.9999C31.2259 32 31.4479 32.078 31.6259 32.218L41.6259 40.218C42.0579 40.564 42.1259 41.192 41.7819 41.624C41.5839 41.872 41.2919 42 40.9999 42Z"
        fill="#3E3832" />
    <path fill-rule="evenodd" clip-rule="evenodd"
        d="M33.1665 14.625C33.1665 13.3618 32.1389 12.3333 30.8748 12.3333C29.6108 12.3333 28.5832 13.3618 28.5832 14.625C28.5832 15.7314 29.3715 16.6573 30.4165 16.8699V22.875C30.4165 23.6331 29.7996 24.25 29.0415 24.25C28.2834 24.25 27.6665 23.6331 27.6665 22.875V20.1259C27.6665 18.6088 26.4327 17.375 24.9165 17.375C23.4003 17.375 22.1665 18.6088 22.1665 20.125V24.7083C22.1665 25.4664 21.5496 26.0833 20.7915 26.0833C20.0334 26.0833 19.4165 25.4664 19.4165 24.7083V18.2688C21.9823 18.0359 23.9998 15.8753 23.9998 13.25V8.66667C23.9998 7.56025 23.2115 6.63442 22.1665 6.42175V5.45833C22.1665 5.20533 21.9612 5 21.7082 5C20.9712 5 19.8748 5.48858 19.8748 6.83333C19.8748 8.17808 20.9712 8.66667 21.7082 8.66667C21.9612 8.66667 22.1665 8.46133 22.1665 8.20833V7.376C22.6991 7.56575 23.0832 8.06992 23.0832 8.66667V13.25C23.0832 15.5243 21.2324 17.375 18.9582 17.375C16.6839 17.375 14.8332 15.5243 14.8332 13.25V8.66667C14.8332 8.06992 15.2173 7.56575 15.7498 7.376V8.20833C15.7498 8.46133 15.9552 8.66667 16.2082 8.66667C16.9452 8.66667 18.0415 8.17808 18.0415 6.83333C18.0415 5.48858 16.9452 5 16.2082 5C15.9552 5 15.7498 5.20533 15.7498 5.45833V6.42175C14.7048 6.63442 13.9165 7.56025 13.9165 8.66667V13.25C13.9165 15.8753 15.9341 18.0359 18.4998 18.2688V24.7083C18.4998 25.9715 19.5274 27 20.7915 27C22.0556 27 23.0832 25.9715 23.0832 24.7083V20.125C23.0832 19.1139 23.9054 18.2917 24.9165 18.2917C25.9276 18.2917 26.7498 19.1139 26.7498 20.1259V22.875C26.7498 24.1382 27.7774 25.1667 29.0415 25.1667C30.3056 25.1667 31.3332 24.1382 31.3332 22.875V16.8699C32.3782 16.6573 33.1665 15.7314 33.1665 14.625ZM21.2498 7.64917C21.0188 7.53917 20.7915 7.30908 20.7915 6.83333C20.7915 6.36033 21.0161 6.13025 21.2498 6.01933V7.64917ZM16.6665 6.0175C16.8975 6.1275 17.1248 6.35758 17.1248 6.83333C17.1248 7.30542 16.9012 7.5355 16.6665 7.64733V6.0175ZM30.8748 16C30.1168 16 29.4998 15.3831 29.4998 14.625C29.4998 13.8669 30.1168 13.25 30.8748 13.25C31.6329 13.25 32.2498 13.8669 32.2498 14.625C32.2498 15.3831 31.6329 16 30.8748 16Z"
        fill="#3E3832" />
</svg>