<svg width="48" height="48" viewBox="0 0 48 48" fill="none" xmlns="http://www.w3.org/2000/svg">
    <path fill-rule="evenodd" clip-rule="evenodd"
        d="M38 27.7987V2H9.99999V27.7986L13.5541 30.168C14.0121 30.474 14.1381 31.096 13.8321 31.554C13.6381 31.844 13.3221 32 13.0001 32C12.8081 32 12.6161 31.946 12.4461 31.832L2 24.8679V44C2 45.104 2.896 46 4 46H44C45.104 46 46 45.104 46 44V24.868L35.554 31.832C35.384 31.946 35.192 32 35 32C34.678 32 34.362 31.844 34.168 31.554C33.862 31.096 33.986 30.474 34.446 30.168L38 27.7987ZM7.99999 26.4652V19.4007L2.78333 22.9874L7.99999 26.4652ZM7.99999 16.9744V1C7.99999 0.448 8.44799 0 8.99999 0H39C39.552 0 40 0.448 40 1V16.9744L47.5466 22.1627C47.6337 22.2196 47.7132 22.2911 47.7811 22.3763C47.8459 22.4572 47.8976 22.5474 47.9344 22.6439C47.9502 22.6852 47.9633 22.7277 47.9735 22.771C47.9909 22.8452 48 22.9219 48 23V44C48 46.206 46.206 48 44 48H4C1.794 48 0 46.206 0 44V23C0 22.67 0.162 22.364 0.434 22.176L7.99999 16.9744ZM40 19.4007V26.4653L45.2167 22.9875L40 19.4007ZM40.9999 42C40.7799 42 40.5599 41.928 40.3739 41.782L30.6479 34H17.3519L7.6259 41.782C7.1919 42.126 6.5659 42.058 6.2199 41.626C5.8759 41.194 5.9439 40.566 6.3759 40.22L16.3759 32.22C16.5519 32.078 16.7739 32 16.9999 32H30.9999C31.2259 32 31.4479 32.078 31.6259 32.218L41.6259 40.218C42.0579 40.564 42.1259 41.192 41.7819 41.624C41.5839 41.872 41.2919 42 40.9999 42Z"
        fill="#3E3832" />
    <path fill-rule="evenodd" clip-rule="evenodd"
        d="M33.1667 14.625C33.1667 13.3618 32.1391 12.3333 30.875 12.3333C29.6109 12.3333 28.5833 13.3618 28.5833 14.625C28.5833 15.7314 29.3717 16.6573 30.4167 16.8699V22.875C30.4167 23.6331 29.7998 24.25 29.0417 24.25C28.2836 24.25 27.6667 23.6331 27.6667 22.875V20.1259C27.6667 18.6088 26.4328 17.375 24.9167 17.375C23.4005 17.375 22.1667 18.6088 22.1667 20.125V24.7083C22.1667 25.4664 21.5498 26.0833 20.7917 26.0833C20.0336 26.0833 19.4167 25.4664 19.4167 24.7083V18.2688C21.9824 18.0359 24 15.8753 24 13.25V8.66667C24 7.56025 23.2117 6.63442 22.1667 6.42175V5.45833C22.1667 5.20533 21.9613 5 21.7083 5C20.9713 5 19.875 5.48858 19.875 6.83333C19.875 8.17808 20.9713 8.66667 21.7083 8.66667C21.9613 8.66667 22.1667 8.46133 22.1667 8.20833V7.376C22.6993 7.56575 23.0833 8.06992 23.0833 8.66667V13.25C23.0833 15.5243 21.2326 17.375 18.9583 17.375C16.6841 17.375 14.8333 15.5243 14.8333 13.25V8.66667C14.8333 8.06992 15.2174 7.56575 15.75 7.376V8.20833C15.75 8.46133 15.9553 8.66667 16.2083 8.66667C16.9453 8.66667 18.0417 8.17808 18.0417 6.83333C18.0417 5.48858 16.9453 5 16.2083 5C15.9553 5 15.75 5.20533 15.75 5.45833V6.42175C14.705 6.63442 13.9167 7.56025 13.9167 8.66667V13.25C13.9167 15.8753 15.9343 18.0359 18.5 18.2688V24.7083C18.5 25.9715 19.5276 27 20.7917 27C22.0558 27 23.0833 25.9715 23.0833 24.7083V20.125C23.0833 19.1139 23.9056 18.2917 24.9167 18.2917C25.9278 18.2917 26.75 19.1139 26.75 20.1259V22.875C26.75 24.1382 27.7776 25.1667 29.0417 25.1667C30.3058 25.1667 31.3333 24.1382 31.3333 22.875V16.8699C32.3783 16.6573 33.1667 15.7314 33.1667 14.625ZM21.25 7.64917C21.019 7.53917 20.7917 7.30908 20.7917 6.83333C20.7917 6.36033 21.0163 6.13025 21.25 6.01933V7.64917ZM16.6667 6.0175C16.8977 6.1275 17.125 6.35758 17.125 6.83333C17.125 7.30542 16.9013 7.5355 16.6667 7.64733V6.0175ZM30.875 16C30.1169 16 29.5 15.3831 29.5 14.625C29.5 13.8669 30.1169 13.25 30.875 13.25C31.6331 13.25 32.25 13.8669 32.25 14.625C32.25 15.3831 31.6331 16 30.875 16Z"
        fill="#3E3832" />
</svg>