<svg width="48" height="48" viewBox="0 0 48 48" fill="none" xmlns="http://www.w3.org/2000/svg">
<path fill-rule="evenodd" clip-rule="evenodd" d="M3.66728 3.09122C8.32237 -1.24577 15.6119 -0.987882 19.9489 3.66722L26.0353 9.75362L9.75368 26.0352L3.66728 19.9488L3.09128 19.3728C-1.2457 14.7177 -0.987821 7.4282 3.66728 3.09122ZM8.40222 11.1205C8.02855 10.7458 7.42215 10.7441 7.04644 11.1168C6.8647 11.297 6.76247 11.5424 6.76247 11.7984C6.76247 12.0543 6.8647 12.2997 7.04644 12.48C7.42215 12.8526 8.02855 12.851 8.40222 12.4763C8.77589 12.1016 8.77589 11.4952 8.40222 11.1205ZM9.06244 17.2224C8.90018 17.4336 8.65598 17.5662 8.39044 17.5872C7.91677 17.6368 7.474 17.3449 7.33286 16.8901C7.19173 16.4352 7.39152 15.944 7.81009 15.7168C8.22865 15.4895 8.74943 15.5896 9.05399 15.9558C9.35855 16.3219 9.36209 16.8522 9.06244 17.2224ZM11.7792 6.76241C11.5233 6.76241 11.2779 6.86464 11.0976 7.04638C10.9159 7.22663 10.8137 7.47201 10.8137 7.72798C10.8137 7.98395 10.9159 8.22932 11.0976 8.40958C11.2779 8.59132 11.5233 8.69354 11.7792 8.69354C12.0352 8.69354 12.2806 8.59132 12.4608 8.40958C12.6426 8.22932 12.7448 7.98395 12.7448 7.72798C12.7448 7.47201 12.6426 7.22663 12.4608 7.04638C12.2806 6.86464 12.0352 6.76241 11.7792 6.76241ZM11.808 11.8272C12.1845 11.4507 12.7948 11.4507 13.1712 11.8272C13.5477 12.2036 13.5477 12.8139 13.1712 13.1904C12.9952 13.373 12.7529 13.4769 12.4992 13.4784C12.1032 13.4888 11.7414 13.2549 11.5884 12.8894C11.4354 12.5239 11.5226 12.102 11.808 11.8272ZM12.6077 18.0317C12.9936 18.2838 13.5041 18.2262 13.824 17.8944C13.9933 17.7188 14.0894 17.4854 14.0928 17.2416C14.0993 16.7807 13.7774 16.3803 13.3259 16.2876C12.8744 16.195 12.4207 16.4363 12.2452 16.8625C12.0697 17.2887 12.2219 17.7795 12.6077 18.0317ZM15.8592 7.71838C16.2349 7.34574 16.8414 7.34739 17.215 7.72208C17.5887 8.09677 17.5887 8.70318 17.215 9.07787C16.8414 9.45256 16.2349 9.45422 15.8592 9.08158C15.6775 8.90132 15.5753 8.65595 15.5753 8.39998C15.5753 8.144 15.6775 7.89863 15.8592 7.71838ZM17.2128 14.0311C17.4688 14.0311 17.7142 13.9289 17.8944 13.7472C18.2671 13.3715 18.2654 12.7651 17.8907 12.3914C17.516 12.0177 16.9096 12.0177 16.5349 12.3914C16.1603 12.7651 16.1586 13.3715 16.5312 13.7472C16.7115 13.9289 16.9569 14.0311 17.2128 14.0311ZM36.9024 20.6208L42.9888 26.7072C46.293 29.9999 47.2854 34.9602 45.5023 39.2707C43.7192 43.5811 39.5127 46.3909 34.848 46.3872C31.791 46.3794 28.8624 45.1569 26.7072 42.9888L20.6208 36.9024L36.9024 20.6208ZM29.9779 32.8099C29.5921 32.5577 29.0815 32.6154 28.7616 32.9472C28.5924 33.1227 28.4963 33.3561 28.4928 33.6C28.4864 34.0608 28.8083 34.4613 29.2598 34.5539C29.7113 34.6465 30.1649 34.4052 30.3404 33.979C30.5159 33.5528 30.3638 33.062 29.9779 32.8099ZM30.7968 39.0528C30.6166 39.2345 30.3712 39.3367 30.1152 39.3367C29.8593 39.3367 29.6139 39.2345 29.4336 39.0528C29.0369 38.7036 28.997 38.0994 29.3444 37.7011C29.6919 37.3028 30.2959 37.2602 30.6957 37.6059C31.0956 37.9516 31.1408 38.5554 30.7968 38.9568V39.0528ZM34.1878 28.8805C33.8142 28.5058 33.2077 28.5041 32.832 28.8768C32.6503 29.057 32.5481 29.3024 32.5481 29.5584C32.5481 29.8144 32.6503 30.0597 32.832 30.24C33.2077 30.6126 33.8142 30.611 34.1878 30.2363C34.5615 29.8616 34.5615 29.2552 34.1878 28.8805ZM33.504 33.5232C33.8797 33.1505 34.4862 33.1522 34.8598 33.5269C35.2335 33.9016 35.2335 34.508 34.8598 34.8827C34.4862 35.2574 33.8797 35.259 33.504 34.8864C33.3223 34.7061 33.2201 34.4608 33.2201 34.2048C33.2201 33.9488 33.3223 33.7034 33.504 33.5232ZM34.1835 39.6251C34.5571 39.9998 35.1635 40.0014 35.5392 39.6288V39.5904C35.9029 39.2236 35.9029 38.6323 35.5392 38.2656C35.1635 37.8929 34.5571 37.8946 34.1835 38.2693C33.8098 38.644 33.8098 39.2504 34.1835 39.6251ZM37.5744 29.4528C37.8577 29.0749 38.3703 28.953 38.7933 29.163C39.2164 29.373 39.4292 29.855 39.2995 30.3091C39.1697 30.7632 38.7344 31.06 38.2643 31.0148C37.7942 30.9696 37.4233 30.5953 37.3824 30.1248C37.3597 29.8846 37.4283 29.6447 37.5744 29.4528ZM38.4262 35.6576C38.7943 35.9092 39.2885 35.8677 39.6096 35.5584V35.5392C39.7905 35.3619 39.894 35.1204 39.8976 34.8672C39.8912 34.4213 39.5726 34.0413 39.1348 33.957C38.6969 33.8727 38.26 34.1074 38.0885 34.519C37.917 34.9306 38.058 35.406 38.4262 35.6576ZM27.1909 11.3311L10.8991 27.6228L19.045 35.7687L35.3367 19.4769L27.1909 11.3311Z" fill="#0067C5"/>
</svg>
