<svg width="48" height="48" viewBox="0 0 48 48" fill="none" xmlns="http://www.w3.org/2000/svg">
<path fill-rule="evenodd" clip-rule="evenodd" d="M36.312 19.342L44.486 27.518C46.752 29.784 48 32.796 48 36.002C48 39.208 46.752 42.222 44.486 44.486C42.218 46.752 39.204 48 35.998 48C32.792 48 29.78 46.754 27.516 44.488L3.516 20.488C1.25 18.222 0 15.212 0 12.006C0 8.79801 1.248 5.78601 3.516 3.51601C5.784 1.25001 8.796 0.00201416 12.002 0.00201416C15.208 0.00201416 18.22 1.25001 20.486 3.51401L27.526 10.554C27.528 10.556 27.5305 10.5575 27.533 10.559L27.536 10.5609C27.5374 10.5618 27.5388 10.5628 27.54 10.564L36.312 19.342ZM21.174 35.318L35.314 21.174L34.278 20.138L26.83 12.688L12.688 26.83L21.174 35.318ZM2 12.004C2 9.33201 3.04 6.82001 4.93 4.93001C6.82 3.04201 9.33 2.00201 12.002 2.00201C14.672 2.00201 17.184 3.04201 19.072 4.93001L25.416 11.274L11.272 25.418L4.93 19.074C3.042 17.186 2 14.676 2 12.004ZM35.998 46C38.668 46 41.182 44.96 43.072 43.072C44.96 41.186 46 38.676 46 36.002C46 33.33 44.96 30.818 43.072 28.932L36.728 22.588L22.588 36.732L28.93 43.074C30.818 44.96 33.328 46 35.998 46ZM8.446 15.932C8.19 15.932 7.934 16.03 7.738 16.224C7.348 16.614 7.348 17.248 7.738 17.638C7.934 17.834 8.19 17.93 8.446 17.93C8.702 17.93 8.958 17.832 9.154 17.638C9.546 17.248 9.546 16.614 9.154 16.224C8.958 16.03 8.702 15.932 8.446 15.932ZM11.98 13.396C11.59 13.006 11.59 12.368 11.98 11.982C12.176 11.786 12.432 11.688 12.688 11.688C12.944 11.688 13.2 11.786 13.394 11.982C13.784 12.368 13.784 13.006 13.394 13.396C13.2 13.592 12.944 13.688 12.688 13.688C12.432 13.688 12.176 13.592 11.98 13.396ZM8.446 12.69C8.838 12.296 8.838 11.662 8.446 11.272C8.25 11.076 7.994 10.98 7.738 10.98C7.482 10.98 7.226 11.076 7.032 11.272C6.642 11.662 6.642 12.296 7.032 12.69C7.228 12.886 7.484 12.982 7.74 12.982C7.996 12.982 8.25 12.884 8.446 12.69ZM12.688 8.44401C12.492 8.64201 12.236 8.74001 11.98 8.74001C11.724 8.74001 11.468 8.64201 11.274 8.44401C10.884 8.05601 10.884 7.42201 11.274 7.03201C11.468 6.83801 11.724 6.74001 11.98 6.74001C12.236 6.74001 12.492 6.83801 12.688 7.03201C13.078 7.42201 13.078 8.05601 12.688 8.44401ZM12.688 16.932C12.298 17.322 12.298 17.956 12.688 18.346C12.884 18.542 13.14 18.638 13.396 18.638C13.652 18.638 13.908 18.54 14.104 18.346C14.494 17.956 14.494 17.322 14.104 16.932C13.906 16.736 13.65 16.634 13.394 16.634C13.138 16.634 12.882 16.736 12.688 16.932ZM16.93 14.1C16.54 13.71 16.54 13.08 16.93 12.69C17.126 12.494 17.38 12.396 17.636 12.396C17.892 12.396 18.148 12.494 18.344 12.69C18.736 13.08 18.736 13.712 18.344 14.1C18.148 14.298 17.894 14.396 17.638 14.396C17.382 14.396 17.126 14.3 16.93 14.1ZM16.93 9.44801C17.186 9.44801 17.442 9.35001 17.638 9.15601C18.028 8.76601 18.028 8.13201 17.638 7.73801C17.442 7.54201 17.186 7.44401 16.93 7.44401C16.674 7.44401 16.418 7.54201 16.222 7.73601C15.832 8.13001 15.832 8.76401 16.222 9.15401C16.418 9.35001 16.674 9.44801 16.93 9.44801ZM30.364 38.852C30.56 38.656 30.816 38.56 31.072 38.56C31.328 38.56 31.584 38.656 31.78 38.852C32.17 39.24 32.17 39.874 31.78 40.268C31.584 40.464 31.328 40.558 31.072 40.558C30.816 40.558 30.56 40.464 30.364 40.268C29.974 39.874 29.974 39.24 30.364 38.852ZM36.022 36.024C36.412 35.632 36.412 34.998 36.022 34.608C35.826 34.414 35.57 34.316 35.314 34.316C35.058 34.316 34.802 34.416 34.606 34.608C34.214 34.998 34.214 35.632 34.606 36.024C34.802 36.22 35.058 36.316 35.314 36.316C35.57 36.316 35.826 36.218 36.022 36.024ZM35.314 39.556C35.51 39.362 35.766 39.264 36.022 39.264C36.278 39.264 36.534 39.362 36.73 39.556C37.122 39.95 37.122 40.584 36.73 40.97C36.534 41.164 36.278 41.262 36.022 41.262C35.766 41.262 35.51 41.166 35.314 40.97C34.924 40.584 34.924 39.95 35.314 39.556ZM40.266 35.024C40.01 35.024 39.754 35.122 39.558 35.316C39.168 35.704 39.168 36.338 39.558 36.732C39.754 36.926 40.01 37.024 40.266 37.024C40.522 37.024 40.778 36.926 40.974 36.732C41.364 36.338 41.364 35.704 40.974 35.316C40.778 35.122 40.522 35.024 40.266 35.024ZM31.072 33.9C31.462 34.29 31.462 34.926 31.072 35.316C30.876 35.51 30.62 35.608 30.364 35.608C30.108 35.608 29.852 35.51 29.656 35.316C29.266 34.926 29.266 34.29 29.656 33.9C29.852 33.706 30.108 33.608 30.364 33.608C30.62 33.608 30.876 33.704 31.072 33.9ZM35.314 31.072C35.706 30.682 35.706 30.05 35.314 29.658C35.118 29.462 34.862 29.366 34.606 29.366C34.35 29.366 34.094 29.464 33.898 29.658C33.508 30.05 33.508 30.682 33.898 31.072C34.094 31.268 34.35 31.364 34.606 31.364C34.862 31.364 35.12 31.268 35.314 31.072ZM40.264 30.366C40.656 30.756 40.656 31.39 40.264 31.78C40.068 31.974 39.814 32.072 39.558 32.072C39.302 32.072 39.046 31.976 38.85 31.78C38.46 31.39 38.46 30.756 38.85 30.366C39.046 30.172 39.302 30.074 39.558 30.074C39.814 30.074 40.068 30.17 40.264 30.366Z" fill="#3E3832"/>
<path d="M15.9986 16C7.19304 16 0.0167034 23.1624 7.81033e-06 31.968C-0.00834 36.2421 1.64731 40.263 4.66365 43.2918C7.67999 46.3193 11.6953 47.9917 15.9694 48H16C24.8041 48 31.9819 40.8362 31.9999 32.0292C32.0166 23.2083 24.8528 16.0167 15.9986 16Z" fill="#A13A28"/>
<path d="M16 30.2017L20.4958 25.7058C20.9924 25.2092 21.7976 25.2092 22.2942 25.7058C22.7908 26.2024 22.7908 27.0075 22.2942 27.5041L17.7983 32L22.2942 36.4959C22.7908 36.9925 22.7908 37.7976 22.2942 38.2942C21.7976 38.7908 20.9924 38.7908 20.4958 38.2942L16 33.7983L11.5041 38.2942C11.0075 38.7908 10.2024 38.7908 9.70577 38.2942C9.20917 37.7976 9.20917 36.9925 9.70577 36.4959L14.2016 32L9.70577 27.5041C9.20917 27.0075 9.20917 26.2024 9.70577 25.7058C10.2024 25.2092 11.0075 25.2092 11.5041 25.7058L16 30.2017Z" fill="white"/>
</svg>
