<svg width="48" height="48" viewBox="0 0 48 48" fill="none" xmlns="http://www.w3.org/2000/svg">
<g clip-path="url(#clip0)">
<path fill-rule="evenodd" clip-rule="evenodd" d="M3.79558 3.19869C8.61353 -1.28908 16.1581 -1.02222 20.6468 3.79472L26.9462 10.0927L10.0949 26.9404L3.79558 20.6424L3.19943 20.0463C-1.28928 15.2294 -1.02238 7.68646 3.79558 3.19869ZM8.69617 11.5071C8.30943 11.1194 7.68182 11.1176 7.29296 11.5033C7.10486 11.6898 6.99906 11.9437 6.99906 12.2086C6.99906 12.4734 7.10486 12.7273 7.29296 12.9139C7.68182 13.2994 8.30943 13.2978 8.69617 12.9101C9.08292 12.5223 9.08292 11.8949 8.69617 11.5071ZM9.37949 17.8212C9.21156 18.0397 8.95881 18.1769 8.68398 18.1987C8.19374 18.25 7.73548 17.9479 7.5894 17.4773C7.44334 17.0066 7.65012 16.4983 8.08333 16.2632C8.51653 16.028 9.05553 16.1316 9.37075 16.5105C9.68596 16.8894 9.68963 17.4381 9.37949 17.8212ZM12.1913 6.99752C11.9264 6.99752 11.6725 7.1033 11.4859 7.29136C11.2978 7.47788 11.192 7.73179 11.192 7.99666C11.192 8.26153 11.2978 8.51543 11.4859 8.70196C11.6725 8.89002 11.9264 8.99579 12.1913 8.99579C12.4563 8.99579 12.7102 8.89002 12.8967 8.70196C13.0849 8.51543 13.1907 8.26153 13.1907 7.99666C13.1907 7.73179 13.0849 7.47788 12.8967 7.29136C12.7102 7.1033 12.4563 6.99752 12.1913 6.99752ZM12.2211 12.2384C12.6108 11.8488 13.2424 11.8488 13.632 12.2384C14.0217 12.6279 14.0217 13.2594 13.632 13.649C13.4498 13.8379 13.1991 13.9455 12.9365 13.947C12.5266 13.9578 12.1522 13.7157 11.9938 13.3375C11.8355 12.9593 11.9257 12.5228 12.2211 12.2384ZM13.0488 18.6586C13.4482 18.9195 13.9765 18.8599 14.3076 18.5165C14.4829 18.3348 14.5823 18.0933 14.5858 17.841C14.5926 17.3641 14.2594 16.9498 13.7921 16.8539C13.3248 16.758 12.8552 17.0077 12.6736 17.4488C12.492 17.8898 12.6495 18.3976 13.0488 18.6586ZM16.414 7.98673C16.8029 7.60113 17.4306 7.60284 17.8173 7.99055C18.204 8.37827 18.204 9.00577 17.8173 9.39348C17.4306 9.7812 16.8029 9.78292 16.414 9.39732C16.226 9.21079 16.1202 8.95689 16.1202 8.69202C16.1202 8.42714 16.226 8.17324 16.414 7.98673ZM17.815 14.5189C18.08 14.5189 18.3339 14.4132 18.5204 14.2251C18.9062 13.8364 18.9044 13.2089 18.5166 12.8222C18.1288 12.4355 17.5012 12.4355 17.1134 12.8222C16.7257 13.2089 16.7239 13.8364 17.1095 14.2251C17.2962 14.4132 17.5501 14.5189 17.815 14.5189ZM38.1934 21.3377L44.4928 27.6357C47.9126 31.0429 48.9397 36.1757 47.0942 40.636C45.2487 45.0963 40.8951 48.0038 36.0672 47.9999C32.9032 47.9919 29.8722 46.7269 27.6416 44.4834L21.3422 38.1854L38.1934 21.3377ZM31.0267 33.9506C30.6274 33.6896 30.0989 33.7493 29.7678 34.0927C29.5927 34.2743 29.4932 34.5158 29.4896 34.7682C29.483 35.245 29.8162 35.6594 30.2835 35.7552C30.7508 35.8511 31.2202 35.6014 31.4019 35.1603C31.5835 34.7193 31.4261 34.2115 31.0267 33.9506ZM31.8742 40.4105C31.6877 40.5986 31.4337 40.7043 31.1688 40.7043C30.9039 40.7043 30.6499 40.5986 30.4633 40.4105C30.0528 40.0492 30.0115 39.424 30.371 39.0118C30.7307 38.5997 31.3558 38.5556 31.7696 38.9133C32.1835 39.2711 32.2303 39.8958 31.8742 40.3112V40.4105ZM35.3839 29.8846C34.9972 29.4969 34.3695 29.4951 33.9806 29.8808C33.7926 30.0672 33.6868 30.3212 33.6868 30.5861C33.6868 30.851 33.7926 31.1048 33.9806 31.2913C34.3695 31.6769 34.9972 31.6752 35.3839 31.2875C35.7706 30.8998 35.7706 30.2723 35.3839 29.8846ZM34.6761 34.6887C35.065 34.303 35.6927 34.3048 36.0794 34.6925C36.4661 35.0803 36.4661 35.7077 36.0794 36.0955C35.6927 36.4832 35.065 36.4848 34.6761 36.0993C34.4881 35.9127 34.3823 35.6589 34.3823 35.394C34.3823 35.1291 34.4881 34.8752 34.6761 34.6887ZM35.3794 41.0027C35.7661 41.3905 36.3937 41.3921 36.7825 41.0066V40.9668C37.159 40.5873 37.159 39.9754 36.7825 39.596C36.3937 39.2103 35.7661 39.2121 35.3794 39.5998C34.9926 39.9875 34.9926 40.615 35.3794 41.0027ZM38.8889 30.4768C39.1822 30.0857 39.7127 29.9596 40.1505 30.1769C40.5884 30.3942 40.8086 30.893 40.6744 31.3629C40.5401 31.8327 40.0895 32.1399 39.603 32.0931C39.1164 32.0463 38.7326 31.659 38.6902 31.1721C38.6667 30.9236 38.7377 30.6754 38.8889 30.4768ZM39.7705 36.8973C40.1515 37.1577 40.663 37.1147 40.9953 36.7947V36.7748C41.1826 36.5913 41.2897 36.3414 41.2934 36.0794C41.2868 35.618 40.9571 35.2248 40.5039 35.1376C40.0507 35.0503 39.5985 35.2932 39.421 35.7191C39.2435 36.145 39.3895 36.637 39.7705 36.8973ZM28.1422 11.725L11.2804 28.5832L19.7113 37.0123L36.573 20.1541L28.1422 11.725Z" fill="#0067C5"/>
<path d="M16.2728 15.9948L15.9876 15.9976C11.7024 16.0727 7.66892 17.8046 4.63166 20.8746C1.57215 23.967 -0.0709954 28.015 0.00274453 32.2744C0.15579 41.0895 7.06369 47.9948 15.7288 47.9948L16.0113 47.992C24.9797 47.8376 32.152 40.5345 31.9975 31.7166C31.8445 22.9014 24.9366 15.9948 16.2728 15.9948Z" fill="#FFA733"/>
<path fill-rule="evenodd" clip-rule="evenodd" d="M17.3332 23.7332C17.3332 22.9968 16.7362 22.3998 15.9999 22.3998C15.2635 22.3998 14.6665 22.9968 14.6665 23.7332V33.0666C14.6665 33.803 15.2635 34.4 15.9999 34.4C16.7362 34.4 17.3332 33.803 17.3332 33.0666V23.7332ZM16.0001 41.0677H16.0361C17.138 41.0477 18.0199 40.1377 17.9999 39.0338C17.9799 37.9418 17.09 37.0678 16.0001 37.0678C15.9941 37.0678 15.9881 37.0683 15.9821 37.0688C15.9761 37.0693 15.9701 37.0698 15.9641 37.0698C14.8602 37.0878 13.9802 37.9998 14.0002 39.1038C14.0182 40.1957 14.9102 41.0677 16.0001 41.0677Z" fill="#3E3832"/>
</g>
<defs>
<clipPath id="clip0">
<rect width="48" height="48" fill="white"/>
</clipPath>
</defs>
</svg>
