<svg width="42" height="48" viewBox="0 0 42 48" fill="none" xmlns="http://www.w3.org/2000/svg">
    <path fill-rule="evenodd" clip-rule="evenodd"
        d="M42 21C42 18.244 39.758 16 37 16C34.242 16 32 18.244 32 21C32 23.414 33.72 25.434 36 25.898V39C36 40.654 34.654 42 33 42C31.346 42 30 40.654 30 39V33.002C30 29.692 27.308 27 24 27C20.692 27 18 29.692 18 33V43C18 44.654 16.654 46 15 46C13.346 46 12 44.654 12 43V28.95C17.598 28.442 22 23.728 22 18V8C22 5.586 20.28 3.566 18 3.102V1C18 0.448 17.552 0 17 0C15.392 0 13 1.066 13 4C13 6.934 15.392 8 17 8C17.552 8 18 7.552 18 7V5.184C19.162 5.598 20 6.698 20 8V18C20 22.962 15.962 27 11 27C6.038 27 2 22.962 2 18V8C2 6.698 2.838 5.598 4 5.184V7C4 7.552 4.448 8 5 8C6.608 8 9 6.934 9 4C9 1.066 6.608 0 5 0C4.448 0 4 0.448 4 1V3.102C1.72 3.566 0 5.586 0 8V18C0 23.728 4.402 28.442 10 28.95V43C10 45.756 12.242 48 15 48C17.758 48 20 45.756 20 43V33C20 30.794 21.794 29 24 29C26.206 29 28 30.794 28 33.002V39C28 41.756 30.242 44 33 44C35.758 44 38 41.756 38 39V25.898C40.28 25.434 42 23.414 42 21ZM16 5.78C15.496 5.54 15 5.038 15 4C15 2.968 15.49 2.466 16 2.224V5.78ZM6 2.22C6.504 2.46 7 2.962 7 4C7 5.03 6.512 5.532 6 5.776V2.22ZM37 24C35.346 24 34 22.654 34 21C34 19.346 35.346 18 37 18C38.654 18 40 19.346 40 21C40 22.654 38.654 24 37 24Z"
        fill="#3E3832" />
</svg>