<svg width="44" height="50" viewBox="0 0 44 50" fill="none" xmlns="http://www.w3.org/2000/svg">
    <path fill-rule="evenodd" clip-rule="evenodd"
        d="M38.6252 16.6667C35.7085 16.6667 33.4168 18.9583 33.4168 21.875C33.4168 24.375 35.2918 26.4583 37.5835 26.875V40.625C37.5835 42.2917 36.1252 43.75 34.4585 43.75C32.7918 43.75 31.3335 42.2917 31.3335 40.625V34.375C31.3335 30.8333 28.6252 28.125 25.0835 28.125C21.5418 28.125 18.8335 30.8333 18.8335 34.375V44.7917C18.8335 46.4583 17.3752 47.9167 15.7085 47.9167C14.0418 47.9167 12.5835 46.4583 12.5835 44.7917V30.2083C18.4168 29.5833 23.0002 24.7917 23.0002 18.75V8.33333C23.0002 5.83333 21.1252 3.75 18.8335 3.125V1.04167C18.8335 0.416667 18.4168 0 17.7918 0C16.1252 0 13.6252 1.04167 13.6252 4.16667C13.6252 7.29167 16.1252 8.33333 17.7918 8.33333C18.4168 8.33333 18.8335 7.91667 18.8335 7.29167V5.41667C20.0835 5.83333 20.9168 7.08333 20.9168 8.33333V18.75C20.9168 23.9583 16.7502 28.125 11.5418 28.125C6.3335 28.125 2.16683 23.9583 2.16683 18.75V8.33333C2.16683 6.875 3.00016 5.83333 4.25016 5.41667V7.29167C4.25016 7.91667 4.66683 8.33333 5.29183 8.33333C6.9585 8.33333 9.4585 7.29167 9.4585 4.16667C9.4585 1.04167 6.9585 0 5.29183 0C4.66683 0 4.25016 0.416667 4.25016 1.04167V3.125C1.9585 3.75 0.0834961 5.83333 0.0834961 8.33333V18.75C0.0834961 24.7917 4.66683 29.5833 10.5002 30.2083V44.7917C10.5002 47.7083 12.7918 50 15.7085 50C18.6252 50 20.9168 47.7083 20.9168 44.7917V34.375C20.9168 32.0833 22.7918 30.2083 25.0835 30.2083C27.3752 30.2083 29.2502 32.0833 29.2502 34.375V40.625C29.2502 43.5417 31.5418 45.8333 34.4585 45.8333C37.3752 45.8333 39.6668 43.5417 39.6668 40.625V26.875C41.9585 26.4583 43.8335 24.375 43.8335 21.875C43.8335 18.9583 41.5418 16.6667 38.6252 16.6667Z"
        fill="#0067C5" />
</svg>