<svg width="42" height="48" viewBox="0 0 42 48" fill="none" xmlns="http://www.w3.org/2000/svg">
    <path fill-rule="evenodd" clip-rule="evenodd"
        d="M37 16C34.2 16 32 18.2 32 21C32 23.4 33.8 25.4 36 25.8V39C36 40.6 34.6 42 33 42C31.4 42 30 40.6 30 39V33C30 29.6 27.4 27 24 27C20.6 27 18 29.6 18 33V43C18 44.6 16.6 46 15 46C13.4 46 12 44.6 12 43V29C17.6 28.4 22 23.8 22 18V8C22 5.6 20.2 3.6 18 3V1C18 0.4 17.6 0 17 0C15.4 0 13 1 13 4C13 7 15.4 8 17 8C17.6 8 18 7.6 18 7V5.2C19.2 5.6 20 6.8 20 8V18C20 23 16 27 11 27C6 27 2 23 2 18V8C2 6.6 2.8 5.6 4 5.2V7C4 7.6 4.4 8 5 8C6.6 8 9 7 9 4C9 1 6.6 0 5 0C4.4 0 4 0.4 4 1V3C1.8 3.6 0 5.6 0 8V18C0 23.8 4.4 28.4 10 29V43C10 45.8 12.2 48 15 48C17.8 48 20 45.8 20 43V33C20 30.8 21.8 29 24 29C26.2 29 28 30.8 28 33V39C28 41.8 30.2 44 33 44C35.8 44 38 41.8 38 39V25.8C40.2 25.4 42 23.4 42 21C42 18.2 39.8 16 37 16Z"
        fill="#0067C5" />
</svg>