<svg width="46" height="47" viewBox="0 0 46 47" fill="none" xmlns="http://www.w3.org/2000/svg">
    <path fill-rule="evenodd" clip-rule="evenodd"
        d="M0.00341882 23.402C0.223419 36.078 10.1534 46.008 22.6094 46.008L23.0174 46.004C35.9074 45.778 46.2154 35.28 45.9954 22.602C45.7734 9.928 35.8474 0 23.3914 0L22.9814 0.004C16.8214 0.112 11.0214 2.6 6.65542 7.016C2.25942 11.458 -0.102581 17.28 0.00341882 23.402ZM23.0154 2.004L23.3914 2C34.7454 2 43.7934 11.064 43.9954 22.636C44.1954 34.212 34.7694 43.796 22.9814 44.004L22.6094 44.008C11.2554 44.008 2.20542 34.942 2.00342 23.368C1.90742 17.788 4.06342 12.48 8.07742 8.422C12.0754 4.38 17.3794 2.102 23.0154 2.004ZM22.9994 27C22.4474 27 21.9994 26.552 21.9994 26V12C21.9994 11.448 22.4474 11 22.9994 11C23.5514 11 23.9994 11.448 23.9994 12V26C23.9994 26.552 23.5514 27 22.9994 27ZM24.9994 33C24.9994 34.1046 24.104 35 22.9994 35C21.8948 35 20.9994 34.1046 20.9994 33C20.9994 31.8954 21.8948 31 22.9994 31C24.104 31 24.9994 31.8954 24.9994 33Z"
        fill="#3E3832" />
</svg>