<svg id="Filled_Version" data-name="Filled Version" xmlns="http://www.w3.org/2000/svg" viewBox="0 0 24.14 24.15">
  <defs>
    <style>
      .cls-1 {
        fill: #3e3832;
      }
    </style>
  </defs>
  <title>first-aid-plaster</title>
  <g>
    <path class="cls-1" d="M10.24,1.75A6,6,0,1,0,1.46,9.93l0.3,0.3L4.93,13.4l8.48-8.48ZM3.52,5.63a0.5,0.5,0,1,1,0,.71,0.5,0.5,0,0,1,0-.71h0ZM4.57,8.81A0.49,0.49,0,0,1,4.22,9,0.52,0.52,0,1,1,4.57,8.81Zm1.06-5.3a0.5,0.5,0,0,1,.71,0h0a0.5,0.5,0,0,1,0,.71h0a0.5,0.5,0,0,1-.71,0h0a0.5,0.5,0,0,1,0-.71h0ZM6,6a0.5,0.5,0,0,1,.71.71,0.49,0.49,0,0,1-.35.15A0.5,0.5,0,0,1,6,6ZM7.05,9.16a0.5,0.5,0,1,1,.14-0.34A0.5,0.5,0,0,1,7.05,9.16Zm1.06-5.3a0.5,0.5,0,1,1,0,.71,0.5,0.5,0,0,1,0-.71h0ZM9.17,7a0.5,0.5,0,0,1-.71,0h0A0.5,0.5,0,1,1,9.17,7Z" transform="translate(0.15 0.16)"/>
    <path class="cls-1" d="M22.24,13.75l-3.17-3.17-8.48,8.48,3.17,3.17A6,6,0,0,0,18,24h0A6,6,0,0,0,22.24,13.75ZM14.83,17a0.5,0.5,0,1,1-.14.34A0.5,0.5,0,0,1,14.83,17Zm1.06,3.18a0.5,0.5,0,0,1-.71,0h0a0.5,0.5,0,1,1,.71-0.05v0.05Zm1.06-5.3a0.5,0.5,0,1,1,0,.71,0.5,0.5,0,0,1,0-.71h0Zm0.35,2.42a0.5,0.5,0,1,1,0,.71,0.5,0.5,0,0,1,0-.71h0Zm1.06,3.18a0.5,0.5,0,1,1,0-.71h0a0.49,0.49,0,0,1,0,.69h0Zm1.06-5.3a0.51,0.51,0,1,1-.1.35,0.5,0.5,0,0,1,.1-0.35h0Zm1.06,3.18A0.49,0.49,0,1,1,20.63,18a0.5,0.5,0,0,1-.15.35h0Z" transform="translate(0.15 0.16)"/>
    <rect class="cls-1" x="5.89" y="9.11" width="12" height="6" transform="translate(-4.93 12.11) rotate(-45)"/>
  </g>
</svg>