<?xml version="1.0" encoding="utf-8"?>
<!-- Generator: Adobe Illustrator 16.0.0, SVG Export Plug-In . SVG Version: 6.00 Build 0)  -->
<!DOCTYPE svg PUBLIC "-//W3C//DTD SVG 1.1//EN" "http://www.w3.org/Graphics/SVG/1.1/DTD/svg11.dtd">
<svg version="1.1" id="Filled_Version" xmlns="http://www.w3.org/2000/svg" xmlns:xlink="http://www.w3.org/1999/xlink" x="0px"
	 y="0px" width="24px" height="24px" viewBox="0 0 24 24" enable-background="new 0 0 24 24" xml:space="preserve">
<g>
	<path d="M15.741,15.176c0.898-0.842,1.611-1.943,1.739-3.254c0.685-0.234,1.146-0.971,1.146-1.922c0-0.282-0.045-0.543-0.12-0.78
		l0.5-3.67c0.008-0.08,0.18-1.976-1.244-3.549C16.56,0.674,14.624,0,12.008,0S7.456,0.674,6.254,2.001
		C4.831,3.574,5.002,5.47,5.012,5.568l0.494,3.619C5.424,9.434,5.375,9.705,5.375,10c0,0.951,0.46,1.688,1.146,1.922
		c0.127,1.311,0.841,2.413,1.74,3.255C4.354,15.732,0,15.979,0,20.246V24h11.5l0,0l0.008-6.667c0-0.276,0.224-0.499,0.5-0.499h0
		c0.276,0,0.5,0.224,0.5,0.5L12.5,24H24v-3.754C24,15.965,19.85,15.765,15.741,15.176z M8,20.5H7v1C7,21.776,6.776,22,6.5,22
		S6,21.776,6,21.5v-1H5c-0.276,0-0.5-0.224-0.5-0.5c0-0.275,0.224-0.5,0.5-0.5h1v-1C6,18.225,6.224,18,6.5,18S7,18.225,7,18.5v1h1
		c0.276,0,0.5,0.225,0.5,0.5C8.5,20.276,8.276,20.5,8,20.5z M14,22c-0.276,0-0.5-0.224-0.5-0.5c0-0.275,0.224-0.5,0.5-0.5
		s0.5,0.225,0.5,0.5C14.5,21.776,14.276,22,14,22z M14,20c-0.276,0-0.5-0.224-0.5-0.5c0-0.275,0.224-0.5,0.5-0.5s0.5,0.225,0.5,0.5
		C14.5,19.776,14.276,20,14,20z M12,16c-1.342,0-4.5-1.9-4.5-4.5C7.5,11.225,7.276,11,7,11c-0.495,0-0.625-0.654-0.625-1
		S6.505,9,7,9c0.238,0,0.443-0.168,0.49-0.401l0.423-2.104c2.629-0.07,3.552-0.819,4.092-1.602c0.538,0.782,1.459,1.531,4.087,1.602
		l0.417,2.103C16.556,8.832,16.761,9,17,9c0.495,0,0.625,0.654,0.625,1s-0.13,1-0.625,1c-0.276,0-0.5,0.225-0.5,0.5
		C16.5,14.1,13.342,16,12,16z"/>
	<path d="M10.128,8.501L10,8.502L9.872,8.501c-0.4-0.002-0.81-0.007-1.106,0.288C8.589,8.964,8.5,9.203,8.5,9.502
		c0,0.275,0.224,0.5,0.5,0.5c0.273,0,0.495-0.22,0.5-0.491C9.595,9.499,9.75,9.5,9.864,9.501L10,9.502l0.136-0.001
		c0.113-0.001,0.27-0.002,0.364,0.01c0.004,0.271,0.227,0.491,0.5,0.491c0.276,0,0.5-0.225,0.5-0.5c0-0.299-0.089-0.538-0.266-0.713
		C10.938,8.494,10.528,8.498,10.128,8.501z"/>
	<path d="M14.128,8.501L14,8.502l-0.128-0.001c-0.399-0.002-0.81-0.007-1.106,0.288C12.589,8.964,12.5,9.203,12.5,9.502
		c0,0.275,0.224,0.5,0.5,0.5c0.273,0,0.495-0.22,0.5-0.491c0.094-0.012,0.25-0.011,0.364-0.01L14,9.502l0.136-0.001
		c0.113-0.001,0.27-0.002,0.364,0.01c0.004,0.271,0.227,0.491,0.5,0.491c0.276,0,0.5-0.225,0.5-0.5c0-0.299-0.089-0.538-0.266-0.713
		C14.938,8.494,14.526,8.498,14.128,8.501z"/>
</g>
</svg>