<?xml version="1.0" encoding="utf-8"?>
<!-- Generator: Adobe Illustrator 19.2.0, SVG Export Plug-In . SVG Version: 6.00 Build 0)  -->
<!DOCTYPE svg PUBLIC "-//W3C//DTD SVG 1.1//EN" "http://www.w3.org/Graphics/SVG/1.1/DTD/svg11.dtd">
<svg version="1.1" id="Filled_Version" xmlns="http://www.w3.org/2000/svg" xmlns:xlink="http://www.w3.org/1999/xlink" x="0px"
	 y="0px" viewBox="0 0 24 24" style="enable-background:new 0 0 24 24;" xml:space="preserve">
<style type="text/css">
	.st0{fill:#3e3832;}
</style>
<g>
	<path class="st0" d="M21,16.8l-5.4-1.5c0.9-0.9,1.7-2,1.8-3.4c0.7-0.2,1.1-1,1.1-1.9c0-0.3,0-0.6-0.1-0.8L19,5.5
		c0-0.1,0.2-2-1.2-3.5c-1.2-1.3-3.1-2-5.8-2C9.4,0,7.4,0.7,6.2,2C4.8,3.6,5,5.5,5,5.6l0.5,3.6C5.4,9.4,5.4,9.7,5.4,10
		c0,1,0.5,1.7,1.1,1.9c0.1,1.4,0.9,2.5,1.9,3.4l-5.5,1.5C1.2,17.4,0,19.1,0,21v3h8.6l2.6-4.7c-0.7-0.3-1.2-1-1.2-1.8v-1.1
		c0.8,0.4,1.5,0.6,2,0.6c0.5,0,1.2-0.2,2-0.6v1.1c0,0.8-0.5,1.5-1.2,1.8l2.6,4.7H24v-3C24,19.1,22.8,17.4,21,16.8z M12,16
		c-1.3,0-4.5-1.9-4.5-4.5C7.5,11.2,7.3,11,7,11c-0.5,0-0.6-0.7-0.6-1S6.5,9,7,9c0.2,0,0.4-0.2,0.5-0.4l0.4-2.1
		c2.6-0.1,3.6-0.8,4.1-1.6c0.5,0.8,1.5,1.5,4.1,1.6l0.4,2.1C16.6,8.8,16.8,9,17,9c0.5,0,0.6,0.7,0.6,1s-0.1,1-0.6,1
		c-0.3,0-0.5,0.2-0.5,0.5C16.5,14.1,13.3,16,12,16z M21,21h-3.5v-1H21V21z"/>
	<path class="st0" d="M10.1,8.5l-0.1,0l-0.1,0c-0.4,0-0.8,0-1.1,0.3C8.6,9,8.5,9.2,8.5,9.5C8.5,9.8,8.7,10,9,10
		c0.3,0,0.5-0.2,0.5-0.5c0.1,0,0.3,0,0.4,0l0.1,0l0.1,0c0.1,0,0.3,0,0.4,0c0,0.3,0.2,0.5,0.5,0.5c0.3,0,0.5-0.2,0.5-0.5
		c0-0.3-0.1-0.5-0.3-0.7C10.9,8.5,10.5,8.5,10.1,8.5z"/>
	<path class="st0" d="M14.1,8.5l-0.1,0l-0.1,0c-0.4,0-0.8,0-1.1,0.3c-0.2,0.2-0.3,0.4-0.3,0.7c0,0.3,0.2,0.5,0.5,0.5
		c0.3,0,0.5-0.2,0.5-0.5c0.1,0,0.3,0,0.4,0l0.1,0l0.1,0c0.1,0,0.3,0,0.4,0c0,0.3,0.2,0.5,0.5,0.5c0.3,0,0.5-0.2,0.5-0.5
		c0-0.3-0.1-0.5-0.3-0.7C14.9,8.5,14.5,8.5,14.1,8.5z"/>
</g>
</svg>