<?xml version="1.0" encoding="utf-8"?>
<!-- Generator: Adobe Illustrator 16.0.0, SVG Export Plug-In . SVG Version: 6.00 Build 0)  -->
<!DOCTYPE svg PUBLIC "-//W3C//DTD SVG 1.1//EN" "http://www.w3.org/Graphics/SVG/1.1/DTD/svg11.dtd">
<svg version="1.1" id="Outline_Version" xmlns="http://www.w3.org/2000/svg" xmlns:xlink="http://www.w3.org/1999/xlink" x="0px"
	 y="0px" width="24px" height="24px" viewBox="0 0 24 24" enable-background="new 0 0 24 24" xml:space="preserve">
<g>
	<path d="M21.039,16.774l-5.403-1.496c0.948-0.853,1.712-1.993,1.845-3.356c0.686-0.234,1.146-0.971,1.146-1.922
		c0-0.285-0.052-0.542-0.128-0.781l0.5-3.669c0.009-0.08,0.18-1.977-1.243-3.549C16.553,0.673,14.617,0,12.001,0
		S7.449,0.673,6.247,2.001C4.824,3.573,4.995,5.47,5.006,5.567l0.498,3.651C5.428,9.458,5.376,9.715,5.376,10
		c0,0.951,0.46,1.688,1.146,1.922c0.133,1.37,0.904,2.515,1.859,3.369l-5.459,1.496C1.175,17.44,0.001,19.134,0.001,21v2.5
		c0,0.276,0.224,0.5,0.5,0.5h8.5h6h8.5c0.276,0,0.5-0.224,0.5-0.5V21C24.001,19.134,22.827,17.44,21.039,16.774z M6.989,2.672
		C7.993,1.563,9.679,1,12.001,1c2.313,0,3.996,0.559,5.001,1.66c1.128,1.235,1.003,2.772,1.004,2.772l-0.373,2.736
		c-0.071-0.035-0.133-0.087-0.21-0.109l-0.432-2.157C16.944,5.668,16.739,5.5,16.501,5.5c-2.983,0-3.486-0.841-3.818-1.396
		c-0.1-0.165-0.192-0.321-0.328-0.457c-0.188-0.188-0.52-0.188-0.707,0c-0.136,0.136-0.229,0.292-0.328,0.457
		C10.987,4.659,10.484,5.5,7.501,5.5c-0.238,0-0.443,0.168-0.49,0.402L6.579,8.06C6.502,8.082,6.44,8.134,6.369,8.169L5.998,5.45
		C5.997,5.436,5.86,3.919,6.989,2.672z M7.501,11.5c0-0.276-0.224-0.5-0.5-0.5c-0.494,0-0.625-0.654-0.625-1s0.131-1,0.625-1
		c0.238,0,0.443-0.168,0.49-0.402l0.421-2.103c2.628-0.07,3.551-0.82,4.089-1.602c0.538,0.781,1.461,1.531,4.089,1.602l0.421,2.103
		C16.558,8.832,16.763,9,17.001,9c0.494,0,0.625,0.654,0.625,1s-0.131,1-0.625,1c-0.276,0-0.5,0.224-0.5,0.5
		c0,2.6-3.158,4.5-4.5,4.5S7.501,14.1,7.501,11.5z M12.001,18.5c-0.552,0-1-0.448-1-1v-0.684c0.378,0.119,0.722,0.184,1,0.184
		s0.622-0.064,1-0.184V17.5C13.001,18.052,12.553,18.5,12.001,18.5z M1.001,21c0-1.451,0.912-2.768,2.228-3.262l6.166-1.688
		c0.202,0.128,0.405,0.245,0.606,0.348V17.5c0,0.812,0.488,1.509,1.185,1.822L8.733,23H1.001V21z M9.936,23l2.065-3.099L14.066,23
		H9.936z M23.001,23h-7.732l-2.452-3.678c0.696-0.313,1.185-1.011,1.185-1.822v-1.102c0.209-0.106,0.419-0.229,0.629-0.361
		l6.101,1.688c1.358,0.508,2.271,1.824,2.271,3.275V23z" fill="#0067c5"/>
	<path d="M9.501,9.511c0.096-0.013,0.251-0.01,0.363-0.01l0.137,0.001l0.137-0.001c0.113-0.001,0.27-0.003,0.363,0.01
		c0.005,0.271,0.227,0.491,0.5,0.491c0.276,0,0.5-0.224,0.5-0.5c0-0.298-0.09-0.538-0.266-0.713
		C10.939,8.495,10.527,8.5,10.13,8.501l-0.129,0.001L9.872,8.501c-0.401,0-0.81-0.006-1.105,0.288
		C8.591,8.964,8.501,9.204,8.501,9.502c0,0.276,0.226,0.473,0.502,0.473C9.258,9.975,9.47,9.761,9.501,9.511z" fill="#0067c5"/>
	<path d="M13.003,9.975c0.255,0,0.467-0.214,0.498-0.464c0.096-0.013,0.252-0.01,0.363-0.01l0.137,0.001l0.137-0.001
		c0.112-0.001,0.269-0.003,0.363,0.01c0.005,0.271,0.227,0.491,0.5,0.491c0.276,0,0.5-0.224,0.5-0.5c0-0.298-0.09-0.538-0.266-0.713
		C14.938,8.495,14.526,8.5,14.13,8.501l-0.129,0.001l-0.129-0.001c-0.397,0-0.81-0.006-1.105,0.288
		c-0.176,0.175-0.266,0.415-0.266,0.713C12.501,9.778,12.727,9.975,13.003,9.975z" fill="#0067c5"/>
	<rect x="17.501" y="20" width="3.5" height="1"/>
</g>
</svg>