<svg width="246" height="39" viewBox="0 0 246 39" xmlns="http://www.w3.org/2000/svg" xmlns:xlink="http://www.w3.org/1999/xlink"><defs><path id="a" d="M8.854 38.479H.437V.563h8.417v37.916z"/><path id="c" d="M13.187 38.479H.437V.563h12.75v37.916z"/><path id="e" d="M17.52 38.479H.437V.563H17.52v37.916z"/><path id="g" d="M21.854 38.479H.437V.563h21.417v37.916z"/><path id="i" d="M26.187 38.479H.437V.563h25.75v37.916z"/><path id="k" d="M30.52 38.479H.437V.563H30.52v37.916z"/><path id="m" d="M34.854 38.479H.437V.563h34.417v37.916z"/><path id="o" d="M39.187 38.479H.437V.563h38.75v37.916z"/><path id="q" d="M43.52 38.479H.437V.563H43.52v37.916z"/><path id="s" d="M47.854 38.479H.437V.563h47.417v37.916z"/><path id="u" d="M.687 38.479h51.5V.563H.687z"/><path id="w" d="M.02 38.479h51.5V.563H.02v37.916z"/><path id="y" d="M.354 38.479h51.5V.563H.354z"/><path id="A" d="M.687 38.479h51.5V.563H.687v37.916z"/><path id="C" d="M.02 38.479h51.5V.563H.02v37.916z"/><path id="E" d="M.354 38.479h51.5V.563H.354z"/><path id="G" d="M.687 38.479h51.5V.563H.687v37.916z"/><path id="I" d="M.02 38.479h51.5V.563H.02v37.916z"/><path id="K" d="M.353 38.479h51.5V.563H.353z"/><path id="M" d="M.687 38.479h51.5V.563H.687v37.916z"/><path id="O" d="M.02 38.479h51.5V.563H.02z"/><path id="Q" d="M.353 38.479h51.5V.563H.353z"/><path id="S" d="M.687 38.479h51.5V.563H.687v37.916z"/><path id="U" d="M.02 38.479h51.5V.563H.02z"/><path id="W" d="M.353 38.479h51.5V.563H.353v37.916z"/><path id="Y" d="M.687 38.479h51.5V.563H.687v37.916z"/><path id="aa" d="M.02 38.479h51.5V.563H.02z"/><path id="ac" d="M.353 38.479h51.5V.563H.353v37.916z"/><path id="ae" d="M.687 38.479h51.5V.563H.687z"/><path id="ag" d="M.02 38.479h51.5V.563H.02z"/><path id="ai" d="M.353 38.479h51.5V.563H.353v37.916z"/><path id="ak" d="M.687 38.479h51.5V.563H.687v37.916z"/><path id="am" d="M.02 38.479h51.5V.563H.02z"/><path id="ao" d="M.353 38.479h51.5V.563H.353v37.916z"/><path id="aq" d="M.687 38.479h51.5V.563H.687v37.916z"/><path id="as" d="M.02 38.479h51.5V.563H.02v37.916z"/><path id="au" d="M.353 38.479h51.5V.563H.353z"/><path id="aw" d="M.687 38.479h51.5V.563H.687z"/><path id="ay" d="M.02 38.479h51.5V.563H.02v37.916z"/><path id="aA" d="M.353 38.479h51.5V.563H.353v37.916z"/><path id="aC" d="M.687 38.479h51.5V.563H.687z"/><path id="aE" d="M.02 38.479h51.5V.563H.02v37.916z"/><path id="aG" d="M.353 38.479h51.5V.563H.353z"/><path id="aI" d="M.687 38.479h51.5V.563H.687v37.916z"/><path id="aK" d="M.02 38.479h51.5V.563H.02v37.916z"/><path id="aM" d="M.353 38.479h51.5V.563H.353v37.916z"/><path id="aO" d="M.687 38.479h51.5V.563H.687v37.916z"/><path id="aQ" d="M.02 38.479h51.5V.563H.02v37.916z"/><path id="aS" d="M.353 38.479h51.5V.563H.353v37.916z"/><path id="aU" d="M.687 38.479h51.5V.563H.687z"/><path id="aW" d="M.02 38.479h51.5V.563H.02v37.916z"/><path id="aY" d="M.353 38.479h51.5V.563H.353v37.916z"/><path id="ba" d="M.687 38.479h51.5V.563H.687v37.916z"/><path id="bc" d="M.02 38.479h51.5V.563H.02z"/><path id="be" d="M.353 38.479h51.5V.563H.353z"/><path id="bg" d="M.687 38.479H50.52V.563H.687z"/><path id="bi" d="M.02 38.479h45.5V.563H.02v37.916z"/><path id="bk" d="M.353 38.479H41.52V.563H.353v37.916z"/><path id="bm" d="M.687 38.479H37.52V.563H.687z"/><path id="bo" d="M.02 38.479h32.5V.563H.02z"/><path id="bq" d="M.353 38.479H28.52V.563H.354z"/><path id="bs" d="M.687 38.479H24.52V.563H.687z"/><path id="bu" d="M.02 38.479h19.5V.563H.02z"/><path id="bw" d="M.353 38.479H15.52V.563H.354z"/><path id="by" d="M.687 38.479H11.52V.563H.687z"/><path id="bA" d="M.02 38.479h6.5V.563H.02z"/><path id="bC" d="M.353 38.479H2.52V.563H.353v37.916z"/></defs><g fill="none" fill-rule="evenodd"><path fill="#FFF" d="M0 0h246v38.974H0z"/><g transform="translate(0 .207)"><mask id="b" fill="#fff"><use xlink:href="#a"/></mask><path d="M8.854-7.854l-51.5 51.5" stroke="#3E3832" mask="url(#b)"/></g><g transform="translate(0 .207)"><mask id="d" fill="#fff"><use xlink:href="#c"/></mask><path d="M13.187-7.854l-51.5 51.5" stroke="#3E3832" mask="url(#d)"/></g><g transform="translate(0 .207)"><mask id="f" fill="#fff"><use xlink:href="#e"/></mask><path d="M17.52-7.854l-51.5 51.5" stroke="#3E3832" mask="url(#f)"/></g><g transform="translate(0 .207)"><mask id="h" fill="#fff"><use xlink:href="#g"/></mask><path d="M21.854-7.854l-51.5 51.5" stroke="#3E3832" mask="url(#h)"/></g><g transform="translate(0 .207)"><mask id="j" fill="#fff"><use xlink:href="#i"/></mask><path d="M26.187-7.854l-51.5 51.5" stroke="#3E3832" mask="url(#j)"/></g><g transform="translate(0 .207)"><mask id="l" fill="#fff"><use xlink:href="#k"/></mask><path d="M30.52-7.854l-51.5 51.5" stroke="#3E3832" mask="url(#l)"/></g><g transform="translate(0 .207)"><mask id="n" fill="#fff"><use xlink:href="#m"/></mask><path d="M34.854-7.854l-51.5 51.5" stroke="#3E3832" mask="url(#n)"/></g><g transform="translate(0 .207)"><mask id="p" fill="#fff"><use xlink:href="#o"/></mask><path d="M39.187-7.854l-51.5 51.5" stroke="#3E3832" mask="url(#p)"/></g><g transform="translate(0 .207)"><mask id="r" fill="#fff"><use xlink:href="#q"/></mask><path d="M43.52-7.854l-51.5 51.5" stroke="#3E3832" mask="url(#r)"/></g><g transform="translate(0 .207)"><mask id="t" fill="#fff"><use xlink:href="#s"/></mask><path d="M47.854-7.854l-51.5 51.5" stroke="#3E3832" mask="url(#t)"/></g><g transform="translate(0 .207)"><mask id="v" fill="#fff"><use xlink:href="#u"/></mask><path d="M52.187-7.854l-51.5 51.5" stroke="#3E3832" mask="url(#v)"/></g><g transform="translate(5 .207)"><mask id="x" fill="#fff"><use xlink:href="#w"/></mask><path d="M51.52-7.854l-51.5 51.5" stroke="#3E3832" mask="url(#x)"/></g><g transform="translate(9 .207)"><mask id="z" fill="#fff"><use xlink:href="#y"/></mask><path d="M51.854-7.854l-51.5 51.5" stroke="#3E3832" mask="url(#z)"/></g><g transform="translate(13 .207)"><mask id="B" fill="#fff"><use xlink:href="#A"/></mask><path d="M52.187-7.854l-51.5 51.5" stroke="#3E3832" mask="url(#B)"/></g><g transform="translate(18 .207)"><mask id="D" fill="#fff"><use xlink:href="#C"/></mask><path d="M51.52-7.854l-51.5 51.5" stroke="#3E3832" mask="url(#D)"/></g><g transform="translate(22 .207)"><mask id="F" fill="#fff"><use xlink:href="#E"/></mask><path d="M51.854-7.854l-51.5 51.5" stroke="#3E3832" mask="url(#F)"/></g><g transform="translate(26 .207)"><mask id="H" fill="#fff"><use xlink:href="#G"/></mask><path d="M52.187-7.854l-51.5 51.5" stroke="#3E3832" mask="url(#H)"/></g><g transform="translate(31 .207)"><mask id="J" fill="#fff"><use xlink:href="#I"/></mask><path d="M51.52-7.854l-51.5 51.5" stroke="#3E3832" mask="url(#J)"/></g><g transform="translate(35 .207)"><mask id="L" fill="#fff"><use xlink:href="#K"/></mask><path d="M51.853-7.854l-51.5 51.5" stroke="#3E3832" mask="url(#L)"/></g><g transform="translate(39 .207)"><mask id="N" fill="#fff"><use xlink:href="#M"/></mask><path d="M52.187-7.854l-51.5 51.5" stroke="#3E3832" mask="url(#N)"/></g><g transform="translate(44 .207)"><mask id="P" fill="#fff"><use xlink:href="#O"/></mask><path d="M51.52-7.854l-51.5 51.5" stroke="#3E3832" mask="url(#P)"/></g><g transform="translate(48 .207)"><mask id="R" fill="#fff"><use xlink:href="#Q"/></mask><path d="M51.853-7.854l-51.5 51.5" stroke="#3E3832" mask="url(#R)"/></g><g transform="translate(52 .207)"><mask id="T" fill="#fff"><use xlink:href="#S"/></mask><path d="M52.187-7.854l-51.5 51.5" stroke="#3E3832" mask="url(#T)"/></g><g transform="translate(57 .207)"><mask id="V" fill="#fff"><use xlink:href="#U"/></mask><path d="M51.52-7.854l-51.5 51.5" stroke="#3E3832" mask="url(#V)"/></g><g transform="translate(61 .207)"><mask id="X" fill="#fff"><use xlink:href="#W"/></mask><path d="M51.853-7.854l-51.5 51.5" stroke="#3E3832" mask="url(#X)"/></g><g transform="translate(65 .207)"><mask id="Z" fill="#fff"><use xlink:href="#Y"/></mask><path d="M52.187-7.854l-51.5 51.5" stroke="#3E3832" mask="url(#Z)"/></g><g transform="translate(70 .207)"><mask id="ab" fill="#fff"><use xlink:href="#aa"/></mask><path d="M51.52-7.854l-51.5 51.5" stroke="#3E3832" mask="url(#ab)"/></g><g transform="translate(74 .207)"><mask id="ad" fill="#fff"><use xlink:href="#ac"/></mask><path d="M51.853-7.854l-51.5 51.5" stroke="#3E3832" mask="url(#ad)"/></g><g transform="translate(78 .207)"><mask id="af" fill="#fff"><use xlink:href="#ae"/></mask><path d="M52.187-7.854l-51.5 51.5" stroke="#3E3832" mask="url(#af)"/></g><g transform="translate(83 .207)"><mask id="ah" fill="#fff"><use xlink:href="#ag"/></mask><path d="M51.52-7.854l-51.5 51.5" stroke="#3E3832" mask="url(#ah)"/></g><g transform="translate(87 .207)"><mask id="aj" fill="#fff"><use xlink:href="#ai"/></mask><path d="M51.853-7.854l-51.5 51.5" stroke="#3E3832" mask="url(#aj)"/></g><g transform="translate(91 .207)"><mask id="al" fill="#fff"><use xlink:href="#ak"/></mask><path d="M52.187-7.854l-51.5 51.5" stroke="#3E3832" mask="url(#al)"/></g><g transform="translate(96 .207)"><mask id="an" fill="#fff"><use xlink:href="#am"/></mask><path d="M51.52-7.854l-51.5 51.5" stroke="#3E3832" mask="url(#an)"/></g><g transform="translate(100 .207)"><mask id="ap" fill="#fff"><use xlink:href="#ao"/></mask><path d="M51.853-7.854l-51.5 51.5" stroke="#3E3832" mask="url(#ap)"/></g><g transform="translate(104 .207)"><mask id="ar" fill="#fff"><use xlink:href="#aq"/></mask><path d="M52.187-7.854l-51.5 51.5" stroke="#3E3832" mask="url(#ar)"/></g><g transform="translate(109 .207)"><mask id="at" fill="#fff"><use xlink:href="#as"/></mask><path d="M51.52-7.854l-51.5 51.5" stroke="#3E3832" mask="url(#at)"/></g><g transform="translate(113 .207)"><mask id="av" fill="#fff"><use xlink:href="#au"/></mask><path d="M51.853-7.854l-51.5 51.5" stroke="#3E3832" mask="url(#av)"/></g><g transform="translate(117 .207)"><mask id="ax" fill="#fff"><use xlink:href="#aw"/></mask><path d="M52.187-7.854l-51.5 51.5" stroke="#3E3832" mask="url(#ax)"/></g><g transform="translate(122 .207)"><mask id="az" fill="#fff"><use xlink:href="#ay"/></mask><path d="M51.52-7.854l-51.5 51.5" stroke="#3E3832" mask="url(#az)"/></g><g transform="translate(126 .207)"><mask id="aB" fill="#fff"><use xlink:href="#aA"/></mask><path d="M51.853-7.854l-51.5 51.5" stroke="#3E3832" mask="url(#aB)"/></g><g transform="translate(130 .207)"><mask id="aD" fill="#fff"><use xlink:href="#aC"/></mask><path d="M52.187-7.854l-51.5 51.5" stroke="#3E3832" mask="url(#aD)"/></g><g transform="translate(135 .207)"><mask id="aF" fill="#fff"><use xlink:href="#aE"/></mask><path d="M51.52-7.854l-51.5 51.5" stroke="#3E3832" mask="url(#aF)"/></g><g transform="translate(139 .207)"><mask id="aH" fill="#fff"><use xlink:href="#aG"/></mask><path d="M51.853-7.854l-51.5 51.5" stroke="#3E3832" mask="url(#aH)"/></g><g transform="translate(143 .207)"><mask id="aJ" fill="#fff"><use xlink:href="#aI"/></mask><path d="M52.187-7.854l-51.5 51.5" stroke="#3E3832" mask="url(#aJ)"/></g><g transform="translate(148 .207)"><mask id="aL" fill="#fff"><use xlink:href="#aK"/></mask><path d="M51.52-7.854l-51.5 51.5" stroke="#3E3832" mask="url(#aL)"/></g><g transform="translate(152 .207)"><mask id="aN" fill="#fff"><use xlink:href="#aM"/></mask><path d="M51.853-7.854l-51.5 51.5" stroke="#3E3832" mask="url(#aN)"/></g><g transform="translate(156 .207)"><mask id="aP" fill="#fff"><use xlink:href="#aO"/></mask><path d="M52.187-7.854l-51.5 51.5" stroke="#3E3832" mask="url(#aP)"/></g><g transform="translate(161 .207)"><mask id="aR" fill="#fff"><use xlink:href="#aQ"/></mask><path d="M51.52-7.854l-51.5 51.5" stroke="#3E3832" mask="url(#aR)"/></g><g transform="translate(165 .207)"><mask id="aT" fill="#fff"><use xlink:href="#aS"/></mask><path d="M51.853-7.854l-51.5 51.5" stroke="#3E3832" mask="url(#aT)"/></g><g transform="translate(169 .207)"><mask id="aV" fill="#fff"><use xlink:href="#aU"/></mask><path d="M52.187-7.854l-51.5 51.5" stroke="#3E3832" mask="url(#aV)"/></g><g transform="translate(174 .207)"><mask id="aX" fill="#fff"><use xlink:href="#aW"/></mask><path d="M51.52-7.854l-51.5 51.5" stroke="#3E3832" mask="url(#aX)"/></g><g transform="translate(178 .207)"><mask id="aZ" fill="#fff"><use xlink:href="#aY"/></mask><path d="M51.853-7.854l-51.5 51.5" stroke="#3E3832" mask="url(#aZ)"/></g><g transform="translate(182 .207)"><mask id="bb" fill="#fff"><use xlink:href="#ba"/></mask><path d="M52.187-7.854l-51.5 51.5" stroke="#3E3832" mask="url(#bb)"/></g><g transform="translate(187 .207)"><mask id="bd" fill="#fff"><use xlink:href="#bc"/></mask><path d="M51.52-7.854l-51.5 51.5" stroke="#3E3832" mask="url(#bd)"/></g><g transform="translate(191 .207)"><mask id="bf" fill="#fff"><use xlink:href="#be"/></mask><path d="M51.853-7.854l-51.5 51.5" stroke="#3E3832" mask="url(#bf)"/></g><g transform="translate(195 .207)"><mask id="bh" fill="#fff"><use xlink:href="#bg"/></mask><path d="M52.187-7.854l-51.5 51.5" stroke="#3E3832" mask="url(#bh)"/></g><g transform="translate(200 .207)"><mask id="bj" fill="#fff"><use xlink:href="#bi"/></mask><path d="M51.52-7.854l-51.5 51.5" stroke="#3E3832" mask="url(#bj)"/></g><g transform="translate(204 .207)"><mask id="bl" fill="#fff"><use xlink:href="#bk"/></mask><path d="M51.853-7.854l-51.5 51.5" stroke="#3E3832" mask="url(#bl)"/></g><g transform="translate(208 .207)"><mask id="bn" fill="#fff"><use xlink:href="#bm"/></mask><path d="M52.187-7.854l-51.5 51.5" stroke="#3E3832" mask="url(#bn)"/></g><g transform="translate(213 .207)"><mask id="bp" fill="#fff"><use xlink:href="#bo"/></mask><path d="M51.52-7.854l-51.5 51.5" stroke="#3E3832" mask="url(#bp)"/></g><g transform="translate(217 .207)"><mask id="br" fill="#fff"><use xlink:href="#bq"/></mask><path d="M51.853-7.854l-51.5 51.5" stroke="#3E3832" mask="url(#br)"/></g><g transform="translate(221 .207)"><mask id="bt" fill="#fff"><use xlink:href="#bs"/></mask><path d="M52.187-7.854l-51.5 51.5" stroke="#3E3832" mask="url(#bt)"/></g><g transform="translate(226 .207)"><mask id="bv" fill="#fff"><use xlink:href="#bu"/></mask><path d="M51.52-7.854l-51.5 51.5" stroke="#3E3832" mask="url(#bv)"/></g><g transform="translate(230 .207)"><mask id="bx" fill="#fff"><use xlink:href="#bw"/></mask><path d="M51.853-7.854l-51.5 51.5" stroke="#3E3832" mask="url(#bx)"/></g><g transform="translate(234 .207)"><mask id="bz" fill="#fff"><use xlink:href="#by"/></mask><path d="M52.187-7.854l-51.5 51.5" stroke="#3E3832" mask="url(#bz)"/></g><g transform="translate(239 .207)"><mask id="bB" fill="#fff"><use xlink:href="#bA"/></mask><path d="M51.52-7.854l-51.5 51.5" stroke="#3E3832" mask="url(#bB)"/></g><g transform="translate(243 .207)"><mask id="bD" fill="#fff"><use xlink:href="#bC"/></mask><path d="M51.853-7.854l-51.5 51.5" stroke="#3E3832" mask="url(#bD)"/></g></g></svg>