<svg xmlns="http://www.w3.org/2000/svg" xmlns:xlink="http://www.w3.org/1999/xlink" version="1.1" id="Layer_1" x="0px" y="0px" width="244.3px" height="90.3px" viewBox="0 0 244.3 90.3" style="enable-background:new 0 0 244.3 90.3;" xml:space="preserve">
<style type="text/css">
	.st0{fill:none;stroke:#8E9294;stroke-width:1.2146;stroke-miterlimit:10;}
	.st1{fill:#8E9294;}
	.st2{fill:#CBBBA0;}
	.st3{fill:#9EAB37;}
	.st4{fill:#EDEAE8;}
	.st5{fill:#6EA9C8;}
	.st6{fill:none;stroke:#CBBBA0;stroke-width:0.6847;stroke-linecap:round;stroke-miterlimit:10;}
	.st7{fill:#FFFFFF;stroke:#C3B09B;stroke-width:1.4814;stroke-miterlimit:10;}
	.st8{fill:#EDEAE8;stroke:#CBBBA0;stroke-width:0.7623;stroke-linecap:round;stroke-miterlimit:10;}
	.st9{fill:#FFFFFF;}
	.st10{fill:#E57E65;}
	.st11{fill:#581F56;}
	.st12{fill:none;stroke:#C3B09B;stroke-width:0.8336;stroke-miterlimit:10;}
	.st13{fill:none;stroke:#E57E65;stroke-width:0.4168;stroke-linecap:round;stroke-miterlimit:10;}
	.st14{fill:#CD1719;}
	.st15{fill:#C42229;}
	.st16{fill:#5B2052;}
	.st17{fill:#86497E;}
	.st18{fill:#505557;}
</style>
<g>
	<g>
		<path class="st0" d="M89.1,34.6c-0.6,6.3,3.6,15.8,13,18.5"/>
		<g>
			<polygon class="st1" points="99.2,54.4 101.7,52.9 100.2,50.4 101.9,50.9 103.4,53.4 100.9,54.9    "/>
		</g>
	</g>
</g>
<g>
	<path class="st2" d="M67.1,25.6v35.1c0,0-0.1-9.2,22.3-9.2s-0.6-25.9-0.6-25.9S67.1,25.6,67.1,25.6z"/>
	<path class="st3" d="M98.2,42.8H90h-8.2c-4.4,0-16.9,10.1-16.9,19.3c0,0-3,24.2,7.5,24.2s42.3,0,42.3,0V62.1   C114.6,52.9,102.6,42.8,98.2,42.8"/>
	<path class="st2" d="M112,25.6c0,13.9-10.3,24.8-22.6,24.8S67.1,39.2,67.1,25.3s10-25.1,22.3-25.1C101.7,0.2,112,11.8,112,25.6"/>
	<path class="st4" d="M74.3,28.5c0,0-1.8-0.6-3,0.3s-1.5,3.7,0,5s4.2,2.4,4.2,2.4s3.6,4.9,3.8,5.9c0.2,1-2.1,2.4-2.1,2.4   s3.3,8.2,12.2,8.2s12.9-8,12.9-8s-2-1.2-2.9-1.5c-0.1-0.4,1.7-1,3.2-2c2.5-1.9,3.8-4.4,4.4-7c0.4-1.4,0.6-2.7,0.8-3.9   c1.5-0.8,1.8-1.8,1.5-3.2c-0.2-0.8-1-1.2-1-1.2s0.1-3.9,0-5.4c0,0-2.8,0.8-5.8,1.2c-3.6,0.5-8.4,0.6-13.8,0.6s-7.6-0.4-7.6-0.4   L74.3,28.5z"/>
	<path class="st5" d="M93.4,22.9c-1.3,0.1-1.4,2.2-0.8,3.4c0.2,0.4,0.8-0.3,1.4-0.4s1.2,0.3,1.2,0.2C95.4,24.7,94.7,22.8,93.4,22.9z   "/>
	<path class="st5" d="M106.5,21.8c-1.1-0.2-1.1,1.1-1.1,2c0,0.2,0.1,1,0.2,1.2l1.8,0.2c0-0.1,0.1-0.7,0.1-0.7   C107.6,23.4,107.3,22,106.5,21.8z"/>
	<path class="st6" d="M108.6,25.8c-1.6-0.6-3.6-0.5-3.6-0.5"/>
	<path class="st7" d="M95.9,34c0,0,3.3,3.3,7.1,2c1.7-0.6,2.3-3.1,2.3-3.1s-1.4,0.3-2.8,0.7C101.2,34,95.9,34,95.9,34z"/>
	<path class="st8" d="M95.3,25.8c0,0-2.1-0.1-3.2,1"/>
	<polygon class="st9" points="84.1,77.6 87.6,77.6 77.3,44.4 75.9,45.4  "/>
	<path class="st9" d="M101.5,44.2l-25.7,42c0,0,6.6,0,14.2,0s14.1,0,14.1,0V45.6"/>
</g>
<g>
	<path class="st10" d="M177.1,25.9c0,14.3-10.3,25.9-23.1,25.9S131,40.3,131,25.9S141.3,0,154,0S177.1,11.6,177.1,25.9"/>
	<path class="st10" d="M131,25.9c0,12.2-6.3,19.2-6.3,19.2s6.2,7.6,29.4,7.6s-0.7-26.9-0.7-26.9H131z"/>
	<path class="st10" d="M177.2,25.9c0,12.2,6.3,19.2,6.3,19.2s-6.2,7.6-29.4,7.6s0.7-26.9,0.7-26.9H177.2z"/>
	<path class="st11" d="M140.9,45.7c-4.9,3.7-10.6,10.4-10.6,16.7v24.3c0,0,32.1,0,42.6,0c10.5,0,7.5-24.3,7.5-24.3   c0-6.3-5.8-12.9-10.9-16.6c-2.4-1.8-9.1-4.7-15.1-4.7C149.6,41,145.9,41.9,140.9,45.7z"/>
	<path class="st4" d="M160.9,42.4c-0.8,0-6.8,2.5-6.8,2.5s-7-2-7.5-2.1c-0.5-0.1-5,2.4-5,2.4c1,1.4,11.6,19,11.6,19h1.8   c0,0,10.9-17.8,11.8-19.2C166.8,45,161.7,42.4,160.9,42.4"/>
	<path class="st4" d="M160.9,42.3c-0.8,0-6.8,2.6-6.8,2.6s-7-2-7.6-2.1c-0.5-0.1-5,2.4-5,2.4c1,1.4,11.7,19.1,11.7,19.1h1.8   c0,0,10.9-17.9,11.9-19.3C166.9,44.9,161.7,42.3,160.9,42.3"/>
	<path class="st4" d="M173,29.1C173,29.1,172.9,29.1,173,29.1C172.9,29.1,172.9,29.1,173,29.1c-1.2-0.9-3-0.3-3-0.3l0,0   c-0.1-0.2-3.5-7.7-6.1-15.3c-8.2,6.5-24.8,3.7-28.2,7.2c0,0.3,0,0.7,0,1.2c0,0.9,0,4.3,0,4.3s-0.9,0.3-1,1.2   c-0.3,1.4,0.1,2.4,1.5,3.3c0.1,0.3,0.1,0.7,0.2,1.1c0.5,3.6,1.6,7.3,5,9.9c1.4,1.1,3.3,1.6,3.2,2.1c-0.9,0.3-3,1.5-3,1.5   s4.1,8.1,13,8.1c0,0,0,0,0,0l0,0c8.9,0,12.3-8.3,12.3-8.3s-2.3-1.5-2.1-2.5c0.2-1,3.9-5.9,3.9-5.9s2.8-1.1,4.3-2.4   C174.5,32.8,174.2,29.9,173,29.1z"/>
	<path class="st5" d="M154.4,22.4c1.4,0.1,1.4,2.2,0.8,3.4c-0.6,1.2-1.9,1.8-2.5,0.6S152.8,22.2,154.4,22.4z"/>
	<path class="st12" d="M145.6,35.2c0,0-1.8,1.6-3.6,0.9c-1.6-0.6-1.4-2.2-1.4-2.2"/>
	<path class="st5" d="M137.9,22c1.1-0.2,1.1,1.1,1.1,2c0,0.2-0.1,1-0.2,1.3c0,0-1.8,0.2-1.8,0.2c0-0.1-0.1-0.7-0.1-0.7   C136.8,23.6,137.1,22.1,137.9,22z"/>
	<path class="st13" d="M135.7,25.9c1.7-0.6,3.7-0.5,3.7-0.5"/>
	<path class="st14" d="M175.8,75.2h-14.3c-0.7,0-1.4-0.6-1.4-1.4v-7.5c0-0.7,0.6-1.4,1.4-1.4h14.3c0.7,0,1.4,0.6,1.4,1.4v7.5   C177.1,74.6,176.5,75.2,175.8,75.2z"/>
	<g>
		<g>
			<path class="st9" d="M172.5,70.3c0,2.1-1.7,3.7-3.7,3.7c-2.1,0-3.7-1.7-3.7-3.7c0-2.1,1.7-3.7,3.7-3.7     C170.8,66.6,172.5,68.2,172.5,70.3"/>
		</g>
		<polygon class="st9" points="163.9,71.9 163.2,71.9 164,70 164.7,70   "/>
		<polygon class="st9" points="173.1,71.9 172.6,71.9 173.4,70 173.9,70   "/>
		<polygon class="st9" points="174.3,71.9 174.1,71.9 174.9,70 175.1,70   "/>
		<path class="st15" d="M165.9,71.9h0.6c0,0,0.1,0,0.1-0.1v-1.8c0,0,0-0.1-0.1-0.1h-0.6c0,0-0.1,0-0.1,0.1l-0.2,0.6c0,0,0,0.1,0,0.1    h0.2c0,0,0,0,0,0L165.9,71.9C165.9,71.9,165.9,71.9,165.9,71.9"/>
		<path class="st15" d="M167.2,71.9h0.6c0,0,0.1,0,0.1-0.1v-1.8c0,0,0-0.1-0.1-0.1h-0.9c0,0-0.1,0-0.1,0.1l-0.2,0.6l-0.1,0.1h0.5    c0.1,0,0.2,0.1,0.2,0.2L167.2,71.9C167.1,71.9,167.1,71.9,167.2,71.9"/>
		<path class="st15" d="M169.7,70.1h-0.6c0,0-0.1,0-0.1,0.1v1.8c0,0,0,0.1,0.1,0.1h0.6c0,0,0.1,0,0.1-0.1l0.2-0.6c0,0,0-0.1,0-0.1    h-0.2c0,0,0,0,0,0L169.7,70.1C169.8,70.1,169.8,70.1,169.7,70.1"/>
		<path class="st15" d="M167.4,71.9h0.4c0,0,0.1,0,0.1-0.1l0.2-0.6c0,0,0-0.1,0-0.1h-0.2L167.4,71.9z"/>
		<path class="st15" d="M171.3,70.1h0.7c0,0,0.1,0,0,0.1l-0.7,1.8c0,0,0,0,0,0h-0.6L171.3,70.1C171.2,70.1,171.2,70.1,171.3,70.1"/>
		<path class="st15" d="M170.4,70.1h-1c-0.1,0,0.3,0.1,0.3,0.1l0.7,1.7c0,0,0,0.1,0.1,0.1h0.6L170.4,70.1    C170.5,70.1,170.4,70.1,170.4,70.1"/>
		<path class="st15" d="M168.6,70.1c0.3,0,0.6,0.2,0.6,0.6c0,0.4,0,0.4,0,0.4s-0.1-0.4-0.3-0.4c-0.3,0-0.3,0.2-0.3,0.3    c0,0.1,0.1,0.3,0.2,0.3h0.5l-0.3,0.7c0,0,0,0-0.1,0h-0.2c-0.2,0-0.9-0.3-0.9-0.9C167.7,70.4,168.2,70.1,168.6,70.1"/>
	</g>
	<path class="st16" d="M169.6,66.1H168c-0.1,0-0.2-0.1-0.2-0.2v-0.2c0-0.1,0.1-0.2,0.2-0.2h1.5c0.1,0,0.2,0.1,0.2,0.2v0.2   C169.8,66,169.7,66.1,169.6,66.1z"/>
	<rect x="168.3" y="63" class="st17" width="0.9" height="2.7"/>
</g>
<rect x="0" y="85.8" class="st18" width="244.3" height="4.5"/>
</svg>