<svg xmlns="http://www.w3.org/2000/svg" xmlns:xlink="http://www.w3.org/1999/xlink" version="1.1" id="Layer_1" x="0px" y="0px" width="214.3px" height="95.8px" viewBox="0 0 214.3 95.8" style="enable-background:new 0 0 214.3 95.8;" xml:space="preserve">
<style type="text/css">
	.st0{fill:#538190;}
	.st1{fill:#36363A;}
	.st2{fill:#759DAC;}
	.st3{fill:#12506D;}
	.st4{fill:#EDEAE8;}
	.st5{fill:#3D3A3C;}
	.st6{fill:#D2CFCD;}
	.st7{fill:none;stroke:#C3B09B;stroke-width:0.8788;stroke-miterlimit:10;}
	.st8{fill:#6EA9C8;}
	.st9{fill:#EDEAE8;stroke:#CBBBA0;stroke-width:0.4398;stroke-linecap:round;stroke-miterlimit:10;}
	.st10{fill:#595B5C;}
	.st11{fill:#9EAB37;}
	.st12{fill:#CBBBA0;}
	.st13{fill:none;stroke:#CBBBA0;stroke-width:0.4412;stroke-linecap:round;stroke-miterlimit:10;}
	.st14{fill:#FFFFFF;}
	.st15{fill:none;stroke:#FFFFFF;stroke-width:0.8823;stroke-miterlimit:10;}
	.st16{fill:#E5E4E1;}
	.st17{fill:none;stroke:#C3B09B;stroke-width:0.8823;stroke-miterlimit:10;}
	.st18{fill:#BCCECF;}
	.st19{fill:#6F9BA9;}
	.st20{fill:#E5E4E1;stroke:#36363A;stroke-width:0.4447;stroke-linecap:round;stroke-miterlimit:10;}
	.st21{fill:#E57E65;}
	.st22{fill:#581F56;}
	.st23{fill:none;stroke:#C3B09B;stroke-width:0.8964;stroke-miterlimit:10;}
	.st24{fill:none;stroke:#E57E65;stroke-width:0.4482;stroke-linecap:round;stroke-miterlimit:10;}
	.st25{fill:#D2232A;}
	.st26{fill:#C42229;}
	.st27{fill:#5B2052;}
	.st28{fill:#86497E;}
</style>
<g>
	<g>
		<path class="st0" d="M69.6,38.3H77h7.4c4,0,15.3,9.1,15.3,17.4c0,0,2.7,21.8-6.8,21.8s-38.2,0-38.2,0V55.7    C54.7,47.4,65.6,38.3,69.6,38.3"/>
		<g>
			<g>
				<path class="st1" d="M94.6,21.1c-0.9,6-8.9,9.2-17.7,9.2c-8.7,0-16.8-4.8-17.6-9.2c-1-5.7-0.2-8.8,2.6-12.6c3.6-4.9,9-8,15-8      c6,0,11.5,3.2,15.2,8.1C94.9,12.5,95.5,14.4,94.6,21.1"/>
				<g id="NAV-ansatt_9_">
					<path class="st2" d="M81.8,52h9.5v5.3c0,0-3.7,4.1-4.7,4.1s-4.7-4.1-4.7-4.1V52z"/>
					<path class="st3" d="M82.8,38.4l-5.9,2.2l-6.5-1.8l-2.6,1.1c0.8,1.2,5.4,4.1,7.8,4.1L75,44v3.4l0.8,0.5l-3,12.8l4.1,5.6       l0.1,0.1l4.1-5.7l-3-12.8l0.8-0.5V44l-0.6,0c2.4,0,7.1-2.9,7.9-4.1L82.8,38.4z"/>
					<path class="st4" d="M92.5,27.8h0.8c0.7,0,1.3-0.6,1.3-1.3v-5.3c0-0.7-0.6-1.3-1.3-1.3h0c-0.7,0-1.3,0.6-1.3,1.3v6.1       C92,27.5,92.2,27.8,92.5,27.8"/>
					<path class="st4" d="M61.4,27.8h-0.8c-0.7,0-1.3-0.6-1.3-1.3v-5.3c0-0.7,0.6-1.3,1.3-1.3l0,0c0.7,0,1.3,0.6,1.3,1.3v6.1       C61.9,27.5,61.7,27.8,61.4,27.8"/>
					<path class="st4" d="M93,22.8c0,10.4-7.2,18.8-16.1,18.8c-8.9,0-16.1-8.4-16.1-18.8c0-10.4,7.2-18.8,16.1-18.8       C85.8,4.1,93,12.5,93,22.8"/>
					<path class="st5" d="M92,21.8c1.3,0.3,0.9-0.6,0.9-2C92.9,9.4,85.7,1,76.8,1c-8.9,0-16.1,8.4-16.1,18.8c0,1.4,0.1,2.7,0.4,4       c0,0,4.5-4,5.6-5.7c1.4-2.2,2.8-6.8,2.8-6.8C70,11.3,76.2,17.7,92,21.8"/>
					<path class="st6" d="M83.1,31.5c0,0-1.6-1.6-6.3-1.6c-4.7,0-6.7,1.8-6.7,1.8h-7.5c2.7,5.9,8,10,14.2,10       c6.2,0,11.6-4.1,14.3-10.1H83.1z"/>
				</g>
			</g>
			<path class="st7" d="M72.1,32.9c0,0,1.7,2,4.7,2s4.8-2,4.8-2"/>
			<path class="st8" d="M69.7,20.7c-1.2-0.1-1.5,1.7-1.1,2.8c0.1,0.3,0.2,0.5,0.3,0.7c0.2,0,0.4-0.1,0.7-0.1c0.3,0,0.9,0,1.3,0.2     c0.1-0.1,0.2-1.3,0.1-1.9C70.9,21.6,70.5,20.7,69.7,20.7z"/>
			<path class="st8" d="M83.9,20.7c1.2-0.1,1.5,1.7,1.1,2.8c-0.1,0.3-0.2,0.5-0.3,0.7c-0.2,0-0.4-0.1-0.7-0.1c-0.3,0-0.9,0-1.3,0.2     c-0.1-0.1-0.2-1.3-0.1-1.9C82.8,21.6,83.2,20.7,83.9,20.7z"/>
			<path class="st9" d="M78.1,25c0.7-0.1,1.4-0.1,1.7,0.3c0.8,1,0.6,2.1-0.8,2.9c-0.7,0.4-1.6,0.6-2.1,0.3"/>
		</g>
	</g>
	<path class="st10" d="M212.6,79.7H13.8v-3.5h198.7c1,0,1.8,0.8,1.8,1.8v0C214.3,78.9,213.5,79.7,212.6,79.7z"/>
	<g>
		<path class="st11" d="M29.8,52.7h-7.3h-7.3c-3.9,0-14.9,8.9-14.9,17c0,0-2.6,21.3,6.6,21.3s37.3,0,37.3,0V69.8    C44.3,61.7,33.7,52.7,29.8,52.7"/>
		<g>
			<path class="st12" d="M42,38c0,12.1-9,21.7-19.8,21.7c-10.8,0-19.5-9.8-19.5-22c0-12.1,8.8-22,19.5-22C33,15.8,42,25.9,42,38"/>
			<line class="st13" x1="38.9" y1="37" x2="35.6" y2="37.3"/>
			<path class="st14" d="M14.6,59.8c6.1,3.8,14.8,4.8,17.9,2c3.6-3.3,4.7-8,4.7-8s-0.4,10.4-9.5,11.3c-8.2,0.8-15.8-3.4-15.8-3.4     L14.6,59.8z"/>
			<path class="st12" d="M2.7,38v30.7c0,0-0.1-8.1,19.5-8.1C41.8,60.7,35.6,38,35.6,38H2.7z"/>
			<g>
				<path class="st15" d="M27.1,63.7C18.8,59.7,25.9,54.2,27.1,63.7"/>
				<path class="st15" d="M27.1,63.7C35.5,59.7,28.4,54.2,27.1,63.7"/>
				<path class="st15" d="M27.2,63.5c-0.2,1.8-1.3,4.7-2,5.7"/>
				<path class="st15" d="M27.5,63.7c0.2,1.8,1.3,4.7,2,5.7"/>
			</g>
		</g>
	</g>
	<g>
		<g>
			<g>
				<path class="st1" d="M148.9,42.5c0,12.6-9.1,22.8-20.3,22.8s-20.3-10.2-20.3-22.8s9.1-22.8,20.3-22.8S148.9,29.9,148.9,42.5"/>
			</g>
		</g>
		<path class="st1" d="M109,40.5c0,10.5-0.1,23.1,19.8,23.1s-0.6-23.1-0.6-23.1H109z"/>
		<path class="st1" d="M148.6,40.5c0,10.5,0.1,23.1-19.8,23.1s0.6-23.1,0.6-23.1H148.6z"/>
		<path class="st16" d="M113,46.4c0.4,3.5,1.1,7.3,4.6,9.8c1.3,0.9,4.7,3.8,11.7,3.8c5.6,0,8.6-2.2,8.8-3c0.2-0.9,3.4-5.2,3.4-5.2    s-2.2-3.6-0.9-4.8c1.3-1.2,1.1-3.7,0-4.4s-2.6-0.2-2.6-0.2s-12.9-3.5-12.3-12.5c-3.3,3.6-9.4,1.7-11.7,5.3c-0.1,0.2-1.9,2-1.4,6.7    C113,46.4,112.6,44.1,113,46.4z"/>
		<path class="st4" d="M111.7,41.8"/>
		<path class="st4" d="M110.2,43.5"/>
		<path class="st1" d="M117.4,33.7c-1.3,0-2.4,2.1-2.6,4.8h-1.2c-0.2-2.7-1.3-4.8-2.6-4.8c-1.5,0-2.6,2.5-2.6,5.5    c0,3,1.2,5.5,2.6,5.5c1.3,0,2.4-2.1,2.6-4.8h1.2c0.2,2.7,1.3,4.8,2.6,4.8c1.5,0,2.6-2.5,2.6-5.5C120.1,36.1,118.9,33.7,117.4,33.7    z M111,43.3c-1.1,0-1.7-1.9-1.7-4.1c0-2.3,0.6-4.1,1.7-4.1c1.1,0,1.8,1.9,1.8,4.1C112.8,41.4,112.1,43.3,111,43.3z M117.4,43.3    c-1.1,0-1.8-1.9-1.8-4.1c0-2.3,0.7-4.1,1.8-4.1c1.1,0,1.6,1.9,1.6,4.1C119.1,41.4,118.5,43.3,117.4,43.3z"/>
		<path class="st17" d="M119.1,49.7c0,0-1.1,1.8-2.7,1.7c-1.4-0.1-1.7-1.5-1.7-1.5"/>
		<circle class="st1" cx="147.8" cy="55.8" r="2.9"/>
		<polygon class="st1" points="141.4,51.9 135.7,55.4 140.8,59.2 143.7,54.5   "/>
		<path class="st18" d="M129.2,55.9"/>
		<path class="st18" d="M117.2,60c-4.3,3.3-9.2,9.1-9.2,14.6v21.3c0,0,28,0,37.3,0s6.6-21.3,6.6-21.3c0-5.5-5-11.3-9.5-14.5    c-2.1-1.5-8-4.1-13.2-4.1C124.8,55.9,121.6,56.7,117.2,60z"/>
		<path class="st19" d="M125.5,55.9c0,0,5-1.7,11.3-1.2c-0.7,1.8-2.5,1.9-2.5,1.9s-1.7-0.8-5.2-0.7c-3.6,0.1-5.4,0.8-5.4,0.8    L125.5,55.9z"/>
		<circle class="st1" cx="142.8" cy="59.2" r="6"/>
		<circle class="st1" cx="139" cy="53.2" r="6"/>
		<circle class="st1" cx="135.7" cy="58.6" r="2.9"/>
		<ellipse class="st16" cx="111" cy="39.2" rx="1.7" ry="4.1"/>
		<ellipse class="st16" cx="117.4" cy="39.2" rx="1.7" ry="4.1"/>
		<path class="st20" d="M112.7,44.7c-1-0.4-1.6-1-1.9-1.6c-0.5-0.9,0-2.4,1.4-2.7c1.2-0.3,2.4-0.1,2.4-0.1"/>
	</g>
	<g>
		<path class="st21" d="M162.8,22.8c0,10.8-5.6,16.9-5.6,16.9s5.5,6.7,25.9,6.7s-0.6-23.7-0.6-23.7H162.8z"/>
		<path class="st21" d="M203.5,22.8c0,10.8,5.6,16.9,5.6,16.9s-5.5,6.7-25.9,6.7s0.6-23.7,0.6-23.7H203.5z"/>
		<path class="st21" d="M203.4,22.8c0,12.6-9.1,22.8-20.3,22.8s-20.3-10.2-20.3-22.8S171.9,0,183.1,0S203.4,10.2,203.4,22.8"/>
		<path class="st22" d="M176.3,37.8h7.3h7.3c3.9,0,14.9,8.9,14.9,17c0,0,2.6,21.3-6.6,21.3c-9.2,0-37.3,0-37.3,0V54.8    C161.8,46.7,172.4,37.8,176.3,37.8"/>
		<path class="st4" d="M189.1,37.3c-0.7,0-5.9,2.2-5.9,2.2s-6.1-1.7-6.6-1.8c-0.5-0.1-4.4,2.1-4.4,2.1c0.9,1.3,10.2,16.7,10.2,16.7    h1.5c0,0,9.5-15.6,10.4-16.9C194.3,39.6,189.9,37.3,189.1,37.3"/>
		<g>
			<path class="st4" d="M189.2,37.2c-0.7,0-6,2.2-6,2.2s-6.2-1.8-6.7-1.9c-0.5-0.1-4.4,2.1-4.4,2.1c0.9,1.3,10.3,16.8,10.3,16.8h1.6     c0,0,9.6-15.7,10.5-17C194.4,39.5,189.9,37.2,189.2,37.2"/>
			<path class="st4" d="M199.8,25.6C199.7,25.6,199.7,25.6,199.8,25.6C199.7,25.6,199.7,25.6,199.8,25.6c-1.1-0.8-2.6-0.3-2.7-0.3     l0,0c-0.1-0.2-3.1-6.8-5.4-13.5c-7.2,5.7-21.8,3.3-24.8,6.4c0,0.2,0,0.6,0,1c0,0.8,0,3.8,0,3.8s-0.8,0.3-0.9,1     c-0.3,1.2,0,2.2,1.4,2.9c0,0.3,0.1,0.6,0.2,0.9c0.5,3.2,1.4,6.4,4.4,8.7c1.3,0.9,2.9,1.4,2.8,1.8c-0.8,0.2-2.6,1.3-2.6,1.3     s3.6,7.2,11.5,7.2c0,0,0,0,0,0l0,0c7.9,0,10.8-7.3,10.8-7.3s-2-1.3-1.9-2.2c0.2-0.9,3.4-5.2,3.4-5.2s2.4-0.9,3.8-2.1     C201.1,28.9,200.8,26.3,199.8,25.6z"/>
			<path class="st8" d="M183.4,19.7c1.2,0.1,1.2,1.9,0.7,3c-0.5,1.1-1.7,1.6-2.2,0.5S182,19.6,183.4,19.7z"/>
			<path class="st23" d="M175.7,31c0,0-1.6,1.4-3.1,0.8c-1.4-0.5-1.2-2-1.2-2"/>
			<path class="st8" d="M168.9,19.4c0.9-0.2,1,1,1,1.8c0,0.2-0.1,0.9-0.2,1.1c0,0-1.6,0.2-1.6,0.1c0-0.1-0.1-0.7-0.1-0.7     C168,20.8,168.2,19.5,168.9,19.4z"/>
			<path class="st24" d="M167,22.8c1.5-0.5,3.2-0.4,3.2-0.4"/>
		</g>
		<g>
			<path class="st25" d="M200.5,66.4h-12.2c-0.7,0-1.4-0.6-1.4-1.4v-6.3c0-0.7,0.6-1.4,1.4-1.4h12.2c0.7,0,1.4,0.6,1.4,1.4V65     C201.9,65.8,201.2,66.4,200.5,66.4z"/>
			<g>
				<g>
					<path class="st14" d="M197.8,62.1c0,1.8-1.5,3.3-3.3,3.3c-1.8,0-3.3-1.5-3.3-3.3c0-1.8,1.5-3.3,3.3-3.3       C196.3,58.8,197.8,60.3,197.8,62.1"/>
				</g>
				<polygon class="st14" points="190.3,63.5 189.7,63.5 190.3,61.8 191,61.8     "/>
				<polygon class="st14" points="198.3,63.5 197.9,63.5 198.6,61.8 199,61.8     "/>
				<polygon class="st14" points="199.4,63.5 199.2,63.5 199.9,61.8 200.1,61.8     "/>
				<path class="st26" d="M192.1,63.5h0.5c0,0,0,0,0,0v-1.6c0,0,0,0,0,0H192c0,0-0.1,0-0.1,0.1l-0.2,0.5c0,0,0,0.1,0,0.1h0.1      c0,0,0,0,0,0L192.1,63.5C192,63.5,192,63.5,192.1,63.5"/>
				<path class="st26" d="M193.1,63.5h0.5c0,0,0,0,0,0v-1.6c0,0,0,0,0,0h-0.8c0,0-0.1,0-0.1,0.1l-0.2,0.5l-0.1,0.1h0.4      c0.1,0,0.2,0.1,0.2,0.2L193.1,63.5C193.1,63.5,193.1,63.5,193.1,63.5"/>
				<path class="st26" d="M195.4,61.8h-0.5c0,0,0,0,0,0v1.6c0,0,0,0,0,0h0.5c0,0,0.1,0,0.1-0.1l0.2-0.5c0,0,0-0.1,0-0.1h-0.1      c0,0,0,0,0,0L195.4,61.8C195.4,61.9,195.4,61.8,195.4,61.8"/>
				<path class="st26" d="M193.3,63.5h0.3c0,0,0.1,0,0.1-0.1l0.2-0.5c0,0,0-0.1,0-0.1h-0.1L193.3,63.5z"/>
				<path class="st26" d="M196.7,61.8h0.6c0,0,0,0,0,0.1l-0.6,1.6c0,0,0,0,0,0h-0.5L196.7,61.8C196.7,61.9,196.7,61.8,196.7,61.8"/>
				<path class="st26" d="M196,61.8h-0.8c-0.1,0,0.2,0.1,0.3,0.1l0.6,1.5c0,0,0,0.1,0.1,0.1h0.5L196,61.8      C196,61.9,196,61.8,196,61.8"/>
				<path class="st26" d="M194.4,61.8c0.3,0,0.5,0.2,0.5,0.5c0,0.3,0,0.4,0,0.4s0-0.3-0.3-0.3c-0.2,0-0.3,0.1-0.3,0.2      c0,0.1,0.1,0.2,0.2,0.2h0.4l-0.3,0.6c0,0,0,0,0,0h-0.2c-0.2,0-0.8-0.3-0.8-0.8C193.6,62.2,194,61.8,194.4,61.8"/>
			</g>
			<path class="st27" d="M195.2,58.4h-1.3c-0.1,0-0.2-0.1-0.2-0.2V58c0-0.1,0.1-0.2,0.2-0.2h1.3c0.1,0,0.2,0.1,0.2,0.2v0.1     C195.4,58.3,195.3,58.4,195.2,58.4z"/>
			<rect x="194.2" y="55.7" class="st28" width="0.8" height="2.4"/>
		</g>
	</g>
</g>
</svg>