<svg xmlns="http://www.w3.org/2000/svg" xmlns:xlink="http://www.w3.org/1999/xlink" version="1.1" id="Layer_1" x="0px" y="0px" width="244.3px" height="90.7px" viewBox="0 0 244.3 90.7" style="enable-background:new 0 0 244.3 90.7;" xml:space="preserve">
<style type="text/css">
	.st0{fill:none;stroke:#8E9294;stroke-width:1.2146;stroke-miterlimit:10;}
	.st1{fill:#8E9294;}
	.st2{fill:#505557;}
	.st3{fill:#EDEAE8;}
	.st4{fill:#36363A;}
	.st5{fill:#52808D;}
	.st6{fill:#11536E;}
	.st7{fill:#E5E4E1;}
	.st8{fill:#6EA9C8;}
	.st9{fill:none;stroke:#C3B09B;stroke-width:1.3955;stroke-miterlimit:10;}
	.st10{fill:#E5E4E1;stroke:#36363A;stroke-width:0.6891;stroke-linecap:round;stroke-miterlimit:10;}
	.st11{fill:#CBBBA0;}
	.st12{fill:#9EAB37;}
	.st13{fill:none;stroke:#CBBBA0;stroke-width:0.6847;stroke-linecap:round;stroke-miterlimit:10;}
	.st14{fill:#FFFFFF;stroke:#C3B09B;stroke-width:1.4814;stroke-miterlimit:10;}
	.st15{fill:#EDEAE8;stroke:#CBBBA0;stroke-width:0.7623;stroke-linecap:round;stroke-miterlimit:10;}
	.st16{fill:#FFFFFF;}
</style>
<g>
	<g>
		<path class="st0" d="M89.1,35c-0.6,6.3,3.6,15.8,13,18.5"/>
		<g>
			<polygon class="st1" points="99.2,54.8 101.7,53.3 100.2,50.8 101.9,51.3 103.4,53.8 100.9,55.3    "/>
		</g>
	</g>
</g>
<rect x="0" y="86.2" class="st2" width="244.3" height="4.5"/>
<g>
	<g>
		<g>
			<path class="st3" d="M173.3,25.5"/>
			<path class="st3" d="M175,27.5"/>
			<g>
				<g>
					<path class="st4" d="M130.3,26.3c0,9.8,0.7,13.6,5,20.8c3.4-1.8,11.2-2.3,18.4-1.9c8.1,0.5,17.2,0.5,20.2,2.3       c2.9-8.6,3.2-17.8,3.2-21.3c0-14.5-10.5-26.3-23.4-26.3C140.8,0,130.3,11.8,130.3,26.3"/>
				</g>
			</g>
		</g>
		<path class="st5" d="M146.2,43.9h8.1h8.1c4.4,0,16.6,9.9,16.6,18.9c0,0,2.9,23.8-7.4,23.8c-10.3,0-41.6,0-41.6,0V62.9    C130,53.9,141.8,43.9,146.2,43.9"/>
		<polygon class="st6" points="146.1,45.5 144.9,45.2 145.2,57.7 147.6,57.7 151.1,49.6 155,47.5   "/>
		<path class="st7" d="M168.1,29.1c0,0,1.8-0.6,3,0.3c1.2,0.9,1.5,3.8,0,5.1c-1.5,1.3-4.3,2.4-4.3,2.4s-3.7,5-3.9,6    c-0.2,1-1.3,3.3-10.3,3.3c-9,0-11.9-3.2-13.4-4.3c-2.6-1.9-3.8-4.4-4.5-7.1c-0.4-1.4-0.6-2.8-0.8-3.9c-1.5-0.8-1.9-1.9-1.5-3.3    c0.2-0.8,1-1.2,1-1.2s0-2.9,0.2-4.4c0,0,2.7-0.3,5.7,0.1c3.7,0.5,8.6,0.6,14.1,0.6s7.7-0.4,7.7-0.4L168.1,29.1z"/>
		<path class="st3" d="M151.6,19.2"/>
		<path class="st7" d="M139.5,41.6c1.4,1.1,5.4,4.4,13.3,4.4c6.3,0,9.8-2.5,10-3.4c0.2-1,3.8-5.9,3.8-5.9s2.7-1.1,4.3-2.4    c1.5-1.3,1.2-4.2,0-5c-1.2-0.9-3-0.3-3-0.3s-9.4-9.7-12-17.3c-10,9-18,1.9-20.6,6c-0.4,0.5-2.2,3.2-1.7,8.4    C134.2,31.3,135.6,38.8,139.5,41.6z"/>
		<path class="st8" d="M135.2,22.3c1.1-0.2,1.1,1.1,1.1,2c0,0.2-0.1,1-0.2,1.3c0,0-1.8,0.2-1.8,0.2s-0.1-0.7-0.1-0.7    C134.2,23.9,134.5,22.4,135.2,22.3z"/>
		<g>
			<path class="st8" d="M148.7,23.4c1.4,0.1,1.4,2.2,0.8,3.5c-0.6,1.3-1.9,1.8-2.5,0.6C146.3,26.1,147,23.3,148.7,23.4z"/>
			<path class="st9" d="M142.8,34.2c0,0-1.8,1.6-3.6,0.9c-1.6-0.6-1.4-2.2-1.4-2.2"/>
		</g>
		<path class="st10" d="M133.1,26.4c1.7-0.6,3.7-0.5,3.7-0.5"/>
		<polygon class="st7" points="146.1,45.5 146.7,55.4 150.5,46.2 151.4,42.7   "/>
		<path class="st6" d="M150.5,46.2l1.4,7.4c0,0,2.4-1.8,4.8-3.4c3.2-2.2,6.2-4.9,6.9-6.1c-0.3-0.4-0.9-0.8-0.9-0.8s-3.7,0.4-6.6,1.1    C153.3,45.2,150.5,46.2,150.5,46.2z"/>
	</g>
	<g>
		<path class="st11" d="M67.1,26v35.1c0,0-0.1-9.2,22.3-9.2c22.4,0-0.6-25.9-0.6-25.9H67.1z"/>
		<path class="st12" d="M98.2,43.2H90h-8.2c-4.4,0-16.9,10.1-16.9,19.3c0,0-3,24.2,7.5,24.2s42.3,0,42.3,0V62.5    C114.6,53.3,102.6,43.2,98.2,43.2"/>
		<path class="st11" d="M112,26c0,13.9-10.3,24.8-22.6,24.8c-12.3,0-22.3-11.2-22.3-25.1c0-13.9,10-25.1,22.3-25.1    C101.7,0.6,112,12.2,112,26"/>
		<path class="st3" d="M74.3,28.9c0,0-1.8-0.6-3,0.3s-1.5,3.7,0,5c1.5,1.3,4.2,2.4,4.2,2.4s3.6,4.9,3.8,5.9c0.2,1-2.1,2.4-2.1,2.4    s3.3,8.2,12.2,8.2s12.9-8,12.9-8s-2-1.2-2.9-1.5c-0.1-0.4,1.7-1,3.2-2c2.5-1.9,3.8-4.4,4.4-7c0.4-1.4,0.6-2.7,0.8-3.9    c1.5-0.8,1.8-1.8,1.5-3.2c-0.2-0.8-1-1.2-1-1.2s0.1-3.9,0-5.4c0,0-2.8,0.8-5.8,1.2c-3.6,0.5-8.4,0.6-13.8,0.6    c-5.4,0-7.6-0.4-7.6-0.4L74.3,28.9z"/>
		<path class="st8" d="M93.4,23.3c-1.3,0.1-1.4,2.2-0.8,3.4c0.2,0.4,0.8-0.3,1.4-0.4c0.6-0.1,1.2,0.3,1.2,0.2    C95.4,25.1,94.7,23.2,93.4,23.3z"/>
		<path class="st8" d="M106.5,22.2c-1.1-0.2-1.1,1.1-1.1,2c0,0.2,0.1,1,0.2,1.2c0,0,1.8,0.2,1.8,0.2c0-0.1,0.1-0.7,0.1-0.7    C107.6,23.8,107.3,22.4,106.5,22.2z"/>
		<path class="st13" d="M108.6,26.2c-1.6-0.6-3.6-0.5-3.6-0.5"/>
		<path class="st14" d="M95.9,34.4c0,0,3.3,3.3,7.1,2c1.7-0.6,2.3-3.1,2.3-3.1s-1.4,0.3-2.8,0.7C101.2,34.4,95.9,34.4,95.9,34.4z"/>
		<path class="st15" d="M95.3,26.2c0,0-2.1-0.1-3.2,1"/>
		<polygon class="st16" points="84.1,78 87.6,78 77.3,44.8 75.9,45.8   "/>
		<path class="st16" d="M101.5,44.6l-25.7,42c0,0,6.6,0,14.2,0s14.1,0,14.1,0V46"/>
	</g>
</g>
</svg>