<svg xmlns="http://www.w3.org/2000/svg" xmlns:xlink="http://www.w3.org/1999/xlink" version="1.1" id="Layer_1" x="0px" y="0px" viewBox="0 0 24 24" style="enable-background:new 0 0 24 24;" xml:space="preserve">
<style type="text/css">
	.st0{fill:none;stroke:#000000;stroke-linecap:round;stroke-linejoin:round;}
</style>
<title>38417BD0-31A6-49FB-90A1-CC42113A1237</title>
<desc>Created with sketchtool.</desc>
<g id="Siste-tidslinje---aktivitetskrav">
	<g id="Aktivitetskrav-åpen" transform="translate(-212.000000, -539.000000)">
		<g id="sykemelding" transform="translate(212.000000, 539.000000)">
			<g id="Group" transform="translate(9.000000, 9.000000)">
				<path id="Stroke-7122" class="st0" d="M1.1-6c-2-2-5.2-2-7.1,0c-2,2-2,5.2,0,7.1l11,11c2,2,5.2,2,7.1,0c2-2,2-5.2,0-7.1L1.1-6      L1.1-6z"/>
				<polygon id="Stroke-7123" class="st0" points="8.9,1.7 1.7,8.9 -2.8,4.3 4.3,-2.8     "/>
				<path id="Fill-7124" d="M-5-1.1c-0.1,0-0.3,0-0.4,0.1c-0.2,0.2-0.2,0.5,0,0.7C-5.2-0.1-5.1-0.1-5-0.1s0.3,0,0.4-0.1      c0.2-0.2,0.2-0.5,0-0.7C-4.7-1-4.8-1.1-5-1.1"/>
				<path id="Fill-7125" d="M-2.9-3.2c-0.1,0-0.3,0-0.4,0.1c-0.2,0.2-0.2,0.5,0,0.7C-3.1-2.2-3-2.2-2.9-2.2c0.1,0,0.3,0,0.4-0.1      c0.2-0.2,0.2-0.5,0-0.7C-2.6-3.2-2.7-3.2-2.9-3.2"/>
				<path id="Fill-7126" d="M-5.3-3.6c-0.1,0-0.3,0-0.4,0.1c-0.2,0.2-0.2,0.5,0,0.7c0.1,0.1,0.2,0.1,0.4,0.1s0.3,0,0.4-0.1      c0.2-0.2,0.2-0.5,0-0.7C-5.1-3.5-5.2-3.6-5.3-3.6"/>
				<path id="Fill-7127" d="M-3.2-5.7c-0.1,0-0.3,0-0.4,0.1c-0.2,0.2-0.2,0.5,0,0.7c0.1,0.1,0.2,0.1,0.4,0.1c0.1,0,0.3,0,0.4-0.1      c0.2-0.2,0.2-0.5,0-0.7C-3-5.6-3.1-5.7-3.2-5.7"/>
				<path id="Fill-7128" d="M-2.5-0.7c-0.1,0-0.3,0.1-0.4,0.1C-3-0.4-3-0.1-2.9,0.1c0.1,0.1,0.2,0.1,0.4,0.1c0.1,0,0.3,0,0.4-0.1      C-2-0.1-2-0.4-2.1-0.6C-2.2-0.7-2.4-0.7-2.5-0.7"/>
				<path id="Fill-7129" d="M-0.4-2.8c-0.1,0-0.3,0-0.4,0.1c-0.2,0.2-0.2,0.5,0,0.7c0.1,0.1,0.2,0.1,0.4,0.1S-0.1-1.9,0-2      c0.2-0.2,0.2-0.5,0-0.7C-0.1-2.8-0.3-2.8-0.4-2.8"/>
				<path id="Fill-7130" d="M-0.7-5.3c-0.1,0-0.3,0-0.4,0.1c-0.2,0.2-0.2,0.5,0,0.7C-1-4.4-0.9-4.3-0.7-4.3s0.3,0,0.4-0.1      c0.2-0.2,0.2-0.5,0-0.7C-0.5-5.3-0.6-5.3-0.7-5.3"/>
				<path id="Fill-7131" d="M6.3,10.2c-0.1,0-0.3,0-0.4,0.1c-0.2,0.2-0.2,0.5,0,0.7c0.1,0.1,0.2,0.1,0.4,0.1c0.1,0,0.3,0,0.4-0.1      c0.2-0.2,0.2-0.5,0-0.7C6.6,10.2,6.4,10.2,6.3,10.2"/>
				<path id="Fill-7132" d="M8.4,8.1c-0.1,0-0.3,0-0.4,0.1c-0.2,0.2-0.2,0.5,0,0.7C8.2,9,8.3,9.1,8.4,9.1c0.1,0,0.3,0,0.4-0.1      C9,8.7,9,8.4,8.8,8.2C8.7,8.1,8.5,8.1,8.4,8.1"/>
				<path id="Fill-7133" d="M8.8,10.5c-0.1,0-0.3,0-0.4,0.1c-0.2,0.2-0.2,0.5,0,0.7c0.1,0.1,0.2,0.1,0.4,0.1c0.1,0,0.3,0,0.4-0.1      c0.2-0.2,0.2-0.5,0-0.7C9,10.6,8.9,10.5,8.8,10.5"/>
				<path id="Fill-7134" d="M10.9,8.4c-0.1,0-0.3,0-0.4,0.1c-0.2,0.2-0.2,0.5,0,0.7c0.1,0.1,0.2,0.1,0.4,0.1s0.3,0,0.4-0.1      c0.2-0.2,0.2-0.5,0-0.7C11.1,8.5,11,8.4,10.9,8.4"/>
				<path id="Fill-7135" d="M6,7.7c-0.1,0-0.3,0-0.4,0.1c-0.2,0.2-0.2,0.5,0,0.7C5.7,8.7,5.8,8.7,6,8.7s0.3,0,0.4-0.1      c0.2-0.2,0.2-0.5,0-0.7C6.2,7.8,6.1,7.7,6,7.7"/>
				<path id="Fill-7136" d="M8.1,5.6c-0.1,0-0.3,0-0.4,0.1C7.5,6,7.5,6.3,7.7,6.5c0.1,0.1,0.2,0.1,0.4,0.1c0.1,0,0.3,0,0.4-0.1      c0.2-0.2,0.2-0.5,0-0.7C8.3,5.7,8.2,5.6,8.1,5.6"/>
				<path id="Fill-7137" d="M10.5,6c-0.1,0-0.3,0-0.4,0.1c-0.2,0.2-0.2,0.5,0,0.7C10.3,6.9,10.4,7,10.5,7c0.1,0,0.3,0,0.4-0.1      c0.2-0.2,0.2-0.5,0-0.7C10.8,6,10.7,6,10.5,6"/>
			</g>
		</g>
	</g>
</g>
</svg>