<svg xmlns="http://www.w3.org/2000/svg" xmlns:xlink="http://www.w3.org/1999/xlink" version="1.1" id="Layer_1" x="0px" y="0px" width="370px" height="170px" viewBox="0 0 370 170" style="enable-background:new 0 0 370 170;" xml:space="preserve">
<style type="text/css">
	.st0{fill:#BCD0CF;}
	.st1{fill:#CBBBA0;}
	.st2{fill:#9EAB37;}
	.st3{fill:#EDEAE8;}
	.st4{fill:#6EA9C8;}
	.st5{fill:none;stroke:#CBBBA0;stroke-width:0.411;stroke-linecap:round;stroke-miterlimit:10;}
	.st6{fill:none;stroke:#C3B09B;stroke-width:0.822;stroke-miterlimit:10;}
	.st7{fill:#FFFFFF;}
	.st8{fill:#585B5C;}
</style>
<g>
	<path class="st0" d="M12.1,42.8C9.6,39.8,8,36,8,31.8c0-9.4,7.6-17,17-17c1.3,0,2.4,0.1,3.6,0.4c0.7-3,3.6-5.3,6.8-5.3   c0.5,0,1,0.1,1.5,0.1C39.6,4.1,45.5,0,52.4,0C58.5,0,64,3.3,66.9,8.3c1-0.6,2.2-0.9,3.5-0.9c2.7,0,5,1.6,6.3,3.8   c0.6-0.1,1.4-0.2,2-0.2c6.7,0,12,5.4,12,12.1c0,1.4-0.2,2.6-0.6,3.8c0.8,0.8,1.6,2,1.9,3.1c0.1,0,0.2,0,0.3,0   c5.6,0,10.2,4.6,10.2,10.2c0,4.1-2.4,7.6-6,9.3c0,0.2,0,0.5,0,0.8c0,1-0.2,2.1-0.7,3c1.3,2.4,2,5.1,2,8.1c0,9-7,16.3-15.8,16.9   c-0.2,4.8-4.2,8.6-9.1,8.6c-1.3,0-2.5-0.3-3.7-0.7c-1,2.5-3.6,4.4-6.5,4.4c-2.1,0-3.9-0.8-5.1-2.3c-1.6,1.6-3.8,2.5-6.2,2.5   c-3.1,0-6-1.7-7.5-4.2c-1.4,0.7-2.8,1.2-4.5,1.2c-5.2,0-9.5-4.3-9.5-9.5l0,0c-0.7,0.1-1.5,0.1-2.2,0.1c-9.4,0-17-7.6-17-17   c0-2.2,0.4-4.2,1.2-6.1c-2.2-1.2-3.7-3.6-3.7-6.2C8.2,46.3,9.8,44,12.1,42.8z"/>
	<circle class="st0" cx="82.1" cy="105.1" r="1.5"/>
	<circle class="st0" cx="77.6" cy="99.7" r="2.2"/>
	<circle class="st0" cx="71.8" cy="92.1" r="3.3"/>
	<g>
		<path class="st1" d="M169.6,82.6v49.7c0,0,0.1-13-31.6-13s0.9-36.6,0.9-36.6h30.6V82.6z"/>
		<path class="st1" d="M106,82.7c0,19.7,14.5,35.1,32,35.1s31.6-15.9,31.6-35.6S155.5,46.7,138,46.7C120.6,46.7,106,63.1,106,82.7"/>
		<path class="st2" d="M126.1,107.3H138h11.9c6.4,0,24.5,14.6,24.5,27.9c0,0,4.3,34.9-10.9,34.9c-15.2,0-61.3,0-61.3,0v-34.9    C102.3,121.8,119.6,107.3,126.1,107.3"/>
		<g>
			<path class="st3" d="M159.5,86.7c0,0,2.5-0.8,4.2,0.4s2.2,5.2,0,7.1c-2.2,1.9-6,3.3-6,3.3s-5.1,6.9-5.4,8.4     c-0.3,1.4,2.9,3.5,2.9,3.5s-4.7,11.6-17.3,11.6s-18.3-11.4-18.3-11.4s2.8-1.8,4.2-2.1c0.2-0.6-2.5-1.4-4.5-2.9     c-3.6-2.7-5.3-6.2-6.3-9.8c-0.5-2-0.8-3.9-1-5.4c-2.1-1.2-2.6-2.6-2.2-4.6c0.2-1.2,1.5-1.7,1.5-1.7s-0.2-5.5,0.1-7.6     c0,0,4,1.2,8.2,1.7c5.1,0.6,11.9,0.8,19.6,0.8s10.8-0.6,10.8-0.6L159.5,86.7z"/>
			<path class="st4" d="M113.8,77.3c1.5-0.2,1.6,1.6,1.6,2.8c0,0.3-0.1,1.5-0.3,1.8c0,0-2.5,0.3-2.5,0.2c0-0.1-0.1-1-0.1-1     C112.3,79.5,112.6,77.5,113.8,77.3z"/>
			<path class="st5" d="M110.7,82.9c2.3-0.8,5.1-0.6,5.1-0.6"/>
		</g>
		<g>
			<path class="st4" d="M132.4,78.7c1.9,0.2,2,3,1,4.8c-0.8,1.8-2.6,2.6-3.5,0.8C129.1,82.6,130.1,78.5,132.4,78.7z"/>
			<path class="st6" d="M124.2,93.8c0,0-2.5,2.2-5,1.4c-2.2-0.8-1.9-3.1-1.9-3.1"/>
		</g>
		<g>
			<polygon class="st7" points="145.5,156.2 140.5,156.2 155.2,109.3 156.3,110.1    "/>
			<polyline class="st7" points="121,109 156.1,170.1 117.3,170.1 117.3,111    "/>
		</g>
	</g>
	<g>
		<path class="st8" d="M57.4,57h-6.8V45.5H54c3.3,0,6.2-2.4,6.2-5.4s-2.9-5.5-6.3-5.5s-6.2,2.4-6.2,5.4H41c0-6.4,5.9-11.6,13-11.6    s13,5.2,13,11.6c0,5.3-4.1,9.8-9.5,11.2C57.4,51.1,57.4,57,57.4,57z"/>
		<path class="st8" d="M53.9,56.5"/>
		<ellipse class="st8" cx="53.9" cy="63.6" rx="4.2" ry="3.8"/>
	</g>
</g>
</svg>