<svg xmlns="http://www.w3.org/2000/svg" xmlns:xlink="http://www.w3.org/1999/xlink" width="244px" height="96px" viewBox="0 0 244 96" version="1.1">
    <!-- Generator: Sketch 47.1 (45422) - http://www.bohemiancoding.com/sketch -->
    <title>Artboard 9</title>
    <desc>Created with Sketch.</desc>
    <defs/>
    <g id="Illustrasjoner" stroke="none" stroke-width="1" fill="none" fill-rule="evenodd">
        <g id="Artboard-9">
            <g id="Hva-naa?" transform="translate(26.000000, 1.000000)">
                <g id="Group-84" transform="translate(66.000000, 51.000000)">
                    <path d="M18.0621775,41 L2.45782247,41 C1.10060163,41 0,39.9049378 0,38.554548 L0,7.84018881 C0,6.48936772 1.10060163,5.39473684 2.45782247,5.39473684 L18.0621775,5.39473684 C19.4193984,5.39473684 20.52,6.48936772 20.52,7.84018881 L20.52,38.554548 C20.52,39.9049378 19.4193984,41 18.0621775,41" id="Fill-376" fill="#B5B9C1"/>
                    <polygon id="Fill-377" fill="#657585" points="2.16 35.6052632 18.36 35.6052632 18.36 9.71052632 2.16 9.71052632"/>
                    <path d="M11.88,38.3026316 C11.88,39.1962957 11.154493,39.9210526 10.26,39.9210526 C9.36550699,39.9210526 8.64,39.1962957 8.64,38.3026316 C8.64,37.4089675 9.36550699,36.6842105 10.26,36.6842105 C11.154493,36.6842105 11.88,37.4089675 11.88,38.3026316" id="Fill-378" fill="#657585"/>
                    <path d="M27,6.47368421 C27,10.0488834 24.098777,12.9473684 20.5202006,12.9473684 C16.941223,12.9473684 14.04,10.0488834 14.04,6.47368421 C14.04,2.89848507 16.941223,0 20.5202006,0 C24.098777,0 27,2.89848507 27,6.47368421" id="Fill-379" fill="#CD2027"/>
                    <path d="M18.36,8.63157895 L18.36,7.58723476 L19.721283,7.58723476 L19.721283,4.71196851 L18.8796295,4.71196851 L18.8796295,3.82697078 C19.5036729,3.743392 19.8344793,3.63013104 20.2316422,3.23684211 L21.318717,3.23684211 L21.318717,7.58723476 L22.68,7.58723476 L22.68,8.63157895 L18.36,8.63157895 Z" id="Fill-380" fill="#FFFFFF"/>
                </g>
                <g id="Dame-med-håndskade">
                    <path d="M2.94299905,30.4067436 L2.94299905,72.175686 C2.94299905,72.175686 2.8381005,61.2250511 29.6413016,61.2250511 C56.445584,61.2250511 28.8702432,30.4067436 28.8702432,30.4067436 L2.94299905,30.4067436 Z" id="Fill-63" fill="#C4AD86"/>
                    <path d="M56.2342729,30.4067436 L56.7493572,72.175686 C56.7493572,72.175686 56.6682501,61.2250511 29.8661305,61.2250511 C3.06184802,61.2250511 30.4533461,30.4067436 30.4533461,30.4067436 L56.2342729,30.4067436 Z" id="Fill-65" fill="#C4AD86"/>
                    <path d="M56.3406855,30.0781815 C56.3406855,46.5881044 44.3833325,59.9717352 29.6358944,59.9717352 C14.885212,59.9717352 2.93002191,46.5881044 2.93002191,30.0781815 C2.93002191,13.5704117 14.885212,0.185704337 29.6358944,0.185704337 C44.3833325,0.185704337 56.3406855,13.5704117 56.3406855,30.0781815" id="Fill-67" fill="#C4AD86"/>
                    <path d="M38.462188,50.6414111 L29.7091071,50.6414111 L20.9560262,50.6414111 C16.236673,50.6414111 0.550555161,60.594087 0.550555161,69.6543055 L0.550555161,93.492283 L59.140179,93.492283 L59.140179,69.6543055 C59.140179,60.594087 43.1804598,50.6414111 38.462188,50.6414111" id="Fill-69" fill="#8E9738"/>
                    <path d="M37.9447245,49.947469 C36.9325076,49.947469 29.7096478,53.0242399 29.7096478,53.0242399 C29.7096478,53.0242399 21.204214,50.6138515 20.547787,50.486819 C19.8902786,50.3587099 15.1579483,52.8552221 15.1579483,52.8552221 C16.3431937,54.5895391 19.7161687,62.6614876 29.7096478,62.6614876 C39.703127,62.6614876 43.0836719,54.5895391 44.2710802,52.8552221 C44.2710802,52.8552221 38.9569414,49.947469 37.9447245,49.947469" id="Fill-71" fill="#E7E5E2"/>
                    <path d="M7.69219968,24.852623 C7.69219968,24.852623 7.57756828,25.0851571 7.42724974,24.980732 C7.2196155,24.899991 7.20880122,24.852623 6.97413127,24.852623 C5.95001865,24.852623 5.33468593,25.6783344 5.33468593,26.6967478 L5.33468593,34.1453756 C5.33468593,35.1659421 5.95001865,35.990577 6.97413127,35.990577 C7.38399261,35.990577 7.65218683,35.8549321 7.95823105,35.6288572 C10.4509233,46.9778144 19.2386099,55.3673442 29.761989,55.3673442 C40.2864494,55.3673442 49.1000903,46.9778144 51.5927826,35.6288572 C51.8999082,35.8549321 52.1843239,35.990577 52.5941852,35.990577 C53.6193792,35.990577 54.3569134,35.1659421 54.3569134,34.1453756 L54.3569134,26.6967478 C54.3569134,25.6783344 53.6042392,24.852623 52.5822895,24.852623 C52.3443752,24.852623 52.1432296,25.0926929 51.9518168,24.980732 C29.6354618,11.9480555 7.69219968,24.852623 7.69219968,24.852623" id="Fill-73" fill="#E7E5E2"/>
                    <polyline id="Fill-75" fill="#FFFFFF" points="44.0995657 52.5605712 19.622517 93.4919601 47.1848807 93.4919601 47.1848807 54.2130707"/>
                    <polyline id="Fill-77" fill="#FFFFFF" points="15.0182277 52.3797113 27.5162949 92.3023758 23.2695259 92.3023758"/>
                </g>
                <g id="Undrende-dame" transform="translate(20.000000, 28.000000)">
                    <path d="M0.246178311,1.3188657 C0.346498047,1.09042678 0.925451702,0.0497606092 1.95040515,0.0497606092 C2.97414992,0.0497606092 3.42619307,0.619044893 3.48904399,0.716947285 C4.24204634,1.891776 3.87219286,4.17374782 1.95886585,4.27769357 C0.209918166,4.37196995 -0.279593798,2.52511987 0.246178311,1.3188657 Z" id="Fill-73" fill="#669DB4"/>
                    <path d="M20.3247391,1.3188657 C20.2256281,1.09042678 19.6466744,0.0497606092 18.621721,0.0497606092 C17.5979762,0.0497606092 17.1459331,0.619044893 17.0830821,0.716947285 C16.3300798,1.891776 16.6987246,4.17374782 18.6132603,4.27769357 C20.362208,4.37196995 20.8517199,2.52511987 20.3247391,1.3188657 Z" id="Fill-75" fill="#5B93AB"/>
                    <path d="M11.084192,6.80908237 C12.0352181,6.66285523 12.9620563,6.6980377 13.3974393,7.23237144 C14.4584106,8.53632166 14.1538624,10.0414716 12.3672527,11.1530177 C11.4744975,11.7082411 10.2101276,11.9358277 9.43501384,11.5927986" id="Stroke-77" stroke="#D1BFA3" stroke-width="0.5" stroke-linecap="round"/>
                    <path d="M3.73259541,17.778866 C3.73259541,17.778866 4.54399109,18.7144998 6.80336521,18.6969085 L9.0638388,18.6793173" id="Stroke-79" stroke="#D19E9C" stroke-width="0.8" stroke-linecap="round"/>
                </g>
            </g>
            <polygon id="Fill-36" fill="#525759" points="0 97 244 97 244 93 0 93"/>
            <g id="Page-1" transform="translate(144.000000, 5.000000)">
                <polygon id="Fill-1" fill="#C4E8F5" points="8 61 69 61 69 0 8 0"/>
                <g id="Group-20">
                    <polygon id="Stroke-2" stroke="#403A33" stroke-width="4" stroke-linecap="round" stroke-linejoin="round" points="8.16105155 61.1948052 69.2680206 61.1948052 69.2680206 0.00644155844 8.16105155 0.00644155844"/>
                    <path d="M8.16097113,43.0622208 C33.0992598,39.2037273 30.4520845,55.3897532 69.2679402,47.0785325 L69.2679402,61.1952078 L8.16097113,61.1952078 L8.16097113,43.0622208 Z" id="Fill-4" fill="#B7BE34"/>
                    <path d="M54.7354144,18.6268935 C54.7354144,16.3336987 52.8786928,14.4745039 50.5877443,14.4745039 C48.2976,14.4745039 46.4408784,16.3336987 46.4408784,18.6268935 C46.4408784,20.9208935 48.2976,22.7800883 50.5877443,22.7800883 C52.8786928,22.7800883 54.7354144,20.9208935 54.7354144,18.6268935" id="Fill-5" fill="#FFFFFF"/>
                    <path d="M49.6416928,22.0053299 C49.6416928,18.8835896 47.114332,16.3520571 43.9967443,16.3520571 C40.8791567,16.3520571 38.3509918,18.8835896 38.3509918,22.0053299 C38.3509918,25.1270701 40.8791567,27.6577974 43.9967443,27.6577974 C47.114332,27.6577974 49.6416928,25.1270701 49.6416928,22.0053299" id="Fill-6" fill="#FFFFFF"/>
                    <path d="M53.3434763,24.7640883 C53.3434763,23.2398545 52.1099505,22.0054909 50.5877443,22.0054909 C49.0663423,22.0054909 47.8328165,23.2398545 47.8328165,24.7640883 C47.8328165,26.2875169 49.0663423,27.5226857 50.5877443,27.5226857 C52.1099505,27.5226857 53.3434763,26.2875169 53.3434763,24.7640883" id="Fill-7" fill="#FFFFFF"/>
                    <polygon id="Stroke-8" stroke="#403A33" stroke-width="3" stroke-linecap="round" stroke-linejoin="round" points="8.16105155 30.6006234 38.7145361 30.6006234 38.7145361 0.00644155844 8.16105155 0.00644155844"/>
                    <polygon id="Stroke-9" stroke="#514C47" stroke-width="3" stroke-linecap="round" stroke-linejoin="round" points="38.7145361 30.6006234 69.2680206 30.6006234 69.2680206 0.00644155844 38.7145361 0.00644155844"/>
                    <polygon id="Stroke-10" stroke="#514C47" stroke-width="3" stroke-linecap="round" stroke-linejoin="round" points="8.16105155 61.1948052 38.7145361 61.1948052 38.7145361 30.6006234 8.16105155 30.6006234"/>
                    <polygon id="Stroke-11" stroke="#514C47" stroke-width="3" stroke-linecap="round" stroke-linejoin="round" points="38.7145361 61.1948052 69.2680206 61.1948052 69.2680206 30.6006234 38.7145361 30.6006234"/>
                    <path d="M0,61.1948857 L77.4290722,61.1948857" id="Stroke-12" stroke="#514C47" stroke-width="6" stroke-linecap="round" stroke-linejoin="round"/>
                    <path d="M19.6868784,7.75555584 C19.6868784,9.90945195 17.942734,11.6559195 15.7917031,11.6559195 C13.6406722,11.6559195 11.8965278,9.90945195 11.8965278,7.75555584 C11.8965278,5.60165974 13.6406722,3.85519221 15.7917031,3.85519221 C17.942734,3.85519221 19.6868784,5.60165974 19.6868784,7.75555584" id="Fill-13" fill="#FFFFFF"/>
                    <path d="M24.6439794,6.40540519 C24.6439794,7.99163896 23.3597938,9.27672987 21.7764742,9.27672987 C20.1923505,9.27672987 18.9081649,7.99163896 18.9081649,6.40540519 C18.9081649,4.81917143 20.1923505,3.53408052 21.7764742,3.53408052 C23.3597938,3.53408052 24.6439794,4.81917143 24.6439794,6.40540519" id="Fill-14" fill="#FFFFFF"/>
                    <path d="M29.2425216,10.6272026 C29.2425216,12.7682156 27.5096351,14.5034104 25.3714701,14.5034104 C23.2333052,14.5034104 21.5004186,12.7682156 21.5004186,10.6272026 C21.5004186,8.48618961 23.2333052,6.75099481 25.3714701,6.75099481 C27.5096351,6.75099481 29.2425216,8.48618961 29.2425216,10.6272026" id="Fill-15" fill="#FFFFFF"/>
                    <path d="M17.3428577,12.3637662 C17.3428577,13.2212987 16.6480948,13.916987 15.7917031,13.916987 C14.9353113,13.916987 14.2405485,13.2212987 14.2405485,12.3637662 C14.2405485,11.5062338 14.9353113,10.8105455 15.7917031,10.8105455 C16.6480948,10.8105455 17.3428577,11.5062338 17.3428577,12.3637662" id="Fill-16" fill="#FFFFFF"/>
                    <path d="M22.6485464,13.5240519 C22.6485464,15.094987 21.3772268,16.368 19.8083814,16.368 C18.2403402,16.368 16.9690206,15.094987 16.9690206,13.5240519 C16.9690206,11.9539221 18.2403402,10.6801039 19.8083814,10.6801039 C21.3772268,10.6801039 22.6485464,11.9539221 22.6485464,13.5240519" id="Fill-17" fill="#FFFFFF"/>
                    <path d="M23.0129753,10.0358675 C23.0129753,8.10984156 21.4537794,6.54776364 19.5295113,6.54776364 C17.6052433,6.54776364 16.0460474,8.10984156 16.0460474,10.0358675 C16.0460474,11.9626987 17.6052433,13.5239714 19.5295113,13.5239714 C21.4537794,13.5239714 23.0129753,11.9626987 23.0129753,10.0358675" id="Fill-18" fill="#FFFFFF"/>
                    <polygon id="Stroke-19" stroke="#514C47" stroke-width="4" stroke-linecap="round" stroke-linejoin="round" points="8.16105155 61.1948052 69.2680206 61.1948052 69.2680206 0.00644155844 8.16105155 0.00644155844"/>
                </g>
            </g>
        </g>
    </g>
</svg>