<?xml version="1.0" encoding="utf-8"?>
<!-- Generator: Adobe Illustrator 16.0.0, SVG Export Plug-In . SVG Version: 6.00 Build 0)  -->
<!DOCTYPE svg PUBLIC "-//W3C//DTD SVG 1.1//EN" "http://www.w3.org/Graphics/SVG/1.1/DTD/svg11.dtd">
<svg version="1.1" id="Outline_Version" xmlns="http://www.w3.org/2000/svg" xmlns:xlink="http://www.w3.org/1999/xlink" x="0px"
	 y="0px" width="24px" height="24px" viewBox="0 0 24 24" enable-background="new 0 0 24 24" xml:space="preserve">
<g>
	<path d="M9.501,9.511c0.095-0.013,0.251-0.01,0.362-0.01l0.137,0.001l0.137-0.001c0.114,0.001,0.269-0.002,0.363,0.01
		c0.004,0.271,0.227,0.491,0.5,0.491c0.276,0,0.5-0.224,0.5-0.5c0-0.298-0.089-0.538-0.266-0.713
		c-0.296-0.294-0.704-0.286-1.105-0.288l-0.129,0.001L9.872,8.501C9.476,8.503,9.063,8.495,8.767,8.789
		C8.59,8.964,8.501,9.204,8.501,9.502c0,0.276,0.226,0.473,0.502,0.473C9.258,9.975,9.47,9.761,9.501,9.511z"  fill="#0067c5"/>
	<path d="M13.003,9.975c0.254,0,0.467-0.214,0.498-0.464c0.095-0.013,0.25-0.01,0.362-0.01l0.137,0.001l0.137-0.001
		c0.113,0.001,0.269-0.002,0.363,0.01c0.004,0.271,0.227,0.491,0.5,0.491c0.276,0,0.5-0.224,0.5-0.5
		c0-0.298-0.089-0.538-0.266-0.713c-0.296-0.294-0.705-0.286-1.105-0.288l-0.129,0.001l-0.129-0.001
		c-0.397,0.002-0.809-0.006-1.105,0.288c-0.176,0.175-0.266,0.415-0.266,0.713C12.501,9.778,12.727,9.975,13.003,9.975z"  fill="#0067c5"/>
	<path d="M16.74,15.313c-0.325-0.044-0.66-0.099-0.99-0.146c0.894-0.841,1.604-1.939,1.73-3.246
		c0.686-0.234,1.146-0.971,1.146-1.922c0-0.279-0.049-0.531-0.122-0.767l0.502-3.684c0.008-0.08,0.179-1.977-1.244-3.549
		C16.561,0.673,14.625,0,12.009,0S7.457,0.673,6.255,2.001C4.832,3.573,5.003,5.47,5.013,5.567l0.496,3.64
		C5.43,9.449,5.376,9.71,5.376,10c0,0.951,0.46,1.688,1.146,1.922c0.127,1.308,0.838,2.407,1.732,3.248
		c-0.305,0.043-0.611,0.093-0.914,0.134c-3.608,0.489-7.339,0.995-7.339,4.942V23.5c0,0.276,0.224,0.5,0.5,0.5h11h0h12
		c0.276,0,0.5-0.224,0.5-0.5v-3.254C24.001,16.302,20.474,15.822,16.74,15.313z M6.997,2.672C8,1.563,9.687,1,12.009,1
		c2.313,0,3.996,0.559,5.001,1.66c1.127,1.235,1.002,2.772,1.003,2.772l-0.374,2.74c-0.073-0.036-0.137-0.089-0.216-0.112
		l-0.428-2.158C16.949,5.669,16.744,5.5,16.505,5.5c-2.983,0-3.485-0.84-3.817-1.396c-0.099-0.165-0.192-0.321-0.328-0.457
		c-0.188-0.188-0.52-0.188-0.707,0c-0.135,0.135-0.229,0.291-0.328,0.456C10.993,4.659,10.489,5.5,7.504,5.5
		c-0.238,0-0.443,0.168-0.49,0.401L6.58,8.06C6.505,8.081,6.446,8.132,6.377,8.165L6.006,5.45C6.005,5.436,5.868,3.919,6.997,2.672z
		 M7.501,11.5c0-0.276-0.224-0.5-0.5-0.5c-0.494,0-0.625-0.654-0.625-1c0-0.161,0.031-0.389,0.111-0.587
		C6.493,9.398,6.5,9.385,6.504,9.369C6.598,9.163,6.754,9,7.001,9c0.238,0,0.443-0.168,0.49-0.401l0.423-2.104
		c2.629-0.07,3.552-0.82,4.092-1.602c0.538,0.781,1.459,1.531,4.087,1.602l0.417,2.103C16.557,8.831,16.762,9,17.001,9
		c0.494,0,0.625,0.654,0.625,1s-0.131,1-0.625,1c-0.276,0-0.5,0.224-0.5,0.5c0,2.6-3.158,4.5-4.5,4.5S7.501,14.1,7.501,11.5z
		 M1.001,20.246c0-2.925,2.46-3.407,6.473-3.951c0.62-0.084,1.249-0.173,1.872-0.274c0.569,0.365,1.147,0.636,1.663,0.798L11.001,23
		h-10V20.246z M23.001,23h-11l0.007-6.001c0.657-0.002,1.671-0.351,2.651-0.98c0.654,0.106,1.308,0.199,1.946,0.286
		c3.965,0.54,6.396,1.019,6.396,3.941V23z" fill="#0067c5"/>
	<path d="M8,19H7v-1c0-0.276-0.224-0.5-0.5-0.5S6,17.724,6,18v1H5c-0.276,0-0.5,0.224-0.5,0.5S4.724,20,5,20h1v1
		c0,0.276,0.224,0.5,0.5,0.5S7,21.276,7,21v-1h1c0.276,0,0.5-0.224,0.5-0.5S8.277,19,8,19z" fill="#0067c5" />
	<circle cx="14.501" cy="19.5" r="0.5"/>
	<circle cx="14.501" cy="21.5" r="0.5"/>
	
</g>
</svg>