<svg xmlns="http://www.w3.org/2000/svg" xmlns:xlink="http://www.w3.org/1999/xlink" version="1.1" id="Layer_1" x="0px" y="0px" width="288.1px" height="109px" viewBox="0 0 288.1 109" style="enable-background:new 0 0 288.1 109;" xml:space="preserve">
<style type="text/css">
	.st0{fill:none;stroke:#9D9D9C;stroke-width:1.2784;stroke-miterlimit:10;}
	.st1{fill:none;stroke:#878787;stroke-width:5.1138;stroke-linecap:round;stroke-miterlimit:10;}
	.st2{fill:none;stroke:#6EA9C8;stroke-width:5.1138;stroke-linecap:round;stroke-miterlimit:10;}
	.st3{fill:#3D3A3C;}
	.st4{fill:none;stroke:#878787;stroke-width:5.1138;stroke-linecap:round;stroke-linejoin:bevel;stroke-miterlimit:10;}
	.st5{fill:none;stroke:#CBBBA0;stroke-width:5.1138;stroke-linecap:round;stroke-miterlimit:10;}
	.st6{fill:#52808D;}
	.st7{fill:#CBBBA0;}
	.st8{fill:#9EAB37;}
	.st9{fill:#EDEAE8;}
	.st10{fill:#FFFFFF;}
	.st11{fill:#6EA9C8;}
	.st12{fill:#FFFFFF;stroke:#CC9999;stroke-width:1.4187;stroke-miterlimit:10;}
	.st13{fill:#EDEAE8;stroke:#CBBBA0;stroke-width:0.7093;stroke-linecap:round;stroke-miterlimit:10;}
	.st14{fill:#11536E;}
	.st15{fill:#E5E4E1;}
	.st16{fill:#36363A;}
</style>
<g>
	<g>
		<line class="st0" x1="143.3" y1="47" x2="143.3" y2="4.5"/>
		<line class="st1" x1="63.4" y1="2.6" x2="164.6" y2="2.6"/>
		<line class="st2" x1="5.9" y1="42.5" x2="18.6" y2="42.5"/>
		<line class="st2" x1="5.9" y1="33.1" x2="18.6" y2="33.1"/>
		<rect x="120.5" y="47.1" class="st3" width="26.3" height="7.4"/>
		<polyline class="st4" points="41.2,61.5 67.7,2.6 89.9,61.2   "/>
		<polyline class="st4" points="135.3,61.5 161.8,2.6 183.9,61.2   "/>
		<line class="st2" x1="5.2" y1="67.2" x2="5.2" y2="26.9"/>
		<path class="st2" d="M2.6,24.6c0,0,18.1,0.4,34.1,16.6c14.8,14.9,21.1,26.1,38.7,26.1"/>
		<line class="st2" x1="5.9" y1="51.8" x2="18.6" y2="51.8"/>
		<line class="st2" x1="18.6" y1="67.2" x2="18.6" y2="30"/>
		<rect x="80.6" y="47.1" class="st3" width="26.3" height="7.4"/>
		<line class="st0" x1="83.6" y1="47" x2="83.6" y2="4.5"/>
		<line class="st0" x1="104.3" y1="47" x2="104.3" y2="4.5"/>
		<line class="st0" x1="122.6" y1="47" x2="122.6" y2="4.5"/>
		<path class="st5" d="M4.7,61.5"/>
		<line class="st2" x1="5.9" y1="61.2" x2="18.6" y2="61.2"/>
	</g>
	<path class="st6" d="M254.1,65.2h8.3h8.3c4.5,0,17.1,10.2,17.1,19.4c0,0,3,24.3-7.6,24.3c-10.6,0-42.6,0-42.6,0V84.6   C237.5,75.4,249.6,65.2,254.1,65.2"/>
	<g>
		<path class="st7" d="M220.3,29.2c0,14.5-10.8,26-23.7,26c-12.9,0-23.4-11.8-23.4-26.3c0-14.5,10.5-26.3,23.4-26.3    C209.5,2.6,220.3,14.7,220.3,29.2"/>
		<path class="st7" d="M173.2,29.1v36.8c0,0-0.1-9.6,23.4-9.6c23.5,0-0.7-27.1-0.7-27.1H173.2z"/>
		<path class="st7" d="M220.4,29.1v36.8c0,0-0.1-9.6-23.5-9.6c-23.5,0,0.5-27.1,0.5-27.1H220.4z"/>
		<path class="st8" d="M205.5,46.9h-8.3h-8.3c-4.5,0-17.1,10.2-17.1,19.4c0,0-3,24.3,7.6,24.3c10.6,0,42.6,0,42.6,0V66.4    C222.1,57.1,210,46.9,205.5,46.9"/>
		<path class="st9" d="M204.4,46.2c-0.9,0-7.6,2.9-7.6,2.9s-7.4-2.1-8-2.2c-0.6-0.1-4.7,2.1-4.7,2.1c1,1.5,4,8.6,12.7,8.6    c8.8,0,12.2-8.3,12.7-9.2c0,0-1.7-1-2.9-1.4C205.4,46.5,204.4,46.2,204.4,46.2z"/>
		<path class="st10" d="M209.4,48.3l-25.2,42.4H212l-0.2-40.8c0,0-0.5-0.3-1-0.7C210.1,48.7,209.4,48.3,209.4,48.3z"/>
		<polygon class="st10" points="183.9,48.9 197,90.7 191.3,90.7 182.6,49.9   "/>
		<ellipse class="st9" cx="188.3" cy="37.6" rx="1.8" ry="1.7"/>
		<ellipse class="st9" cx="204.8" cy="37.6" rx="1.8" ry="1.7"/>
		<g>
			<path class="st9" d="M177.4,24.3c0,0-0.1,0.2-0.2,0.1c-0.2-0.1-0.2-0.1-0.4-0.1c-0.9,0-1.4,0.7-1.4,1.6v6.6     c0,0.9,0.5,1.6,1.4,1.6c0.4,0,0.6-0.1,0.9-0.3c2.2,10,9.9,17.4,19.1,17.4c9.2,0,16.9-7.4,19.1-17.4c0.3,0.2,0.5,0.3,0.9,0.3     c0.9,0,1.5-0.7,1.5-1.6v-6.6c0-0.9-0.7-1.6-1.6-1.6c-0.2,0-0.4,0-0.6,0.1C195.3,26.8,177.4,24.3,177.4,24.3"/>
			<path class="st11" d="M187.4,29.7c-0.1-0.6-0.1-1.4,0.1-2c0.1-0.3,0.5-1.5,1.4-1.5s1.2,0.6,1.2,0.8c0.4,0.8,0.4,2.2,0,3.1     C189.8,30.7,187.6,30.5,187.4,29.7z"/>
			<path class="st11" d="M206,29.7c0.1-0.6,0.1-1.4-0.1-2c-0.1-0.3-0.5-1.5-1.4-1.5s-1.2,0.6-1.2,0.8c-0.4,0.8-0.4,2.2,0,3.1     C203.6,30.7,205.8,30.5,206,29.7z"/>
			<path class="st12" d="M203,39.3c0,0-2,4-6.3,4s-6.7-4-6.7-4s3.1,2,6.7,2C200.4,41.3,203,39.3,203,39.3z"/>
			<path class="st13" d="M197.1,32.7c0.8-0.1,1.7-0.1,2,0.4c0.9,1.2,0.7,2.5-0.9,3.5c-0.8,0.5-1.9,0.7-2.6,0.4"/>
		</g>
	</g>
	<g>
		<path class="st10" d="M259.6,65.6c-3.4-6-1.6-9.8-0.4-10.7l1.5-0.6c-2.2,2.4-2.6,6.5,0,10.8L259.6,65.6z"/>
		<path class="st9" d="M259.7,37.3"/>
		<path class="st14" d="M254.2,63.4l-1.8,2.1c0,0,1.8,3.3,9.8,3.3c8,0,9.7-3.4,9.7-3.4l-0.7-2c0,0-3.8-0.9-8.9-0.9    S254.2,63.4,254.2,63.4z"/>
		<g>
			<path class="st9" d="M281.8,43.8"/>
			<path class="st9" d="M283.6,45.8"/>
			<path class="st15" d="M240.2,32.7c-1-1.5-1.4-3.1-1.3-4.6c0.1-1.4,2-2.1,3.5-1.4c0.5,0.3,2,0.7,2,0.7"/>
			<path class="st15" d="M239.7,30.8c0,0-2.9,3-3.4,7.4s0,11.9,2.2,14.8c2.1,2.9,23.7-17.2,23.7-17.2L239.7,30.8z"/>
			<g>
				<g>
					<path class="st16" d="M237.8,44.6c0,10.1,2.5,15.9,6.9,23.3c3.5-1.9,9.6-4.3,17-3.9c8.4,0.5,15.4,2.3,18.5,4.2       c3-8.8,5.5-20,5.5-23.6c0-14.9-10.7-27-24-27C248.5,17.6,237.8,29.7,237.8,44.6"/>
				</g>
			</g>
		</g>
	</g>
</g>
</svg>