<svg xmlns="http://www.w3.org/2000/svg" xmlns:xlink="http://www.w3.org/1999/xlink" version="1.1" id="Layer_1" x="0px" y="0px" width="244.3px" height="142px" viewBox="0 0 244.3 142" style="enable-background:new 0 0 244.3 142;" xml:space="preserve">
<style type="text/css">
	.st0{fill:#E57E65;}
	.st1{fill:#581F56;}
	.st2{fill:#EDEAE8;}
	.st3{fill:#6EA9C8;}
	.st4{fill:none;stroke:#C3B09B;stroke-width:1.3327;stroke-miterlimit:10;}
	.st5{fill:none;stroke:#E57E65;stroke-width:0.6663;stroke-linecap:round;stroke-miterlimit:10;}
	.st6{fill:#D2232A;}
	.st7{fill:#FFFFFF;}
	.st8{fill:#C42229;}
	.st9{fill:#5B2052;}
	.st10{fill:#86497E;}
	.st11{clip-path:url(#SVGID_2_);}
	.st12{fill:#505557;}
	.st13{fill:#BFBFBD;}
	.st14{fill:none;stroke:#83C455;stroke-width:0.519;stroke-miterlimit:10;}
	.st15{fill:#2F3137;}
	.st16{fill:#E47F68;}
	.st17{fill:#581E57;}
	.st18{fill:#E6E3E1;}
	.st19{fill:#C52A35;}
	.st20{fill:#814F82;}
	.st21{fill:#364250;}
	.st22{fill:#E9E9E3;}
	.st23{fill:#8E9294;}
	.st24{fill:#CAC8C6;}
	.st25{fill:#A59D96;}
	.st26{fill:none;stroke:#8E9294;stroke-width:1.2;stroke-miterlimit:10;}
	.st27{fill:none;stroke:#8E9294;stroke-width:1.2146;stroke-miterlimit:10;}
	.st28{fill:#BCD0CF;}
	.st29{fill:#585B5C;}
	.st30{fill:#BDBDBC;}
	.st31{fill:#52808D;}
	.st32{fill:#36363A;}
	.st33{fill:#7CA9B4;}
	.st34{fill:#561D5B;}
	.st35{fill:#1A293A;}
	.st36{fill:#B19AB3;}
	.st37{fill:#95A947;}
	.st38{fill:#CBBBA0;}
	.st39{fill:#9EAB37;}
	.st40{fill:#FFFFFF;stroke:#CC9999;stroke-width:1.4187;stroke-miterlimit:10;}
	.st41{fill:#EDEAE8;stroke:#CBBBA0;stroke-width:0.7093;stroke-linecap:round;stroke-miterlimit:10;}
	.st42{fill:#11536E;}
	.st43{fill:#E5E4E1;}
</style>
<g>
	<path class="st0" d="M161.5,68.4c0,13.6-9.8,24.6-21.9,24.6s-21.9-11-21.9-24.6s9.8-24.6,21.9-24.6S161.5,54.8,161.5,68.4"/>
	<path class="st0" d="M117.7,68.4c0,11.6-6,18.3-6,18.3s5.9,7.3,27.9,7.3S139,68.4,139,68.4H117.7z"/>
	<path class="st0" d="M161.6,68.4c0,11.6,6,18.3,6,18.3s-5.9,7.3-27.9,7.3s0.6-25.5,0.6-25.5H161.6z"/>
	<path class="st1" d="M127.1,87.2c-4.7,3.5-10,9.8-10,15.8v23.1c0,0,30.4,0,40.5,0s7.2-23.1,7.2-23.1c0-5.9-5.5-12.3-10.3-15.8   c-2.3-1.7-8.7-4.5-14.3-4.5C135.3,82.7,131.8,83.6,127.1,87.2z"/>
	<path class="st2" d="M146.1,84c-0.8,0-6.4,2.4-6.4,2.4s-6.6-1.9-7.1-2c-0.5-0.1-4.7,2.3-4.7,2.3c0.9,1.4,11,18,11,18h1.7   c0,0,10.3-16.9,11.2-18.2C151.7,86.5,146.9,84,146.1,84"/>
	<path class="st2" d="M146.1,83.9c-0.8,0-6.5,2.4-6.5,2.4s-6.7-1.9-7.2-2c-0.5-0.1-4.7,2.3-4.7,2.3c0.9,1.4,11.1,18.2,11.1,18.2h1.7   c0,0,10.4-17,11.3-18.3C151.8,86.4,146.9,83.9,146.1,83.9"/>
	<path class="st2" d="M157.6,71.4C157.5,71.4,157.5,71.4,157.6,71.4C157.5,71.4,157.5,71.4,157.6,71.4c-1.2-0.8-2.8-0.3-2.9-0.3l0,0   c-0.1-0.2-3.4-7.3-5.8-14.5c-7.8,6.2-23.6,3.6-26.8,6.9c0,0.2,0,0.7,0,1.1c0,0.9,0,4.1,0,4.1s-0.8,0.3-1,1.1   c-0.3,1.3,0.1,2.3,1.5,3.1c0.1,0.3,0.1,0.7,0.2,1c0.5,3.4,1.5,6.9,4.8,9.4c1.4,1,3.2,1.6,3,2c-0.9,0.3-2.8,1.5-2.8,1.5   s3.9,7.7,12.4,7.7c0,0,0,0,0,0l0,0c8.5,0,11.7-7.9,11.7-7.9s-2.2-1.4-2-2.3c0.2-0.9,3.7-5.6,3.7-5.6s2.6-1,4.1-2.3   C159,74.9,158.7,72.2,157.6,71.4z"/>
	<path class="st3" d="M139.9,65c1.3,0.1,1.3,2.1,0.7,3.3c-0.6,1.2-1.8,1.7-2.4,0.5C137.8,67.6,138.4,64.9,139.9,65z"/>
	<path class="st4" d="M131.6,77.2c0,0-1.7,1.5-3.4,0.9c-1.5-0.5-1.3-2.1-1.3-2.1"/>
	<path class="st3" d="M124.2,64.7c1-0.2,1.1,1.1,1,1.9c0,0.2-0.1,1-0.2,1.2c0,0-1.7,0.2-1.7,0.1c0-0.1-0.1-0.7-0.1-0.7   C123.2,66.2,123.5,64.8,124.2,64.7z"/>
	<path class="st5" d="M122.2,68.4c1.6-0.6,3.5-0.4,3.5-0.4"/>
	<path class="st6" d="M159.5,115.2h-12.1c-1.1,0-2-0.9-2-2v-5.7c0-1.1,0.9-2,2-2h12.1c1.1,0,2,0.9,2,2v5.7   C161.5,114.3,160.6,115.2,159.5,115.2z"/>
	<g>
		<g>
			<path class="st7" d="M157.1,110.5c0,2-1.6,3.5-3.5,3.5c-2,0-3.5-1.6-3.5-3.5c0-2,1.6-3.5,3.5-3.5     C155.5,107,157.1,108.6,157.1,110.5"/>
		</g>
		<polygon class="st7" points="149,112.1 148.3,112.1 149,110.3 149.7,110.3   "/>
		<polygon class="st7" points="157.7,112.1 157.2,112.1 158,110.3 158.4,110.3   "/>
		<polygon class="st7" points="158.9,112.1 158.7,112.1 159.4,110.3 159.6,110.3   "/>
		<path class="st8" d="M150.9,112.1h0.5c0,0,0.1,0,0.1,0v-1.7c0,0,0,0-0.1,0h-0.5c0,0-0.1,0-0.1,0.1l-0.2,0.5c0,0,0,0.1,0,0.1h0.2    c0,0,0,0,0,0L150.9,112.1C150.8,112.1,150.8,112.1,150.9,112.1"/>
		<path class="st8" d="M152,112.1h0.5c0,0,0.1,0,0.1,0v-1.7c0,0,0,0-0.1,0h-0.8c0,0-0.1,0-0.1,0.1l-0.2,0.5l-0.1,0.1h0.4    c0.1,0,0.2,0.1,0.2,0.2L152,112.1C152,112.1,152,112.1,152,112.1"/>
		<path class="st8" d="M154.5,110.3h-0.5c0,0-0.1,0-0.1,0v1.7c0,0,0,0,0.1,0h0.6c0,0,0.1,0,0.1-0.1l0.2-0.5c0,0,0-0.1,0-0.1h-0.2    c0,0,0,0,0,0L154.5,110.3C154.5,110.3,154.5,110.3,154.5,110.3"/>
		<path class="st8" d="M152.2,112.1h0.4c0,0,0.1,0,0.1-0.1l0.2-0.5c0,0,0-0.1,0-0.1h-0.2L152.2,112.1z"/>
		<path class="st8" d="M155.9,110.3h0.6c0,0,0.1,0,0,0.1l-0.7,1.7c0,0,0,0,0,0h-0.6L155.9,110.3    C155.9,110.3,155.9,110.3,155.9,110.3"/>
		<path class="st8" d="M155.1,110.3h-0.9c-0.1,0,0.3,0.1,0.3,0.1l0.6,1.6c0,0,0,0.1,0.1,0.1h0.6L155.1,110.3    C155.2,110.3,155.2,110.3,155.1,110.3"/>
		<path class="st8" d="M153.4,110.3c0.3,0,0.6,0.2,0.6,0.6c0,0.4,0,0.4,0,0.4s-0.1-0.3-0.3-0.3c-0.3,0-0.3,0.2-0.3,0.3    c0,0.1,0.1,0.3,0.2,0.3h0.5l-0.3,0.6c0,0,0,0-0.1,0h-0.2c-0.2,0-0.8-0.3-0.8-0.9C152.6,110.6,153,110.3,153.4,110.3"/>
	</g>
	<path class="st9" d="M154.2,106.5h-1.3c-0.2,0-0.3-0.1-0.3-0.3v0c0-0.2,0.1-0.3,0.3-0.3h1.3c0.2,0,0.3,0.1,0.3,0.3v0   C154.5,106.4,154.4,106.5,154.2,106.5z"/>
	<rect x="153.2" y="103.6" class="st10" width="0.9" height="2.6"/>
</g>
<rect x="65.5" y="116.5" class="st21" width="58.1" height="10.5"/>
<rect x="68.5" y="111.1" class="st22" width="52.1" height="3.5"/>
<rect x="68.5" y="106.7" class="st22" width="52.1" height="3.5"/>
<rect x="68.5" y="109" class="st23" width="52.1" height="1.2"/>
<rect x="68.5" y="113.6" class="st23" width="52.1" height="1.2"/>
<g>
	<g>
		<path class="st22" d="M60.2,34.2l-14,33.7c-0.5,1.2,0.1,2.6,1.3,3.1l29.6,11.8c1.2,0.5,2.6-0.1,3.1-1.3l16.1-38.7    c0.5-1.2-0.1-2.6-1.3-3.1l-24.1-9.6L60.2,34.2z"/>
		<path class="st13" d="M70.9,30.1l-2.1,5c-0.5,1.2-1.9,1.8-3.1,1.3l-5.5-2.2L70.9,30.1z"/>
	</g>
	<g>
		<g>
			<path class="st24" d="M65.4,50.8L65.4,50.8c1.2,0.5,2.5,0,3-1.2c0.5-1.2,0-2.5-1.2-3c-1.2-0.5-2.5,0-3,1.2     C63.7,49,64.2,50.3,65.4,50.8"/>
			<path class="st12" d="M64.2,51.5c-0.1-0.1-0.2-0.1-0.2-0.2c-1.3-1.2-1.5-3.2-0.3-4.6c1.2-1.4,3.2-1.6,4.7-0.5     c1.2,0.9,1.6,2.5,1.1,3.9c-0.5,1.3-2,2.2-3.5,2.1c-0.2,0-0.3,0-0.4,0.2c-0.8,2-1.7,3.9-2.6,5.9c-1,2.3-0.1,5,2.2,6.2     c2.5,1.3,6,0.3,7.1-3.2c-0.5-0.5-1.1-0.9-1.5-1.3c-0.9-0.9-1.5-2-1.9-3.3c-0.1-0.6-0.2-1.2,0.1-1.8c1.1-2.5,2.2-5,3.3-7.5     c0.6-1.3,1.7-2,3.2-2.2c0.2,0,0.4-0.1,0.5-0.2c0.6-0.5,1.4-0.5,2,0c0.6,0.4,0.8,1.2,0.5,1.9c-0.3,0.7-1,1-1.8,0.9     c-0.6-0.1-0.9-0.5-1.2-1c-0.9,0.1-1.5,0.6-1.9,1.4c-1,2.4-2.1,4.7-3.1,7.1c-0.2,0.4-0.2,0.9-0.1,1.3c0.2,0.8,0.6,1.4,1.1,2.1     c1.7,2.1,4.7,2.7,7.1,1.3c0.3-0.2,0.6-0.5,0.8-0.8c0.3-0.8,0.7-1.7,1.1-2.5c0.7-1.6,1.4-3.2,2.1-4.7c0.3-0.8,0.2-1.5-0.3-2.2     c-0.5,0.2-1,0.2-1.4-0.1c-0.7-0.4-1-1.2-0.7-1.9c0.3-0.7,1-1.2,1.8-1c0.7,0.1,1.3,0.8,1.3,1.5c0,0.1,0,0.2,0.1,0.3     c1,1.3,1.2,2.6,0.6,4.1c-1,2.3-2.1,4.6-3,7c-0.4,0.8-0.9,1.4-1.7,1.8c-1.5,0.8-3.2,0.9-4.9,0.7c-0.2,0-0.4-0.1-0.5-0.1     c-0.3,0.6-0.5,1.1-0.9,1.7c-1.7,2.9-5.8,3.9-8.7,2.1c-2.8-1.7-3.9-5-2.6-8c0.9-2,1.7-3.9,2.6-5.9C64.1,51.7,64.2,51.6,64.2,51.5      M65.5,50.5c0.9,0.4,2,0,2.4-1c0.4-0.9,0-2-1-2.4c-0.9-0.4-2,0-2.4,1C64.1,49.1,64.6,50.1,65.5,50.5"/>
		</g>
		<path class="st25" d="M64.3,48.1c-0.4,1,0.1,2.2,1.1,2.6c1,0.4,2.2-0.1,2.6-1.1c0.4-1-0.1-2.2-1.1-2.6    C65.9,46.6,64.7,47.1,64.3,48.1z"/>
	</g>
</g>
<g>
	<g>
		<path class="st22" d="M19.1,23.7v36.4c0,1.3,1.1,2.4,2.4,2.4h32c1.3,0,2.4-1.1,2.4-2.4V18.3c0-1.3-1.1-2.3-2.4-2.3h-26L19.1,23.7z    "/>
		<path class="st13" d="M27.4,16v5.4c0,1.3-1.1,2.4-2.4,2.4h-5.9L27.4,16z"/>
	</g>
	<g>
		<polygon class="st12" points="41.6,49.3 41.6,39.5 41.6,37.2 34.7,37.2 32.7,37.2 32.7,39.5 34.7,39.5 34.7,49.3 32.7,49.3     32.7,51.6 43.6,51.6 43.6,49.3   "/>
		<ellipse class="st12" cx="38.2" cy="31" rx="4.2" ry="4.1"/>
	</g>
</g>
<g>
	<g>
		<path class="st26" d="M34.1,73.5c5.4,13.7,23.3,20.9,42.1,19.3"/>
		<g>
			<polygon class="st23" points="73.9,95 75.8,92.8 73.6,90.9 75.3,90.8 77.5,92.7 75.7,94.9    "/>
		</g>
	</g>
</g>
<g>
	<g>
		<path class="st27" d="M89.3,74.8c-0.6,6.3,3.6,15.8,13,18.5"/>
		<g>
			<polygon class="st23" points="99.4,94.6 102,93.1 100.5,90.6 102.2,91.1 103.6,93.6 101.1,95    "/>
		</g>
	</g>
</g>
<rect x="0.2" y="126" class="st12" width="244.3" height="4.5"/>
<g>
	<circle class="st28" cx="183.2" cy="83.3" r="0.9"/>
	<circle class="st28" cx="185.4" cy="80.5" r="1.5"/>
	<circle class="st28" cx="189.2" cy="76.2" r="2.2"/>
	<path class="st28" d="M169.8,43.8c-1.7-2-2.7-4.5-2.7-7.2c0-6.2,5-11.2,11.2-11.2c0.8,0,1.6,0.1,2.4,0.3c0.5-2,2.3-3.5,4.5-3.5   c0.3,0,0.7,0,1,0.1c1.7-3.9,5.6-6.6,10.2-6.6c4.1,0,7.6,2.2,9.6,5.4c0.7-0.4,1.5-0.6,2.3-0.6c1.8,0,3.3,1,4.1,2.5   c0.4-0.1,0.9-0.1,1.3-0.1c4.4,0,7.9,3.6,7.9,7.9c0,0.9-0.1,1.7-0.4,2.5c0.6,0.6,1,1.3,1.2,2.1c0.1,0,0.2,0,0.2,0   c3.7,0,6.7,3,6.7,6.7c0,2.7-1.6,5.1-3.9,6.1c0,0.2,0,0.3,0,0.5c0,0.7-0.2,1.4-0.5,2c0.8,1.6,1.3,3.4,1.3,5.3   c0,5.9-4.6,10.8-10.4,11.2c-0.2,3.1-2.8,5.6-6,5.6c-0.9,0-1.7-0.2-2.4-0.5c-0.7,1.7-2.4,2.9-4.3,2.9c-1.3,0-2.6-0.6-3.4-1.5   c-1.1,1-2.5,1.7-4.1,1.7c-2.1,0-3.9-1.1-4.9-2.7c-0.9,0.5-1.9,0.7-2.9,0.7c-3.4,0-6.2-2.8-6.2-6.2c0,0,0,0,0,0   c-0.5,0.1-1,0.1-1.5,0.1c-6.2,0-11.2-5-11.2-11.2c0-1.4,0.3-2.8,0.7-4c-1.4-0.8-2.4-2.3-2.4-4.1C167.3,46.1,168.3,44.6,169.8,43.8z   "/>
</g>
<g>
	<g>
		<g>
			<g>
				<circle class="st7" cx="197.8" cy="41.2" r="11.4"/>
				<path class="st7" d="M198.4,55.5h-1.2c-2.6,0-4.8-2.1-4.8-4.8v-3.3c0-2.6,2.1-4.8,4.8-4.8h1.2c2.6,0,4.8,2.1,4.8,4.8v3.3      C203.1,53.3,201,55.5,198.4,55.5z"/>
			</g>
			<path class="st29" d="M201.8,58.9h-8.1c-0.7,0-1.3-0.6-1.3-1.3v0c0-0.7,0.6-1.3,1.3-1.3h8.1c0.7,0,1.3,0.6,1.3,1.3v0     C203.1,58.3,202.5,58.9,201.8,58.9z"/>
			<path class="st29" d="M201.8,62.2h-8.1c-0.7,0-1.3-0.6-1.3-1.3l0,0c0-0.7,0.6-1.3,1.3-1.3h8.1c0.7,0,1.3,0.6,1.3,1.3l0,0     C203.1,61.6,202.5,62.2,201.8,62.2z"/>
			<path class="st29" d="M199.6,62.8H196c-0.5,0-0.8,0.7-0.4,1c0.6,0.5,1.3,0.7,2.1,0.7s1.5-0.3,2.1-0.7     C200.3,63.4,200.1,62.8,199.6,62.8z"/>
		</g>
	</g>
</g>
</svg>