<svg xmlns="http://www.w3.org/2000/svg" xmlns:xlink="http://www.w3.org/1999/xlink" version="1.1" id="Layer_1" x="0px" y="0px" width="244.3px" height="96.3px" viewBox="0 0 244.3 96.3" style="enable-background:new 0 0 244.3 96.3;" xml:space="preserve">
<style type="text/css">
	.st0{clip-path:url(#SVGID_2_);}
	.st1{fill:#505557;}
	.st2{fill:#FFFFFF;}
	.st3{fill:#BFBFBD;}
	.st4{fill:none;stroke:#83C455;stroke-width:0.519;stroke-miterlimit:10;}
	.st5{fill:#2F3137;}
	.st6{fill:#E47F68;}
	.st7{fill:#581E57;}
	.st8{fill:#E6E3E1;}
	.st9{fill:#D2232A;}
	.st10{fill:#C52A35;}
	.st11{fill:#814F82;}
	.st12{fill:#364250;}
	.st13{fill:#E9E9E3;}
	.st14{fill:#8E9294;}
	.st15{fill:#CAC8C6;}
	.st16{fill:#A59D96;}
	.st17{fill:none;stroke:#8E9294;stroke-width:1.2;stroke-miterlimit:10;}
	.st18{fill:none;stroke:#8E9294;stroke-width:1.2146;stroke-miterlimit:10;}
	.st19{fill:#BCD0CF;}
	.st20{fill:#585B5C;}
	.st21{fill:#BDBDBC;}
	.st22{fill:#52808D;}
	.st23{fill:#36363A;}
	.st24{fill:#7CA9B4;}
	.st25{fill:#561D5B;}
	.st26{fill:#1A293A;}
	.st27{fill:#B19AB3;}
	.st28{fill:#95A947;}
	.st29{fill:#CBBBA0;}
	.st30{fill:#9EAB37;}
	.st31{fill:#EDEAE8;}
	.st32{fill:#6EA9C8;}
	.st33{fill:#FFFFFF;stroke:#CC9999;stroke-width:1.4187;stroke-miterlimit:10;}
	.st34{fill:#EDEAE8;stroke:#CBBBA0;stroke-width:0.7093;stroke-linecap:round;stroke-miterlimit:10;}
	.st35{fill:#11536E;}
	.st36{fill:#E5E4E1;}
</style>
<g>
	<defs>
		<rect id="SVGID_1_" x="171.1" y="16.6" width="69.4" height="75.6"/>
	</defs>
	<clipPath id="SVGID_2_">
		<use xlink:href="#SVGID_1_" style="overflow:visible;"/>
	</clipPath>
	<g class="st0">
		<path class="st1" d="M226.7,49.8h-42.3c-1.7,0-3.2,1.4-3.2,3.2v53.4c0,0.3,0.1,0.6,0.1,0.9c0.2,0.5,0.4,0.9,0.8,1.3    c0.1,0.1,0.1,0.1,0.2,0.2c0.5,0.4,1,0.6,1.7,0.7c0.1,0,0.2,0,0.3,0h42.3c1.7,0,3.2-1.4,3.2-3.2V53    C229.9,51.2,228.5,49.8,226.7,49.8"/>
		<path class="st2" d="M185.2,61.5v41.1c0,1.5,1.2,2.7,2.7,2.7h35.5c1.5,0,2.7-1.2,2.7-2.7V55.4c0-1.5-1.2-2.7-2.7-2.7h-28.9    L185.2,61.5z"/>
		<path class="st3" d="M194.4,52.7v6.1c0,1.5-1.2,2.7-2.7,2.7h-6.6L194.4,52.7z"/>
		<rect x="198.7" y="73" class="st3" width="19.7" height="2.2"/>
		<rect x="198.7" y="78" class="st3" width="19.7" height="2.2"/>
		<rect x="198.7" y="83" class="st3" width="19.7" height="2.2"/>
		<rect x="198.7" y="87.9" class="st3" width="19.7" height="2.2"/>
		<rect x="193.3" y="73" class="st3" width="2.3" height="2.2"/>
		<rect x="193.3" y="78" class="st3" width="2.3" height="2.2"/>
		<rect x="193.3" y="83" class="st3" width="2.3" height="2.2"/>
		<rect x="193.3" y="87.9" class="st3" width="2.3" height="2.2"/>
		<polyline class="st4" points="193,72.4 194.5,74.1 196.6,71.4   "/>
		<path class="st5" d="M211.9,47.1h-3.8v-0.7c0-1.4-1.1-2.5-2.5-2.5c-1.4,0-2.5,1.1-2.5,2.5v0.7h-3.8c-1.9,0-3.4,1.5-3.4,3.4v4.1    h19.4v-4.1C215.3,48.6,213.8,47.1,211.9,47.1 M205.6,51.3c-0.6,0-1-0.5-1-1s0.5-1,1-1c0.6,0,1,0.5,1,1S206.1,51.3,205.6,51.3"/>
	</g>
</g>
<g>
	<path class="st29" d="M88.8,30.4c0,15-11.1,26.8-24.4,26.8c-13.3,0-24.1-12.1-24.1-27.1C40.3,15.1,51.1,3,64.4,3   C77.7,3,88.8,15.5,88.8,30.4"/>
	<path class="st29" d="M40.3,30.4v37.9c0,0-0.1-9.9,24.1-9.9c24.2,0-0.7-27.9-0.7-27.9H40.3z"/>
	<path class="st29" d="M88.8,30.4v37.9c0,0-0.1-9.9-24.3-9.9c-24.2,0,0.5-27.9,0.5-27.9H88.8z"/>
	<path class="st30" d="M73.6,48.7H65h-8.5c-4.6,0-17.6,10.5-17.6,20c0,0-3.1,25.1,7.8,25.1s43.9,0,43.9,0V68.7   C90.6,59.2,78.2,48.7,73.6,48.7"/>
	<path class="st31" d="M72.4,47.9c-0.9,0-7.9,3-7.9,3s-7.7-2.2-8.3-2.3c-0.6-0.1-4.9,2.1-4.9,2.1c1.1,1.6,4.1,8.9,13.1,8.9   c9,0,12.6-8.6,13.1-9.5c0,0-1.8-1-3-1.4S72.4,47.9,72.4,47.9z"/>
	<path class="st2" d="M77.6,50.2l-26,43.6h28.6l-0.2-42c0,0-0.5-0.4-1.1-0.8C78.2,50.5,77.6,50.2,77.6,50.2z"/>
	<polygon class="st2" points="51.3,50.7 64.7,93.8 59,93.8 49.9,51.8  "/>
	<ellipse class="st31" cx="55.8" cy="39.1" rx="1.8" ry="1.7"/>
	<ellipse class="st31" cx="72.8" cy="39.1" rx="1.8" ry="1.7"/>
	<g>
		<path class="st31" d="M44.6,25.4c0,0-0.1,0.2-0.2,0.1c-0.2-0.1-0.2-0.1-0.4-0.1c-0.9,0-1.5,0.7-1.5,1.7v6.8c0,0.9,0.6,1.7,1.5,1.7    c0.4,0,0.6-0.1,0.9-0.3C47,45.4,55,53,64.5,53c9.5,0,17.4-7.6,19.7-17.9c0.3,0.2,0.5,0.3,0.9,0.3c0.9,0,1.6-0.7,1.6-1.7V27    c0-0.9-0.7-1.7-1.6-1.7c-0.2,0-0.4,0-0.6,0.1C63.1,28,44.6,25.4,44.6,25.4"/>
		<path class="st32" d="M54.9,30.9c-0.1-0.6-0.1-1.4,0.1-2c0.1-0.3,0.6-1.5,1.4-1.5c0.9,0,1.2,0.7,1.3,0.8c0.4,0.9,0.4,2.2,0,3.2    C57.4,32,55.1,31.8,54.9,30.9z"/>
		<path class="st32" d="M74.1,30.9c0.1-0.6,0.1-1.4-0.1-2c-0.1-0.3-0.6-1.5-1.4-1.5s-1.2,0.7-1.3,0.8c-0.4,0.9-0.4,2.2,0,3.2    C71.6,32,73.9,31.8,74.1,30.9z"/>
		<path class="st33" d="M71,40.8c0,0-2.1,4.1-6.5,4.1s-6.9-4.1-6.9-4.1s3.1,2.1,6.9,2.1C68.3,42.9,71,40.8,71,40.8z"/>
		<path class="st34" d="M64.8,34c0.9-0.1,1.7-0.1,2.1,0.4c1,1.2,0.7,2.6-0.9,3.6c-0.8,0.5-2,0.7-2.7,0.4"/>
	</g>
</g>
<rect x="0.3" y="92.1" class="st1" width="244.3" height="4.5"/>
<path class="st1" d="M9.3,73.7c-2.9,0-5.3,2.4-5.3,5.3c0,2.9,2.4,5.3,5.3,5.3c0.6,0,1.2-0.1,1.8-0.3l0.8,9.1h15.8l1.9-22.6H10  l0.3,3.3C10,73.7,9.7,73.7,9.3,73.7 M9.2,81c-1.1,0-2-0.9-2-2c0-1.1,0.9-2,2-2c0.6,0,1.1,0.2,1.4,0.6c0.3,0.3,0.5,0.8,0.5,1.3  c0,0.4-0.1,0.8-0.3,1.1C10.4,80.7,9.8,81,9.2,81"/>
<g>
	<path class="st22" d="M125.9,61.1h8.5h8.5c4.6,0,17.4,10.4,17.4,19.8c0,0,3.1,24.9-7.7,24.9s-43.6,0-43.6,0V81   C109,71.5,121.3,61.1,125.9,61.1"/>
	<g>
		<path class="st2" d="M131.6,61.6c-3.5-6.2-1.6-10-0.4-11l1.5-0.6c-2.3,2.5-2.7,6.7,0,11.1L131.6,61.6z"/>
		<path class="st35" d="M126,59.3l-1.8,2.2c0,0,1.8,3.4,10,3.4c8.2,0,9.9-3.5,9.9-3.5l-0.8-2.1c0,0-3.9-0.9-9.1-0.9    C129,58.4,126,59.3,126,59.3z"/>
		<g>
			<path class="st36" d="M111.7,27.9c-1-1.5-1.4-3.1-1.3-4.7c0.1-1.5,2.1-2.2,3.6-1.4c0.5,0.3,2.1,0.7,2.1,0.7"/>
			<path class="st36" d="M111.2,26c0,0-2.9,3-3.5,7.6c-0.5,4.5,0,12.2,2.2,15.1c2.2,2.9,24.2-17.6,24.2-17.6L111.2,26z"/>
			<g>
				<g>
					<path class="st23" d="M109.3,40.1c0,10.3,2.5,16.3,7.1,23.8c3.5-1.9,9.8-4.4,17.4-3.9c8.5,0.5,15.7,2.3,18.9,4.2       c3-9,5.6-20.4,5.6-24.1c0-15.2-11-27.5-24.5-27.5S109.3,24.9,109.3,40.1"/>
				</g>
			</g>
		</g>
	</g>
</g>
</svg>